<svg viewBox="0 0 64.3152 40.4805" fill="none" xmlns="http://www.w3.org/2000/svg">
<g id="Group 2147225612">
<path id="Union" d="M50.5789 1.49209C55.3239 1.05584 58.8447 2.36576 60.8923 5.1122C62.78 7.64419 62.8514 10.673 62.4705 12.6054L62.45 12.7079L62.4236 12.8085C61.0076 18.1505 56.4991 21.0052 52.3797 22.4716C48.5354 23.84 44.3872 24.2526 41.45 24.2265C41.5929 24.4864 41.7536 24.7454 41.9353 24.997C42.846 26.2573 44.3297 27.4549 46.8884 27.8573L47.4148 27.9267L47.4558 27.9306L47.4978 27.9364C49.0598 28.1465 51.5448 28.0417 53.6961 27.1073C55.6949 26.2391 57.3865 24.693 57.9783 21.7343L61.1463 22.3681L64.3152 23.0019C63.2451 28.352 59.8963 31.4603 56.2713 33.0351C52.8373 34.5265 49.1575 34.665 46.7175 34.3505V34.3515C46.7085 34.3505 46.6992 34.3486 46.6902 34.3476C46.6721 34.3452 46.6535 34.3441 46.6355 34.3417V34.3407C41.9022 33.8053 38.6841 31.5312 36.697 28.7812C35.6195 27.2897 34.9254 25.6942 34.5154 24.2138H31.9793V17.7519H34.197C34.8423 12.8619 37.1826 9.18755 40.0496 6.59658C43.4304 3.54142 47.4945 2.01707 50.322 1.52627L50.45 1.50381L50.5789 1.49209ZM55.7107 8.97549C55.4231 8.58982 54.4826 7.65161 51.2976 7.91787C49.4658 8.26223 46.6617 9.33186 44.3826 11.3915C42.7171 12.8967 41.307 14.9425 40.7439 17.7519H40.8923L40.9509 17.7538C43.3084 17.8392 46.9914 17.5303 50.2127 16.3837C53.4327 15.2374 55.4865 13.5351 56.1414 11.2753C56.2756 10.492 56.1468 9.56056 55.7107 8.97549Z" fill="var(--fill-0, #FE8DB7)"/>
<g id="Union_2">
<mask id="path-2-outside-1_0_201" maskUnits="userSpaceOnUse" x="-0.218858" y="-0.59019" width="34" height="42" fill="black">
<rect fill="white" x="-0.218858" y="-0.59019" width="34" height="42"/>
<path d="M5.10341 5.11196C7.15112 2.36551 10.6718 1.05556 15.4169 1.49184L15.5458 1.50356L15.6737 1.52602C18.5014 2.01683 22.5662 3.54086 25.9472 6.59633C29.4282 9.7424 32.135 14.4854 31.9706 21.0631V21.0641C31.9189 23.1058 31.1556 26.8238 29.1425 30.3483C27.0834 33.953 23.5455 37.624 17.8778 38.8122C15.8015 39.2473 12.6414 39.2271 9.57411 38.0084C6.37544 36.7375 3.28148 34.1487 1.78114 29.6051L4.8495 28.5924L7.91786 27.5788C8.74765 30.0916 10.3178 31.3501 11.9599 32.0026C13.7331 32.7071 15.5913 32.6885 16.5526 32.487C19.9195 31.7811 22.106 29.6372 23.5311 27.1422C24.0981 26.1495 24.5176 25.1426 24.8212 24.2233C21.8716 24.2785 17.5821 23.883 13.6161 22.4713C9.49664 21.0049 4.98912 18.1502 3.57313 12.8082L3.54579 12.7077L3.52626 12.6051C3.14531 10.6727 3.21565 7.64404 5.10341 5.11196ZM14.6981 7.91762C11.5133 7.65139 10.5727 8.58954 10.285 8.97524C9.84928 9.55983 9.7207 10.4902 9.85438 11.2731C10.5087 13.5339 12.5629 15.2369 15.7841 16.3834C19.0052 17.5299 22.6875 17.8389 25.0448 17.7536L25.1034 17.7516H25.2518C24.6887 14.9423 23.2786 12.8964 21.6132 11.3913C19.334 9.33157 16.53 8.26195 14.6981 7.91762Z"/>
</mask>
<path d="M5.10341 5.11196C7.15112 2.36551 10.6718 1.05556 15.4169 1.49184L15.5458 1.50356L15.6737 1.52602C18.5014 2.01683 22.5662 3.54086 25.9472 6.59633C29.4282 9.7424 32.135 14.4854 31.9706 21.0631V21.0641C31.9189 23.1058 31.1556 26.8238 29.1425 30.3483C27.0834 33.953 23.5455 37.624 17.8778 38.8122C15.8015 39.2473 12.6414 39.2271 9.57411 38.0084C6.37544 36.7375 3.28148 34.1487 1.78114 29.6051L4.8495 28.5924L7.91786 27.5788C8.74765 30.0916 10.3178 31.3501 11.9599 32.0026C13.7331 32.7071 15.5913 32.6885 16.5526 32.487C19.9195 31.7811 22.106 29.6372 23.5311 27.1422C24.0981 26.1495 24.5176 25.1426 24.8212 24.2233C21.8716 24.2785 17.5821 23.883 13.6161 22.4713C9.49664 21.0049 4.98912 18.1502 3.57313 12.8082L3.54579 12.7077L3.52626 12.6051C3.14531 10.6727 3.21565 7.64404 5.10341 5.11196ZM14.6981 7.91762C11.5133 7.65139 10.5727 8.58954 10.285 8.97524C9.84928 9.55983 9.7207 10.4902 9.85438 11.2731C10.5087 13.5339 12.5629 15.2369 15.7841 16.3834C19.0052 17.5299 22.6875 17.8389 25.0448 17.7536L25.1034 17.7516H25.2518C24.6887 14.9423 23.2786 12.8964 21.6132 11.3913C19.334 9.33157 16.53 8.26195 14.6981 7.91762Z" fill="var(--fill-0, #FE8DB7)"/>
<path d="M5.10341 5.11196L3.97297 4.26912L3.97295 4.26916L5.10341 5.11196ZM15.4169 1.49184L15.2878 2.89597L15.2892 2.8961L15.4169 1.49184ZM15.5458 1.50356L15.7896 0.11475L15.7319 0.104608L15.6735 0.0992977L15.5458 1.50356ZM15.6737 1.52602L15.4299 2.91483L15.4326 2.9153L15.6737 1.52602ZM25.9472 6.59633L26.8926 5.55021L26.8926 5.5502L25.9472 6.59633ZM31.9706 21.0631L30.561 21.0279L30.5605 21.0455V21.0631H31.9706ZM31.9706 21.0641L33.3802 21.0998L33.3806 21.082V21.0641H31.9706ZM29.1425 30.3483L30.3668 31.0477L30.3669 31.0476L29.1425 30.3483ZM17.8778 38.8122L18.167 40.1922L18.1671 40.1922L17.8778 38.8122ZM9.57411 38.0084L9.05346 39.3188L9.05348 39.3189L9.57411 38.0084ZM1.78114 29.6051L1.33921 28.2661L0 28.7081L0.442199 30.0473L1.78114 29.6051ZM4.8495 28.5924L5.29143 29.9314L5.29182 29.9313L4.8495 28.5924ZM7.91786 27.5788L9.2568 27.1366L8.81461 25.7975L7.47554 26.2399L7.91786 27.5788ZM11.9599 32.0026L11.4391 33.313L11.4392 33.313L11.9599 32.0026ZM16.5526 32.487L16.8419 33.867L16.842 33.867L16.5526 32.487ZM23.5311 27.1422L24.7555 27.8416L24.7556 27.8416L23.5311 27.1422ZM24.8212 24.2233L26.1601 24.6655L26.784 22.7762L24.7948 22.8135L24.8212 24.2233ZM13.6161 22.4713L13.1432 23.7997L13.1433 23.7997L13.6161 22.4713ZM3.57313 12.8082L4.93614 12.447L4.93381 12.4384L3.57313 12.8082ZM3.54579 12.7077L2.16064 12.9715L2.17083 13.025L2.18512 13.0776L3.54579 12.7077ZM3.52626 12.6051L4.91144 12.3413L4.90969 12.3324L3.52626 12.6051ZM14.6981 7.91762L14.9586 6.53184L14.8876 6.51849L14.8156 6.51247L14.6981 7.91762ZM10.285 8.97524L9.15467 8.13233L9.15452 8.13253L10.285 8.97524ZM9.85438 11.2731L8.46445 11.5104L8.47782 11.5888L8.49992 11.6651L9.85438 11.2731ZM15.7841 16.3834L15.3112 17.7118L15.3113 17.7119L15.7841 16.3834ZM25.0448 17.7536L24.9978 16.3443L24.9938 16.3444L25.0448 17.7536ZM25.1034 17.7516V16.3416H25.0799L25.0564 16.3423L25.1034 17.7516ZM25.2518 17.7516V19.1617H26.9726L26.6344 17.4745L25.2518 17.7516ZM21.6132 11.3913L22.5586 10.3451L22.5586 10.3451L21.6132 11.3913ZM5.10341 5.11196L6.23384 5.95479C7.89591 3.72558 10.8555 2.48845 15.2878 2.89597L15.4169 1.49184L15.546 0.0877105C10.4881 -0.377323 6.40633 1.00543 3.97297 4.26912L5.10341 5.11196ZM15.4169 1.49184L15.2892 2.8961L15.4181 2.90782L15.5458 1.50356L15.6735 0.0992977L15.5445 0.087579L15.4169 1.49184ZM15.5458 1.50356L15.302 2.89237L15.4299 2.91483L15.6737 1.52602L15.9176 0.137211L15.7896 0.11475L15.5458 1.50356ZM15.6737 1.52602L15.4326 2.9153C18.0424 3.3683 21.8496 4.79375 25.0017 7.64247L25.9472 6.59633L26.8926 5.5502C23.2829 2.28798 18.9603 0.665353 15.9149 0.13674L15.6737 1.52602ZM25.9472 6.59633L25.0017 7.64246C28.211 10.5429 30.714 14.9037 30.561 21.0279L31.9706 21.0631L33.3802 21.0984C33.5559 14.0671 30.6455 8.94192 26.8926 5.55021L25.9472 6.59633ZM31.9706 21.0631H30.5605V21.0641H31.9706H33.3806V21.0631H31.9706ZM31.9706 21.0641L30.561 21.0284C30.5151 22.8422 29.813 26.3314 27.9181 29.6489L29.1425 30.3483L30.3669 31.0476C32.4982 27.3163 33.3227 23.3695 33.3802 21.0998L31.9706 21.0641ZM29.1425 30.3483L27.9181 29.6489C25.9965 33.0129 22.753 36.3494 17.5885 37.4321L17.8778 38.8122L18.1671 40.1922C24.3379 38.8986 28.1702 34.8932 30.3668 31.0477L29.1425 30.3483ZM17.8778 38.8122L17.5886 37.4321C15.7556 37.8162 12.8797 37.8045 10.0947 36.698L9.57411 38.0084L9.05348 39.3189C12.4031 40.6497 15.8475 40.6783 18.167 40.1922L17.8778 38.8122ZM9.57411 38.0084L10.0948 36.698C7.23478 35.5617 4.47386 33.2627 3.12008 29.163L1.78114 29.6051L0.442199 30.0473C2.0891 35.0347 5.51611 37.9134 9.05346 39.3188L9.57411 38.0084ZM1.78114 29.6051L2.22307 30.9441L5.29143 29.9314L4.8495 28.5924L4.40757 27.2534L1.33921 28.2661L1.78114 29.6051ZM4.8495 28.5924L5.29182 29.9313L8.36018 28.9176L7.91786 27.5788L7.47554 26.2399L4.40718 27.2535L4.8495 28.5924ZM7.91786 27.5788L6.57892 28.0209C7.55442 30.975 9.45569 32.5248 11.4391 33.313L11.9599 32.0026L12.4806 30.6922C11.18 30.1754 9.94088 29.2082 9.2568 27.1366L7.91786 27.5788ZM11.9599 32.0026L11.4392 33.313C13.4942 34.1294 15.6366 34.1197 16.8419 33.867L16.5526 32.487L16.2633 31.1069C15.5461 31.2573 13.972 31.2847 12.4805 30.6922L11.9599 32.0026ZM16.5526 32.487L16.842 33.867C20.7091 33.0562 23.191 30.5807 24.7555 27.8416L23.5311 27.1422L22.3067 26.4429C21.021 28.6938 19.1299 30.5059 16.2633 31.1069L16.5526 32.487ZM23.5311 27.1422L24.7556 27.8416C25.3766 26.7542 25.8321 25.6587 26.1601 24.6655L24.8212 24.2233L23.4823 23.7811C23.203 24.6266 22.8196 25.5449 22.3067 26.4429L23.5311 27.1422ZM24.8212 24.2233L24.7948 22.8135C21.9665 22.8664 17.8546 22.4833 14.0889 21.1429L13.6161 22.4713L13.1433 23.7997C17.3096 25.2827 21.7767 25.6906 24.8476 25.6331L24.8212 24.2233ZM13.6161 22.4713L14.089 21.1429C10.1493 19.7405 6.17675 17.1274 4.93612 12.447L3.57313 12.8082L2.21015 13.1695C3.80149 19.1731 8.84397 22.2693 13.1432 23.7997L13.6161 22.4713ZM3.57313 12.8082L4.93381 12.4384L4.90646 12.3378L3.54579 12.7077L2.18512 13.0776L2.21246 13.1781L3.57313 12.8082ZM3.54579 12.7077L4.93094 12.4438L4.91141 12.3413L3.52626 12.6051L2.14111 12.869L2.16064 12.9715L3.54579 12.7077ZM3.52626 12.6051L4.90969 12.3324C4.57684 10.644 4.66104 8.06442 6.23387 5.95476L5.10341 5.11196L3.97295 4.26916C1.77026 7.22366 1.71378 10.7015 2.14283 12.8779L3.52626 12.6051ZM14.6981 7.91762L14.8156 6.51247C13.0831 6.36764 11.8309 6.53841 10.9126 6.88072C9.96221 7.23501 9.44254 7.74629 9.15467 8.13233L10.285 8.97524L11.4154 9.81815C11.4255 9.80461 11.4513 9.77118 11.5109 9.72504C11.5725 9.67744 11.6907 9.60033 11.8977 9.52319C12.3178 9.36656 13.1284 9.20137 14.5807 9.32277L14.6981 7.91762ZM10.285 8.97524L9.15452 8.13253C8.41562 9.12379 8.28956 10.4862 8.46445 11.5104L9.85438 11.2731L11.2443 11.0358C11.1518 10.4942 11.2829 9.99588 11.4156 9.81795L10.285 8.97524ZM9.85438 11.2731L8.49992 11.6651C9.33751 14.5591 11.9024 16.4985 15.3112 17.7118L15.7841 16.3834L16.2569 15.055C13.2235 13.9753 11.6799 12.5088 11.2088 10.8811L9.85438 11.2731ZM15.7841 16.3834L15.3113 17.7119C18.7407 18.9324 22.6089 19.2528 25.0958 19.1627L25.0448 17.7536L24.9938 16.3444C22.7662 16.4251 19.2698 16.1273 16.2569 15.055L15.7841 16.3834ZM25.0448 17.7536L25.0918 19.1628L25.1504 19.1609L25.1034 17.7516L25.0564 16.3423L24.9978 16.3443L25.0448 17.7536ZM25.1034 17.7516V19.1617H25.2518V17.7516V16.3416H25.1034V17.7516ZM25.2518 17.7516L26.6344 17.4745C26.0028 14.3237 24.412 12.0201 22.5586 10.3451L21.6132 11.3913L20.6677 12.4374C22.1453 13.7728 23.3746 15.5609 23.8693 18.0287L25.2518 17.7516ZM21.6132 11.3913L22.5586 10.3451C20.0547 8.08234 16.9997 6.91549 14.9586 6.53184L14.6981 7.91762L14.4377 9.30341C16.0603 9.60842 18.6133 10.5808 20.6678 12.4374L21.6132 11.3913Z" fill="url(#paint0_linear_0_201)" mask="url(#path-2-outside-1_0_201)"/>
</g>
</g>
<defs>
<linearGradient id="paint0_linear_0_201" x1="16.8794" y1="1.40981" x2="16.8794" y2="39.0708" gradientUnits="userSpaceOnUse">
<stop stop-color="#1E1D1E"/>
<stop offset="1" stop-color="#1E1D1E"/>
</linearGradient>
</defs>
</svg>
