<svg width="149" height="148" viewBox="0 0 149 148" fill="none" xmlns="http://www.w3.org/2000/svg">
<g id="&#236;&#158;&#172;&#236;&#152;&#129; - &#237;&#153;&#136;">
<g id="B02) &#237;&#153;&#136; - &#235;&#161;&#156;&#234;&#183;&#184;&#236;&#157;&#184;(&#236;&#167;&#132;&#237;&#150;&#137; &#236;&#164;&#145;&#236;&#157;&#184; &#236;&#132;&#160;&#235;&#172;&#188;&#236;&#157;&#180; &#236;&#151;&#134;&#236;&#157;&#132; &#235;&#149;&#140;)">
<g id="Group 2147225915">
<g id="Group 2147225910">
<path id="Union" d="M73.4936 89.8926C94.8146 89.8926 112.099 97.7151 112.1 107.364C112.1 107.66 112.082 107.953 112.05 108.245C112.414 109.812 112.159 111.544 111.078 113.051L96.4535 133.431C93.0704 138.146 85.6293 135.752 85.6293 129.949V123.954C81.8131 124.526 77.7332 124.836 73.4936 124.836C69.0776 124.836 64.8352 124.499 60.8832 123.881V129.949C60.8832 135.752 53.4422 138.146 50.059 133.431L35.435 113.051C34.0573 111.131 34.0182 108.845 34.8979 107.002C35.3247 97.5202 52.4402 89.8926 73.4936 89.8926Z" fill="url(#paint0_linear_1706_58687)"/>
<path id="Union_2" d="M73.2561 17.9705C111.733 17.9705 142.925 40.5326 142.925 68.364C142.925 82.582 138.292 95.7606 125.198 104.923C112.662 113.695 92.0767 118.758 73.2561 118.758C53.9836 118.757 33.4616 114.071 20.8489 104.923C8.28085 95.8071 3.58813 82.255 3.58813 68.364C3.58815 40.5327 34.7795 17.9706 73.2561 17.9705Z" fill="black"/>
<path id="Ellipse 8769" d="M142.925 68.3679C142.925 82.5859 138.292 95.7647 125.199 104.927C112.662 113.699 92.0773 118.761 73.2567 118.761C53.9841 118.761 33.4617 114.075 20.8489 104.927C8.28087 95.8111 3.58813 82.2589 3.58813 68.3679C3.58813 40.5365 34.7798 17.9746 73.2567 17.9746C111.734 17.9746 142.925 40.5365 142.925 68.3679Z" fill="black"/>
<path id="Ellipse 8770" d="M73.2571 18.2734C92.4395 18.2735 109.794 23.8979 122.345 32.9766C134.896 42.0555 142.626 54.5723 142.626 68.3682C142.626 82.5158 138.021 95.5896 125.028 104.682C112.557 113.408 92.0391 118.463 73.2571 118.463C54.0175 118.463 33.5667 113.781 21.0247 104.685C8.55412 95.6398 3.88702 82.1912 3.88696 68.3682C3.88696 54.5723 11.6168 42.0555 24.1682 32.9766C36.7195 23.8979 54.0745 18.2734 73.2571 18.2734Z" fill="url(#paint1_radial_1706_58687)" stroke="url(#paint2_linear_1706_58687)" stroke-width="0.59719"/>
<g id="Union_3">
<mask id="path-7-inside-1_1706_58687" fill="white">
<path d="M119.484 0.71262C121.487 -0.680732 124.249 0.0394221 125.26 2.26047C127.615 7.43351 131.551 16.5548 134.027 24.821C136.843 34.2284 138.958 44.8232 140.098 51.115C140.232 51.8547 140.024 52.5118 139.624 52.9978C141.767 57.8434 142.925 63.0078 142.925 68.3679C142.925 82.5858 138.292 95.7645 125.198 104.926C112.662 113.699 92.0775 118.761 73.2571 118.761C53.9845 118.761 33.4617 114.074 20.8489 104.926C8.28094 95.811 3.58817 82.2588 3.58813 68.3679C3.58813 63.0058 4.74621 57.8392 6.89087 52.9919C6.4947 52.5065 6.28883 51.8515 6.42212 51.115C7.56183 44.8232 9.67661 34.2284 12.4934 24.821C14.9685 16.5547 18.9061 7.43353 21.261 2.26047C22.2721 0.0394895 25.0329 -0.680681 27.0364 0.71262L54.51 19.82C60.4747 18.6175 66.7622 17.9743 73.2571 17.9743C79.7531 17.9744 86.0414 18.618 92.0071 19.821L119.484 0.71262Z"/>
</mask>
<path d="M119.484 0.71262C121.487 -0.680732 124.249 0.0394221 125.26 2.26047C127.615 7.43351 131.551 16.5548 134.027 24.821C136.843 34.2284 138.958 44.8232 140.098 51.115C140.232 51.8547 140.024 52.5118 139.624 52.9978C141.767 57.8434 142.925 63.0078 142.925 68.3679C142.925 82.5858 138.292 95.7645 125.198 104.926C112.662 113.699 92.0775 118.761 73.2571 118.761C53.9845 118.761 33.4617 114.074 20.8489 104.926C8.28094 95.811 3.58817 82.2588 3.58813 68.3679C3.58813 63.0058 4.74621 57.8392 6.89087 52.9919C6.4947 52.5065 6.28883 51.8515 6.42212 51.115C7.56183 44.8232 9.67661 34.2284 12.4934 24.821C14.9685 16.5547 18.9061 7.43353 21.261 2.26047C22.2721 0.0394895 25.0329 -0.680681 27.0364 0.71262L54.51 19.82C60.4747 18.6175 66.7622 17.9743 73.2571 17.9743C79.7531 17.9744 86.0414 18.618 92.0071 19.821L119.484 0.71262Z" fill="url(#paint3_radial_1706_58687)"/>
<path d="M119.484 0.71262L119.825 1.2029L119.825 1.2029L119.484 0.71262ZM125.26 2.26047L124.716 2.50789V2.50789L125.26 2.26047ZM134.027 24.821L134.599 24.6497V24.6497L134.027 24.821ZM140.098 51.115L140.686 51.0086L140.686 51.0085L140.098 51.115ZM139.624 52.9978L139.163 52.6185L138.929 52.9028L139.078 53.2393L139.624 52.9978ZM142.925 68.3679H143.522V68.3679H142.925ZM125.198 104.926L125.541 105.416L125.541 105.416L125.198 104.926ZM73.2571 118.761V119.359V119.359V118.761ZM20.8489 104.926L20.4983 105.41V105.41L20.8489 104.926ZM3.58813 68.3679H2.99095V68.3679H3.58813ZM6.89087 52.9919L7.43699 53.2335L7.58532 52.8983L7.35351 52.6143L6.89087 52.9919ZM6.42212 51.115L5.83449 51.0085L5.83447 51.0086L6.42212 51.115ZM12.4934 24.821L11.9213 24.6497V24.6497L12.4934 24.821ZM21.261 2.26047L20.7175 2.01304L20.7175 2.01305L21.261 2.26047ZM27.0364 0.71262L27.3774 0.222345L27.3773 0.222339L27.0364 0.71262ZM54.51 19.82L54.169 20.3103L54.3782 20.4558L54.628 20.4055L54.51 19.82ZM73.2571 17.9743V17.3771V17.3771V17.9743ZM92.0071 19.821L91.889 20.4064L92.1388 20.4568L92.348 20.3113L92.0071 19.821ZM119.484 0.71262L119.825 1.2029C121.531 0.0164344 123.864 0.635488 124.716 2.50789L125.26 2.26047L125.804 2.01305C124.634 -0.556644 121.444 -1.3779 119.143 0.222343L119.484 0.71262ZM125.26 2.26047L124.716 2.50789C127.069 7.67507 130.991 16.7663 133.455 24.9923L134.027 24.821L134.599 24.6497C132.112 16.3432 128.161 7.19196 125.804 2.01305L125.26 2.26047ZM134.027 24.821L133.455 24.9923C136.262 34.3676 138.372 44.9365 139.51 51.2214L140.098 51.115L140.686 51.0085C139.545 44.7099 137.425 34.0893 134.599 24.6497L134.027 24.821ZM140.098 51.115L139.51 51.2213C139.612 51.7819 139.455 52.2627 139.163 52.6185L139.624 52.9978L140.086 53.377C140.592 52.7608 140.852 51.9275 140.686 51.0086L140.098 51.115ZM139.624 52.9978L139.078 53.2393C141.189 58.0131 142.328 63.0955 142.328 68.3679H142.925H143.522C143.522 62.9201 142.345 57.6737 140.17 52.7562L139.624 52.9978ZM142.925 68.3679L142.328 68.3679C142.328 82.4454 137.75 95.415 124.856 104.437L125.198 104.926L125.541 105.416C138.834 96.1141 143.522 82.7261 143.522 68.3679H142.925ZM125.198 104.926L124.856 104.437C112.451 113.117 92.0004 118.164 73.2571 118.164V118.761V119.359C92.1546 119.359 112.872 114.281 125.541 105.416L125.198 104.926ZM73.2571 118.761V118.164C54.0505 118.164 33.6707 113.488 21.1995 104.443L20.8489 104.926L20.4983 105.41C33.2526 114.661 53.9184 119.359 73.2571 119.359V118.761ZM20.8489 104.926L21.1995 104.443C8.82647 95.4689 4.18536 82.123 4.18532 68.3679L3.58813 68.3679H2.99095C2.99098 82.3947 7.7354 96.1531 20.4983 105.41L20.8489 104.926ZM3.58813 68.3679H4.18532C4.18532 63.0935 5.32415 58.0089 7.43699 53.2335L6.89087 52.9919L6.34475 52.7503C4.16826 57.6694 2.99095 62.9181 2.99095 68.3679H3.58813ZM6.89087 52.9919L7.35351 52.6143C7.0635 52.259 6.90875 51.7795 7.00976 51.2213L6.42212 51.115L5.83447 51.0086C5.66891 51.9235 5.9259 52.7541 6.42823 53.3695L6.89087 52.9919ZM6.42212 51.115L7.00975 51.2214C8.14822 44.9365 10.2583 34.3675 13.0655 24.9923L12.4934 24.821L11.9213 24.6497C9.09489 34.0893 6.97544 44.7099 5.83449 51.0085L6.42212 51.115ZM12.4934 24.821L13.0655 24.9923C15.5286 16.7663 19.4523 7.67513 21.8045 2.50789L21.261 2.26047L20.7175 2.01305C18.36 7.19192 14.4085 16.3431 11.9213 24.6497L12.4934 24.821ZM21.261 2.26047L21.8045 2.5079C22.6569 0.635486 24.9895 0.0165261 26.6954 1.2029L27.0364 0.71262L27.3773 0.222339C25.0764 -1.37789 21.8872 -0.556507 20.7175 2.01304L21.261 2.26047ZM27.0364 0.71262L26.6954 1.2029L54.169 20.3103L54.51 19.82L54.851 19.3298L27.3774 0.222345L27.0364 0.71262ZM54.51 19.82L54.628 20.4055C60.5536 19.2108 66.8016 18.5715 73.2571 18.5715V17.9743V17.3771C66.7229 17.3771 60.3959 18.0242 54.392 19.2346L54.51 19.82ZM73.2571 17.9743V18.5715C79.7138 18.5715 85.9625 19.2113 91.889 20.4064L92.0071 19.821L92.1251 19.2356C86.1203 18.0247 79.7925 17.3772 73.2571 17.3771V17.9743ZM92.0071 19.821L92.348 20.3113L119.825 1.2029L119.484 0.71262L119.143 0.222336L91.6661 19.3307L92.0071 19.821Z" fill="url(#paint4_linear_1706_58687)" mask="url(#path-7-inside-1_1706_58687)"/>
</g>
<path id="Subtract" d="M118.266 8.42797C120.226 6.67056 123.301 7.27026 124.383 9.67015C126.468 14.2953 129.558 21.6128 131.541 28.4338C133.588 35.4715 135.187 43.3651 136.225 49.1135C129.139 37.9175 116.551 28.9239 100.962 23.9446L118.266 8.42797Z" fill="url(#paint5_linear_1706_58687)"/>
<path id="Subtract_2" d="M29.1649 7.49436C27.2049 5.73674 24.1289 6.33658 23.0468 8.73655C20.9614 13.3617 17.8721 20.6792 15.8885 27.5002C13.8423 34.5371 12.2427 42.4298 11.205 48.178C18.2906 36.9822 30.8783 27.9884 46.4667 23.009L29.1649 7.49436Z" fill="url(#paint6_linear_1706_58687)"/>
<ellipse id="Ellipse 8771" cx="106.665" cy="64.6381" rx="29.1787" ry="34.497" transform="rotate(-27.7101 106.665 64.6381)" fill="url(#paint7_linear_1706_58687)"/>
<g id="Ellipse 8772">
<ellipse cx="106.665" cy="64.6381" rx="29.1787" ry="34.497" transform="rotate(-27.7101 106.665 64.6381)" fill="url(#paint8_linear_1706_58687)" fill-opacity="0.2"/>
<path d="M132.762 50.9313C132.586 51.0238 132.409 51.1164 132.233 51.209C133.754 54.1615 134.916 57.2865 135.666 60.5092C138.839 73.1968 134.483 88.5909 122.475 94.7382C107.336 102.792 88.414 92.694 81.0532 78.0905C72.9845 63.9046 75.0455 42.2128 90.6242 34.0975C102.77 27.5591 118.149 32.9856 126.658 42.984C128.856 45.4781 130.724 48.2501 132.233 51.209C132.409 51.1164 132.586 51.0238 132.762 50.9313C131.16 47.9669 129.209 45.2044 126.942 42.7286C118.145 32.8082 102.756 27.5713 90.6242 34.0975C90.6242 34.0975 90.6242 34.0975 90.6242 34.0975C75.0801 42.1785 72.6779 63.8113 80.6126 78.3219C87.7959 93.1814 107.078 103.998 122.938 95.6194C135.466 89.1922 139.792 73.2022 136.387 60.3366C135.58 57.0621 134.352 53.9016 132.762 50.9313ZM132.233 51.209L132.762 50.9313L132.233 51.209Z" fill="url(#paint9_linear_1706_58687)"/>
</g>
<ellipse id="Ellipse 8773" cx="106.114" cy="62.8862" rx="25.5779" ry="30.2398" transform="rotate(-27.7101 106.114 62.8862)" fill="url(#paint10_linear_1706_58687)"/>
<ellipse id="Ellipse 8774" cx="29.1787" cy="34.497" rx="29.1787" ry="34.497" transform="matrix(-0.885312 -0.464997 -0.464997 0.885312 83.7467 47.6655)" fill="url(#paint11_linear_1706_58687)"/>
<g id="Ellipse 8775">
<ellipse cx="29.1787" cy="34.497" rx="29.1787" ry="34.497" transform="matrix(-0.885312 -0.464997 -0.464997 0.885312 83.7467 47.6655)" fill="url(#paint12_linear_1706_58687)" fill-opacity="0.2"/>
<path d="M15.7767 50.9313C15.953 51.0238 16.1292 51.1164 16.3054 51.209C14.7844 54.1615 13.6228 57.2865 12.8721 60.5092C9.69982 73.1968 14.0559 88.5909 26.0638 94.7382C41.2029 102.792 60.1246 92.694 67.4854 78.0905C75.5541 63.9046 73.4931 42.2128 57.9144 34.0975C45.7682 27.5591 30.3893 32.9856 21.8808 42.984C19.6827 45.4781 17.8144 48.2501 16.3054 51.209C16.1292 51.1164 15.953 51.0238 15.7767 50.9313C17.3785 47.9669 19.3292 45.2044 21.5965 42.7286C30.3935 32.8082 45.7822 27.5713 57.9144 34.0975C57.9144 34.0975 57.9144 34.0975 57.9144 34.0975C73.4585 42.1785 75.8607 63.8113 67.926 78.3219C60.7427 93.1814 41.4607 103.998 25.6009 95.6194C13.0729 89.1922 8.74629 73.2022 12.152 60.3366C12.9588 57.0621 14.1864 53.9016 15.7767 50.9313ZM16.3054 51.209L15.7767 50.9313L16.3054 51.209Z" fill="url(#paint13_linear_1706_58687)"/>
</g>
<ellipse id="Ellipse 8776" cx="25.5779" cy="30.2398" rx="25.5779" ry="30.2398" transform="matrix(-0.885312 -0.464997 -0.464997 0.885312 79.9332 47.9199)" fill="url(#paint14_linear_1706_58687)"/>
<g id="Ellipse 8777" filter="url(#filter2_f_1706_58687)">
<ellipse cx="116.111" cy="53.7194" rx="9.33885" ry="12.5009" transform="rotate(-39.3254 116.111 53.7194)" fill="#FE71A5"/>
</g>
<g id="Ellipse 8778" filter="url(#filter3_f_1706_58687)">
<ellipse cx="93.7484" cy="67.6392" rx="4.15551" ry="5.5625" transform="rotate(-30.8867 93.7484 67.6392)" fill="#FE71A5"/>
</g>
<g id="Ellipse 8779" filter="url(#filter4_f_1706_58687)">
<ellipse cx="9.33885" cy="12.5009" rx="9.33885" ry="12.5009" transform="matrix(-0.77356 -0.633724 -0.633724 0.77356 48.6497 49.9675)" fill="#FE71A5"/>
</g>
<g id="Ellipse 8780" filter="url(#filter5_f_1706_58687)">
<ellipse cx="4.15551" cy="5.5625" rx="4.15551" ry="5.5625" transform="matrix(-0.858184 -0.513342 -0.513342 0.858184 63.142 64.1698)" fill="#FE71A5"/>
</g>
<ellipse id="Ellipse 8781" cx="93.7484" cy="67.775" rx="4.15502" ry="5.40487" transform="rotate(-30.8867 93.7484 67.775)" fill="white"/>
<ellipse id="Ellipse 8782" cx="9.18047" cy="12.2888" rx="9.18047" ry="12.2888" transform="matrix(-0.77356 -0.633724 -0.633724 0.77356 48.5273 49.865)" fill="white"/>
<ellipse id="Ellipse 8783" cx="116.111" cy="53.5533" rx="9.18047" ry="12.2888" transform="rotate(-39.3254 116.111 53.5533)" fill="white"/>
<ellipse id="Ellipse 8784" cx="4.15551" cy="5.40551" rx="4.15551" ry="5.40551" transform="matrix(-0.858184 -0.513342 -0.513342 0.858184 63.142 64.3011)" fill="white"/>
<g id="Star 40" filter="url(#filter6_f_1706_58687)">
<path d="M35.7816 75.714L35.9805 78.8673L38.5037 80.769L35.3504 80.9678L33.4488 83.4911L33.2499 80.3378L30.7267 78.4361L33.88 78.2373L35.7816 75.714Z" fill="#FFE3ED" fill-opacity="0.5"/>
</g>
<g id="Star 41" filter="url(#filter7_f_1706_58687)">
<path d="M30.6141 72.9665L30.7188 74.6272L32.0477 75.6287L30.387 75.7334L29.3855 77.0623L29.2807 75.4016L27.9519 74.4001L29.6126 74.2953L30.6141 72.9665Z" fill="#FFE3ED" fill-opacity="0.5"/>
</g>
<g id="Star 42" filter="url(#filter8_f_1706_58687)">
<path d="M117.736 72.9665L117.632 74.6272L116.303 75.6287L117.963 75.7334L118.965 77.0623L119.07 75.4016L120.398 74.4001L118.738 74.2953L117.736 72.9665Z" fill="#FFE3ED" fill-opacity="0.5"/>
</g>
<g id="Star 43" filter="url(#filter9_f_1706_58687)">
<path d="M113.563 75.714L113.364 78.8673L110.841 80.769L113.994 80.9678L115.896 83.4911L116.095 80.3378L118.618 78.4361L115.465 78.2373L113.563 75.714Z" fill="#FFE3ED" fill-opacity="0.5"/>
</g>
<rect id="Rectangle 1954137239" x="60.8666" y="125.503" width="24.7808" height="22.4873" rx="1.59251" fill="url(#paint15_linear_1706_58687)"/>
<rect id="Rectangle 1954137240" x="60.8666" y="135.872" width="24.7807" height="1.74844" fill="#331721"/>
<rect id="Rectangle 1954137241" x="74.0907" y="125.503" width="22.4873" height="1.66754" transform="rotate(90 74.0907 125.503)" fill="url(#paint16_linear_1706_58687)"/>
<g id="Group 2147225913">
<path id="Subtract_3" d="M78.3082 131.341C79.6758 131.215 80.6907 131.593 81.2809 132.385C81.8246 133.114 81.8448 133.987 81.735 134.544L81.7301 134.573L81.7223 134.602C81.3141 136.141 80.0148 136.965 78.8278 137.387C77.7204 137.782 76.5247 137.899 75.6783 137.891C75.7196 137.966 75.7645 138.042 75.817 138.115C76.0969 138.502 76.5652 138.868 77.3961 138.959L77.4078 138.961L77.4205 138.962C77.8705 139.022 78.5869 138.992 79.2067 138.723C79.7826 138.473 80.2704 138.027 80.441 137.175L82.2672 137.54C81.9587 139.081 80.9935 139.978 79.9489 140.431C78.9595 140.861 77.899 140.901 77.1959 140.81V140.811C77.188 140.81 77.1794 140.809 77.1715 140.808V140.807C75.8078 140.653 74.8798 139.998 74.3073 139.206C73.997 138.776 73.8005 138.316 73.6823 137.889H73.235C73.3099 137.542 73.347 137.233 73.3531 136.991C73.3615 136.655 73.343 136.334 73.3053 136.027H73.5875C73.7734 134.618 74.448 133.559 75.274 132.812C76.2481 131.932 77.4191 131.492 78.234 131.35L78.2711 131.345L78.3082 131.341ZM78.5162 133.193C77.9883 133.292 77.179 133.6 76.5221 134.194C76.0424 134.628 75.6364 135.218 75.4742 136.027H75.5338C76.2131 136.052 77.2746 135.963 78.2028 135.633C79.1329 135.302 79.7244 134.809 79.9117 134.155C79.9489 133.931 79.9122 133.665 79.7877 133.498C79.7049 133.387 79.4336 133.117 78.5162 133.193Z" fill="url(#paint17_linear_1706_58687)"/>
<g id="Union_4">
<path d="M65.204 132.384C65.7941 131.593 66.8085 131.215 68.1757 131.34L68.2128 131.344L68.2499 131.35C69.0648 131.492 70.2365 131.932 71.2108 132.812C72.2139 133.719 72.9944 135.086 72.9471 136.981C72.9323 137.569 72.7117 138.641 72.1317 139.657C71.5384 140.696 70.5188 141.754 68.8856 142.096C68.2873 142.222 67.3761 142.216 66.4921 141.865C65.5702 141.499 64.6784 140.752 64.246 139.443L65.1307 139.151L66.0145 138.859C66.2536 139.583 66.7064 139.945 67.1796 140.133C67.6904 140.336 68.2257 140.331 68.5028 140.273C69.473 140.07 70.1038 139.452 70.5145 138.733C70.6784 138.446 70.8 138.155 70.8876 137.889C70.0375 137.905 68.8006 137.794 67.6571 137.387C66.4699 136.965 65.1707 136.142 64.7626 134.602L64.7548 134.573L64.7489 134.544C64.6392 133.987 64.6601 133.114 65.204 132.384ZM67.9686 133.193C67.0519 133.116 66.7804 133.386 66.6971 133.498C66.5726 133.665 66.535 133.93 66.5721 134.155C66.7593 134.809 67.3516 135.301 68.2821 135.632C69.2104 135.963 70.2718 136.052 70.951 136.027H71.0106C70.8483 135.217 70.4418 134.628 69.9618 134.194C69.3049 133.6 68.4966 133.292 67.9686 133.193Z" fill="url(#paint18_linear_1706_58687)"/>
<path d="M65.204 132.384C65.7941 131.593 66.8085 131.215 68.1757 131.34L68.2128 131.344L68.2499 131.35C69.0648 131.492 70.2365 131.932 71.2108 132.812C72.2139 133.719 72.9944 135.086 72.9471 136.981C72.9323 137.569 72.7117 138.641 72.1317 139.657C71.5384 140.696 70.5188 141.754 68.8856 142.096C68.2873 142.222 67.3761 142.216 66.4921 141.865C65.5702 141.499 64.6784 140.752 64.246 139.443L65.1307 139.151L66.0145 138.859C66.2536 139.583 66.7064 139.945 67.1796 140.133C67.6904 140.336 68.2257 140.331 68.5028 140.273C69.473 140.07 70.1038 139.452 70.5145 138.733C70.6784 138.446 70.8 138.155 70.8876 137.889C70.0375 137.905 68.8006 137.794 67.6571 137.387C66.4699 136.965 65.1707 136.142 64.7626 134.602L64.7548 134.573L64.7489 134.544C64.6392 133.987 64.6601 133.114 65.204 132.384ZM67.9686 133.193C67.0519 133.116 66.7804 133.386 66.6971 133.498C66.5726 133.665 66.535 133.93 66.5721 134.155C66.7593 134.809 67.3516 135.301 68.2821 135.632C69.2104 135.963 70.2718 136.052 70.951 136.027H71.0106C70.8483 135.217 70.4418 134.628 69.9618 134.194C69.3049 133.6 68.4966 133.292 67.9686 133.193Z" fill="url(#paint19_linear_1706_58687)"/>
</g>
</g>
</g>
<rect id="Rectangle 1954137250" x="68.2559" y="86.441" width="11.67" height="25.3262" fill="#FE71A5"/>
</g>
</g>
</g>
<defs>
<filter id="filter2_f_1706_58687" x="103.797" y="40.7879" width="24.6279" height="25.8631" filterUnits="userSpaceOnUse" color-interpolation-filters="sRGB">
<feFlood flood-opacity="0" result="BackgroundImageFix"/>
<feBlend mode="normal" in="SourceGraphic" in2="BackgroundImageFix" result="shape"/>
<feGaussianBlur stdDeviation="0.796253" result="effect1_foregroundBlur_1706_58687"/>
</filter>
<filter id="filter3_f_1706_58687" x="87.5873" y="60.8168" width="12.3223" height="13.6448" filterUnits="userSpaceOnUse" color-interpolation-filters="sRGB">
<feFlood flood-opacity="0" result="BackgroundImageFix"/>
<feBlend mode="normal" in="SourceGraphic" in2="BackgroundImageFix" result="shape"/>
<feGaussianBlur stdDeviation="0.796253" result="effect1_foregroundBlur_1706_58687"/>
</filter>
<filter id="filter4_f_1706_58687" x="21.1895" y="40.7879" width="24.6279" height="25.8631" filterUnits="userSpaceOnUse" color-interpolation-filters="sRGB">
<feFlood flood-opacity="0" result="BackgroundImageFix"/>
<feBlend mode="normal" in="SourceGraphic" in2="BackgroundImageFix" result="shape"/>
<feGaussianBlur stdDeviation="0.796253" result="effect1_foregroundBlur_1706_58687"/>
</filter>
<filter id="filter5_f_1706_58687" x="50.5591" y="59.9878" width="12.3223" height="13.6448" filterUnits="userSpaceOnUse" color-interpolation-filters="sRGB">
<feFlood flood-opacity="0" result="BackgroundImageFix"/>
<feBlend mode="normal" in="SourceGraphic" in2="BackgroundImageFix" result="shape"/>
<feGaussianBlur stdDeviation="0.796253" result="effect1_foregroundBlur_1706_58687"/>
</filter>
<filter id="filter6_f_1706_58687" x="29.9304" y="74.9177" width="9.36948" height="9.36961" filterUnits="userSpaceOnUse" color-interpolation-filters="sRGB">
<feFlood flood-opacity="0" result="BackgroundImageFix"/>
<feBlend mode="normal" in="SourceGraphic" in2="BackgroundImageFix" result="shape"/>
<feGaussianBlur stdDeviation="0.398126" result="effect1_foregroundBlur_1706_58687"/>
</filter>
<filter id="filter7_f_1706_58687" x="27.1557" y="72.1702" width="5.68833" height="5.68833" filterUnits="userSpaceOnUse" color-interpolation-filters="sRGB">
<feFlood flood-opacity="0" result="BackgroundImageFix"/>
<feBlend mode="normal" in="SourceGraphic" in2="BackgroundImageFix" result="shape"/>
<feGaussianBlur stdDeviation="0.398126" result="effect1_foregroundBlur_1706_58687"/>
</filter>
<filter id="filter8_f_1706_58687" x="115.506" y="72.1702" width="5.68833" height="5.68833" filterUnits="userSpaceOnUse" color-interpolation-filters="sRGB">
<feFlood flood-opacity="0" result="BackgroundImageFix"/>
<feBlend mode="normal" in="SourceGraphic" in2="BackgroundImageFix" result="shape"/>
<feGaussianBlur stdDeviation="0.398126" result="effect1_foregroundBlur_1706_58687"/>
</filter>
<filter id="filter9_f_1706_58687" x="110.045" y="74.9177" width="9.36948" height="9.36961" filterUnits="userSpaceOnUse" color-interpolation-filters="sRGB">
<feFlood flood-opacity="0" result="BackgroundImageFix"/>
<feBlend mode="normal" in="SourceGraphic" in2="BackgroundImageFix" result="shape"/>
<feGaussianBlur stdDeviation="0.398126" result="effect1_foregroundBlur_1706_58687"/>
</filter>
<linearGradient id="paint0_linear_1706_58687" x1="73.2558" y1="115.707" x2="73.2558" y2="164.147" gradientUnits="userSpaceOnUse">
<stop/>
<stop offset="1" stop-color="#FBFCEE"/>
</linearGradient>
<radialGradient id="paint1_radial_1706_58687" cx="0" cy="0" r="1" gradientUnits="userSpaceOnUse" gradientTransform="translate(73.2567 17.9746) rotate(90) scale(110.638 107.93)">
<stop/>
<stop offset="0.817936"/>
<stop offset="1" stop-color="#FBFCEE"/>
</radialGradient>
<linearGradient id="paint2_linear_1706_58687" x1="73.2567" y1="17.9746" x2="73.2567" y2="118.761" gradientUnits="userSpaceOnUse">
<stop/>
<stop offset="1" stop-color="#FBFCEE"/>
</linearGradient>
<radialGradient id="paint3_radial_1706_58687" cx="0" cy="0" r="1" gradientUnits="userSpaceOnUse" gradientTransform="translate(73.2566 17.9738) rotate(90) scale(110.639 107.93)">
<stop/>
<stop offset="0.817936"/>
<stop offset="1" stop-color="#FBFCEE"/>
</radialGradient>
<linearGradient id="paint4_linear_1706_58687" x1="73.2566" y1="0" x2="73.2566" y2="118.761" gradientUnits="userSpaceOnUse">
<stop/>
<stop offset="1" stop-color="#FBFCEE"/>
</linearGradient>
<linearGradient id="paint5_linear_1706_58687" x1="144.04" y1="56.1028" x2="92.8559" y2="8.54618" gradientUnits="userSpaceOnUse">
<stop stop-color="#FBFCEE"/>
<stop offset="0.5" stop-color="#E56695"/>
<stop offset="1" stop-color="#CB5A84"/>
</linearGradient>
<linearGradient id="paint6_linear_1706_58687" x1="3.39028" y1="55.167" x2="54.5719" y2="7.61157" gradientUnits="userSpaceOnUse">
<stop stop-color="#FBFCEE"/>
<stop offset="0.5" stop-color="#E56695"/>
<stop offset="1" stop-color="#CB5A84"/>
</linearGradient>
<linearGradient id="paint7_linear_1706_58687" x1="106.665" y1="30.1411" x2="106.665" y2="99.1352" gradientUnits="userSpaceOnUse">
<stop stop-color="#FFF5FD"/>
<stop offset="1" stop-color="#EAE9EA"/>
</linearGradient>
<linearGradient id="paint8_linear_1706_58687" x1="106.665" y1="30.1411" x2="106.665" y2="99.1352" gradientUnits="userSpaceOnUse">
<stop stop-color="white"/>
<stop offset="1" stop-color="#EAE9EA"/>
</linearGradient>
<linearGradient id="paint9_linear_1706_58687" x1="90.6242" y1="34.0975" x2="122.706" y2="95.1788" gradientUnits="userSpaceOnUse">
<stop/>
<stop offset="1" stop-color="#FBFCEE"/>
</linearGradient>
<linearGradient id="paint10_linear_1706_58687" x1="104.929" y1="45.8922" x2="106.114" y2="93.1261" gradientUnits="userSpaceOnUse">
<stop stop-color="#1E1D1E"/>
<stop offset="1" stop-color="#662D42"/>
</linearGradient>
<linearGradient id="paint11_linear_1706_58687" x1="29.1787" y1="0" x2="29.1787" y2="68.9941" gradientUnits="userSpaceOnUse">
<stop stop-color="#FFF5FD"/>
<stop offset="1" stop-color="#EAE9EA"/>
</linearGradient>
<linearGradient id="paint12_linear_1706_58687" x1="29.1787" y1="0" x2="29.1787" y2="68.9941" gradientUnits="userSpaceOnUse">
<stop stop-color="white"/>
<stop offset="1" stop-color="#EAE9EA"/>
</linearGradient>
<linearGradient id="paint13_linear_1706_58687" x1="57.9144" y1="34.0975" x2="25.8323" y2="95.1788" gradientUnits="userSpaceOnUse">
<stop/>
<stop offset="1" stop-color="#FBFCEE"/>
</linearGradient>
<linearGradient id="paint14_linear_1706_58687" x1="24.3923" y1="13.2458" x2="25.5779" y2="60.4797" gradientUnits="userSpaceOnUse">
<stop stop-color="#1E1D1E"/>
<stop offset="1" stop-color="#662D42"/>
</linearGradient>
<linearGradient id="paint15_linear_1706_58687" x1="73.257" y1="140.261" x2="73.257" y2="157.146" gradientUnits="userSpaceOnUse">
<stop stop-color="#FE71A5"/>
<stop offset="1" stop-color="#FBFCEE"/>
</linearGradient>
<linearGradient id="paint16_linear_1706_58687" x1="89.3758" y1="126.337" x2="115.23" y2="126.337" gradientUnits="userSpaceOnUse">
<stop stop-color="#331721"/>
<stop offset="1" stop-color="#FBFCEE"/>
</linearGradient>
<linearGradient id="paint17_linear_1706_58687" x1="77.4334" y1="137.4" x2="77.7511" y2="153.259" gradientUnits="userSpaceOnUse">
<stop stop-color="#331721"/>
<stop offset="1" stop-color="#FBFCEE"/>
</linearGradient>
<linearGradient id="paint18_linear_1706_58687" x1="68.5976" y1="131.317" x2="68.5976" y2="150.763" gradientUnits="userSpaceOnUse">
<stop stop-color="#331721"/>
<stop offset="1" stop-color="#FBFCEE"/>
</linearGradient>
<linearGradient id="paint19_linear_1706_58687" x1="68.2914" y1="138.243" x2="68.7188" y2="156.296" gradientUnits="userSpaceOnUse">
<stop stop-color="#331721"/>
<stop offset="1" stop-color="#FBFCEE"/>
</linearGradient>
</defs>
</svg>
