<svg viewBox="0 0 268 245" fill="none" xmlns="http://www.w3.org/2000/svg">
<path d="M97.025 165.606C97.8704 163.378 100.005 161.904 102.388 161.904H158.853C161.176 161.904 163.269 163.305 164.155 165.452L193.55 236.673C195.108 240.449 192.332 244.598 188.247 244.598H75.3665C71.3519 244.598 68.5791 240.58 70.0032 236.827L97.025 165.606Z" fill="url(#paint0_linear_2305_118677)"/>
<path d="M131.938 32.3711C201.236 32.3712 257.414 73.0068 257.414 123.133C257.414 148.74 249.07 172.475 225.488 188.977C202.909 204.776 165.834 213.894 131.938 213.894C97.2264 213.894 60.2642 205.453 37.5479 188.977C14.9123 172.559 6.46006 148.151 6.45996 123.133C6.45996 73.0068 62.6384 32.3711 131.938 32.3711Z" fill="black"/>
<path d="M257.414 123.132C257.414 148.74 249.07 172.475 225.488 188.977C202.908 204.777 165.834 213.894 131.937 213.894C97.2259 213.894 60.264 205.453 37.5477 188.977C14.9118 172.559 6.45996 148.151 6.45996 123.132C6.45996 73.0063 62.638 32.3711 131.937 32.3711C201.236 32.3711 257.414 73.0063 257.414 123.132Z" fill="black"/>
<path d="M131.938 32.9092C166.486 32.9093 197.742 43.0395 220.348 59.3906C242.954 75.7423 256.876 98.2856 256.876 123.133C256.876 148.614 248.581 172.161 225.18 188.536C202.719 204.253 165.765 213.355 131.938 213.355C97.2859 213.355 60.4522 204.925 37.8633 188.541C15.4033 172.251 6.99816 148.029 6.99805 123.133C6.99805 98.2856 20.9204 75.7423 43.5264 59.3906C66.1319 43.0394 97.3886 32.9092 131.938 32.9092Z" fill="url(#paint1_radial_2305_118677)" stroke="url(#paint2_linear_2305_118677)" stroke-width="1.07557"/>
<mask id="path-5-inside-1_2305_118677" fill="white">
<path d="M215.196 1.28331C218.805 -1.22614 223.778 0.0713605 225.599 4.07139C229.84 13.3882 236.931 29.8164 241.389 44.7042C246.462 61.6469 250.271 80.7271 252.323 92.0587C252.565 93.392 252.189 94.5767 251.469 95.4523C255.328 104.179 257.414 113.48 257.414 123.133C257.414 148.74 249.069 172.476 225.487 188.978C202.908 204.777 165.833 213.895 131.937 213.895C97.2257 213.895 60.2642 205.453 37.5479 188.978C14.912 172.56 6.45996 148.151 6.45996 123.133C6.45996 113.476 8.54695 104.172 12.4092 95.4425C11.6944 94.5679 11.3239 93.3867 11.5645 92.0587C13.6171 80.7271 17.426 61.6469 22.499 44.7042C26.9568 29.8164 34.0469 13.3882 38.2881 4.07139C40.109 0.0713042 45.0821 -1.22585 48.6904 1.28331L98.1719 35.6964C108.915 33.5304 120.239 32.3722 131.937 32.3722C143.638 32.3722 154.965 33.5312 165.711 35.6983L215.196 1.28331Z"/>
</mask>
<path d="M215.196 1.28331C218.805 -1.22614 223.778 0.0713605 225.599 4.07139C229.84 13.3882 236.931 29.8164 241.389 44.7042C246.462 61.6469 250.271 80.7271 252.323 92.0587C252.565 93.392 252.189 94.5767 251.469 95.4523C255.328 104.179 257.414 113.48 257.414 123.133C257.414 148.74 249.069 172.476 225.487 188.978C202.908 204.777 165.833 213.895 131.937 213.895C97.2257 213.895 60.2642 205.453 37.5479 188.978C14.912 172.56 6.45996 148.151 6.45996 123.133C6.45996 113.476 8.54695 104.172 12.4092 95.4425C11.6944 94.5679 11.3239 93.3867 11.5645 92.0587C13.6171 80.7271 17.426 61.6469 22.499 44.7042C26.9568 29.8164 34.0469 13.3882 38.2881 4.07139C40.109 0.0713042 45.0821 -1.22585 48.6904 1.28331L98.1719 35.6964C108.915 33.5304 120.239 32.3722 131.937 32.3722C143.638 32.3722 154.965 33.5312 165.711 35.6983L215.196 1.28331Z" fill="url(#paint3_radial_2305_118677)"/>
<path d="M215.196 1.28331L215.81 2.16633L215.81 2.16633L215.196 1.28331ZM225.599 4.07139L226.578 3.62578L226.578 3.62574L225.599 4.07139ZM241.389 44.7042L242.419 44.3957V44.3957L241.389 44.7042ZM252.323 92.0587L253.382 91.867V91.867L252.323 92.0587ZM251.469 95.4523L250.638 94.7689L250.217 95.2809L250.485 95.8873L251.469 95.4523ZM257.414 123.133H258.49V123.133H257.414ZM225.487 188.978L226.104 189.859L226.104 189.859L225.487 188.978ZM131.937 213.895V214.97V214.97V213.895ZM37.5479 188.978L36.9164 189.848L36.9164 189.848L37.5479 188.978ZM6.45996 123.133H5.38439V123.133H6.45996ZM12.4092 95.4425L13.3928 95.8777L13.6601 95.2734L13.242 94.7618L12.4092 95.4425ZM11.5645 92.0587L10.5061 91.867V91.867L11.5645 92.0587ZM22.499 44.7042L21.4686 44.3957H21.4686L22.499 44.7042ZM38.2881 4.07139L37.3092 3.62578V3.62578L38.2881 4.07139ZM48.6904 1.28331L49.3045 0.400291L49.3045 0.400252L48.6904 1.28331ZM98.1719 35.6964L97.5578 36.5794L97.9345 36.8415L98.3845 36.7508L98.1719 35.6964ZM131.937 32.3722V31.2966V31.2966V32.3722ZM165.711 35.6983L165.498 36.7527L165.948 36.8434L166.325 36.5814L165.711 35.6983ZM215.196 1.28331L215.81 2.16633C218.883 0.0296226 223.084 1.1447 224.62 4.51705L225.599 4.07139L226.578 3.62574C224.471 -1.00198 218.726 -2.4819 214.582 0.400289L215.196 1.28331ZM225.599 4.07139L224.62 4.51701C228.856 13.8233 235.922 30.1974 240.358 45.0127L241.389 44.7042L242.419 44.3957C237.94 29.4354 230.823 12.9531 226.578 3.62578L225.599 4.07139ZM241.389 44.7042L240.358 45.0127C245.414 61.8975 249.214 80.9311 251.265 92.2504L252.323 92.0587L253.382 91.867C251.327 80.523 247.509 61.3963 242.419 44.3957L241.389 44.7042ZM252.323 92.0587L251.265 92.2504C251.448 93.2606 251.166 94.1277 250.638 94.7689L251.469 95.4523L252.299 96.1356C253.213 95.0256 253.682 93.5233 253.382 91.867L252.323 92.0587ZM251.469 95.4523L250.485 95.8873C254.287 104.485 256.338 113.638 256.338 123.133H257.414H258.49C258.49 113.322 256.369 103.874 252.452 95.0172L251.469 95.4523ZM257.414 123.133H256.338C256.338 148.488 248.093 171.847 224.871 188.096L225.487 188.978L226.104 189.859C250.046 173.106 258.49 148.993 258.49 123.133H257.414ZM225.487 188.978L224.871 188.096C202.529 203.73 165.695 212.819 131.937 212.819V213.895V214.97C165.972 214.97 203.287 205.825 226.104 189.859L225.487 188.978ZM131.937 213.895V212.819C97.3448 212.819 60.6406 204.398 38.1793 188.107L37.5479 188.978L36.9164 189.848C59.8877 206.509 97.1067 214.97 131.937 214.97V213.895ZM37.5479 188.978L38.1793 188.107C15.8946 171.944 7.53553 147.907 7.53553 123.133H6.45996H5.38439C5.38439 148.396 13.9295 173.176 36.9164 189.848L37.5479 188.978ZM6.45996 123.133H7.53553C7.53553 113.634 9.58781 104.478 13.3928 95.8777L12.4092 95.4425L11.4256 95.0073C7.50609 103.866 5.38439 113.318 5.38439 123.133H6.45996ZM12.4092 95.4425L13.242 94.7618C12.7192 94.1222 12.4404 93.2575 12.6228 92.2504L11.5645 92.0587L10.5061 91.867C10.2074 93.5158 10.6696 95.0137 11.5764 96.1231L12.4092 95.4425ZM11.5645 92.0587L12.6228 92.2504C14.6732 80.9311 18.4737 61.8975 23.5294 45.0127L22.499 44.7042L21.4686 44.3957C16.3783 61.3963 12.561 80.523 10.5061 91.867L11.5645 92.0587ZM22.499 44.7042L23.5294 45.0127C27.9655 30.1974 35.0307 13.8233 39.267 4.51701L38.2881 4.07139L37.3092 3.62578C33.0632 12.9532 25.9481 29.4354 21.4686 44.3957L22.499 44.7042ZM38.2881 4.07139L39.267 4.51701C40.8021 1.14476 45.0039 0.0298231 48.0764 2.16636L48.6904 1.28331L49.3045 0.400252C45.1603 -2.48152 39.4159 -1.00215 37.3092 3.62578L38.2881 4.07139ZM48.6904 1.28331L48.0763 2.16632L97.5578 36.5794L98.1719 35.6964L98.786 34.8134L49.3045 0.400291L48.6904 1.28331ZM98.1719 35.6964L98.3845 36.7508C109.057 34.599 120.31 33.4478 131.937 33.4477V32.3722V31.2966C120.168 31.2966 108.773 32.4618 97.9593 34.642L98.1719 35.6964ZM131.937 32.3722V33.4477C143.567 33.4477 154.823 34.5998 165.498 36.7527L165.711 35.6983L165.924 34.644C155.107 32.4626 143.709 31.2966 131.937 31.2966V32.3722ZM165.711 35.6983L166.325 36.5814L215.81 2.16633L215.196 1.28331L214.582 0.400285L165.097 34.8153L165.711 35.6983Z" fill="url(#paint4_linear_2305_118677)" mask="url(#path-5-inside-1_2305_118677)"/>
<path d="M213.001 15.1776C216.531 12.0122 222.07 13.0917 224.02 17.414C227.775 25.7441 233.34 38.9246 236.912 51.2099C240.599 63.8874 243.484 78.1055 245.353 88.4589C232.592 68.2909 209.919 52.0907 181.84 43.121L213.001 15.1776Z" fill="url(#paint5_linear_2305_118677)"/>
<path d="M52.5234 13.4902C48.9934 10.3246 43.4539 11.4042 41.5049 15.7265C37.749 24.0566 32.1848 37.2362 28.6123 49.5214C24.9257 62.1991 22.0409 76.4179 20.1719 86.7714C32.9321 66.6034 55.6057 50.4032 83.6846 41.4335L52.5234 13.4902Z" fill="url(#paint6_linear_2305_118677)"/>
<ellipse cx="192.107" cy="116.412" rx="52.5518" ry="62.1302" transform="rotate(-27.7101 192.107 116.412)" fill="url(#paint7_linear_2305_118677)"/>
<ellipse cx="192.107" cy="116.412" rx="52.5518" ry="62.1302" transform="rotate(-27.7101 192.107 116.412)" fill="url(#paint8_linear_2305_118677)" fill-opacity="0.2"/>
<path d="M239.107 91.7254C238.79 91.8921 238.473 92.0589 238.155 92.2256C240.895 97.5432 242.987 103.171 244.339 108.976C250.052 131.826 242.207 159.552 220.58 170.623C220.58 170.623 220.58 170.623 220.58 170.623C193.314 185.128 159.235 166.941 145.979 140.64C131.447 115.091 135.159 76.0233 163.216 61.4073C163.216 61.4073 163.216 61.4073 163.216 61.4073C185.092 49.6315 212.79 59.4048 228.114 77.4122C232.073 81.9041 235.438 86.8966 238.155 92.2256C238.473 92.0589 238.79 91.8921 239.107 91.7254C236.223 86.3866 232.709 81.4112 228.626 76.9522C212.782 59.0853 185.067 49.6535 163.216 61.4073C163.216 61.4073 163.216 61.4073 163.216 61.4073C135.221 75.9614 130.894 114.923 145.185 141.057C158.122 167.819 192.85 187.3 221.414 172.21C221.414 172.21 221.414 172.21 221.414 172.21C243.977 160.635 251.769 131.836 245.636 108.665C244.183 102.767 241.972 97.075 239.107 91.7254ZM238.155 92.2256L239.107 91.7254L238.155 92.2256Z" fill="url(#paint9_linear_2305_118677)"/>
<ellipse cx="191.114" cy="113.259" rx="46.0665" ry="54.4629" transform="rotate(-27.7101 191.114 113.259)" fill="url(#paint10_linear_2305_118677)"/>
<ellipse cx="52.5518" cy="62.1302" rx="52.5518" ry="62.1302" transform="matrix(-0.885312 -0.464997 -0.464997 0.885312 150.83 85.8438)" fill="url(#paint11_linear_2305_118677)"/>
<ellipse cx="52.5518" cy="62.1302" rx="52.5518" ry="62.1302" transform="matrix(-0.885312 -0.464997 -0.464997 0.885312 150.83 85.8438)" fill="url(#paint12_linear_2305_118677)" fill-opacity="0.2"/>
<path d="M28.4141 91.7254C28.7315 91.8921 29.0489 92.0589 29.3663 92.2256C26.627 97.5432 24.5349 103.171 23.1828 108.976C17.4694 131.826 25.3149 159.552 46.9414 170.623C46.9414 170.623 46.9414 170.623 46.9414 170.623C74.2074 185.128 108.286 166.941 121.543 140.64C136.075 115.091 132.363 76.0233 104.305 61.4073C104.305 61.4073 104.305 61.4073 104.305 61.4073C82.4296 49.6315 54.7317 59.4048 39.4077 77.4122C35.4489 81.9041 32.084 86.8966 29.3663 92.2256C29.0489 92.0589 28.7315 91.8921 28.4141 91.7254C31.2989 86.3866 34.8122 81.4112 38.8956 76.9522C54.7394 59.0853 82.4549 49.6535 104.305 61.4073C104.305 61.4073 104.305 61.4073 104.305 61.4073C132.301 75.9614 136.627 114.923 122.336 141.057C109.399 167.819 74.6716 187.3 46.1078 172.21C46.1078 172.21 46.1078 172.21 46.1078 172.21C23.5444 160.635 15.7521 131.836 21.8858 108.665C23.3389 102.767 25.55 97.075 28.4141 91.7254ZM29.3663 92.2256L28.4141 91.7254L29.3663 92.2256Z" fill="url(#paint13_linear_2305_118677)"/>
<ellipse cx="46.0665" cy="54.4629" rx="46.0665" ry="54.4629" transform="matrix(-0.885312 -0.464997 -0.464997 0.885312 143.962 86.3047)" fill="url(#paint14_linear_2305_118677)"/>
<g filter="url(#filter2_f_2305_118677)">
<ellipse cx="209.119" cy="96.7495" rx="16.8196" ry="22.5144" transform="rotate(-39.3254 209.119 96.7495)" fill="#FE71A5"/>
</g>
<g filter="url(#filter3_f_2305_118677)">
<ellipse cx="168.843" cy="121.82" rx="7.48419" ry="10.0182" transform="rotate(-30.8867 168.843 121.82)" fill="#FE71A5"/>
</g>
<g filter="url(#filter4_f_2305_118677)">
<ellipse cx="16.8196" cy="22.5144" rx="16.8196" ry="22.5144" transform="matrix(-0.77356 -0.633724 -0.633724 0.77356 87.6182 89.9922)" fill="#FE71A5"/>
</g>
<g filter="url(#filter5_f_2305_118677)">
<ellipse cx="7.48419" cy="10.0182" rx="7.48419" ry="10.0182" transform="matrix(-0.858184 -0.513342 -0.513342 0.858184 113.72 115.568)" fill="#FE71A5"/>
</g>
<ellipse cx="168.843" cy="122.065" rx="7.48332" ry="9.73434" transform="rotate(-30.8867 168.843 122.065)" fill="white"/>
<ellipse cx="16.5343" cy="22.1326" rx="16.5343" ry="22.1326" transform="matrix(-0.77356 -0.633724 -0.633724 0.77356 87.3975 89.8125)" fill="white"/>
<ellipse cx="209.119" cy="96.4552" rx="16.5343" ry="22.1326" transform="rotate(-39.3254 209.119 96.4552)" fill="white"/>
<ellipse cx="7.48419" cy="9.73548" rx="7.48419" ry="9.73548" transform="matrix(-0.858184 -0.513342 -0.513342 0.858184 113.72 115.811)" fill="white"/>
<g filter="url(#filter6_f_2305_118677)">
<path d="M64.4409 136.361L64.7991 142.04L69.3435 145.465L63.6643 145.823L60.2394 150.367L59.8812 144.688L55.3368 141.263L61.016 140.905L64.4409 136.361Z" fill="#FFE3ED" fill-opacity="0.5"/>
</g>
<g filter="url(#filter7_f_2305_118677)">
<path d="M55.1346 131.415L55.3233 134.406L57.7166 136.21L54.7256 136.398L52.9219 138.792L52.7333 135.801L50.3399 133.997L53.3309 133.808L55.1346 131.415Z" fill="#FFE3ED" fill-opacity="0.5"/>
</g>
<g filter="url(#filter8_f_2305_118677)">
<path d="M212.049 131.415L211.86 134.406L209.467 136.21L212.458 136.398L214.262 138.792L214.45 135.801L216.844 133.997L213.853 133.808L212.049 131.415Z" fill="#FFE3ED" fill-opacity="0.5"/>
</g>
<g filter="url(#filter9_f_2305_118677)">
<path d="M204.532 136.361L204.174 142.04L199.629 145.465L205.308 145.823L208.733 150.367L209.091 144.688L213.636 141.263L207.957 140.905L204.532 136.361Z" fill="#FFE3ED" fill-opacity="0.5"/>
</g>
<path d="M140.94 213.937C143.403 213.711 145.231 214.391 146.294 215.816C147.274 217.13 147.311 218.703 147.113 219.706L147.103 219.759L147.089 219.811C146.354 222.584 144.013 224.066 141.875 224.827C139.881 225.537 137.729 225.749 136.204 225.735C136.278 225.87 136.36 226.007 136.454 226.137C136.958 226.835 137.801 227.496 139.298 227.658L139.341 227.664C140.152 227.773 141.442 227.718 142.559 227.233C143.596 226.783 144.474 225.98 144.781 224.444L148.07 225.102C147.515 227.879 145.776 229.493 143.895 230.31C142.092 231.093 140.159 231.158 138.894 230.988V230.987C136.437 230.709 134.767 229.53 133.735 228.102C133.176 227.328 132.816 226.5 132.604 225.731H131.802C131.913 225.213 131.978 224.744 132.003 224.352L132.004 224.341L132.014 224.132V224.115C132.029 223.508 131.999 222.929 131.931 222.377H132.438C132.773 219.839 133.987 217.931 135.475 216.587C137.23 215.001 139.34 214.21 140.808 213.955L140.874 213.943L140.94 213.937ZM143.604 217.822C143.456 217.622 142.969 217.137 141.323 217.272C140.373 217.449 138.912 218.003 137.725 219.076C136.86 219.857 136.128 220.919 135.836 222.377H135.913L135.943 222.378C137.167 222.422 139.078 222.262 140.75 221.667C142.426 221.07 143.492 220.183 143.829 219.005C143.896 218.601 143.829 218.123 143.604 217.822Z" fill="url(#paint15_linear_2305_118677)"/>
<path d="M117.337 215.816C118.4 214.391 120.227 213.711 122.689 213.937L122.757 213.943L122.823 213.955C124.291 214.21 126.4 215.001 128.155 216.587C129.962 218.22 131.367 220.682 131.282 224.096L131.272 224.305C131.203 225.397 130.794 227.201 129.814 228.916C128.746 230.787 126.909 232.692 123.968 233.308C122.89 233.534 121.249 233.525 119.657 232.892C117.997 232.233 116.391 230.888 115.612 228.53L117.205 228.004L118.798 227.478C119.229 228.782 120.043 229.435 120.896 229.774C121.816 230.14 122.78 230.13 123.279 230.025C125.027 229.659 126.162 228.547 126.901 227.252C127.196 226.735 127.414 226.211 127.571 225.733C126.04 225.762 123.813 225.56 121.755 224.827C119.617 224.066 117.277 222.584 116.542 219.811L116.528 219.759L116.518 219.706C116.32 218.703 116.357 217.13 117.337 215.816ZM122.308 217.272C120.662 217.137 120.175 217.622 120.026 217.822C119.802 218.123 119.735 218.601 119.802 219.006C120.139 220.183 121.204 221.07 122.88 221.667C124.552 222.262 126.464 222.422 127.688 222.378L127.718 222.377H127.794C127.502 220.919 126.771 219.857 125.906 219.076C124.72 218.004 123.258 217.449 122.308 217.272Z" fill="url(#paint16_linear_2305_118677)"/>
<path d="M117.337 215.816C118.4 214.391 120.227 213.711 122.689 213.937L122.757 213.943L122.823 213.955C124.291 214.21 126.4 215.001 128.155 216.587C129.962 218.22 131.367 220.682 131.282 224.096L131.272 224.305C131.203 225.397 130.794 227.201 129.814 228.916C128.746 230.787 126.909 232.692 123.968 233.308C122.89 233.534 121.249 233.525 119.657 232.892C117.997 232.233 116.391 230.888 115.612 228.53L117.205 228.004L118.798 227.478C119.229 228.782 120.043 229.435 120.896 229.774C121.816 230.14 122.78 230.13 123.279 230.025C125.027 229.659 126.162 228.547 126.901 227.252C127.196 226.735 127.414 226.211 127.571 225.733C126.04 225.762 123.813 225.56 121.755 224.827C119.617 224.066 117.277 222.584 116.542 219.811L116.528 219.759L116.518 219.706C116.32 218.703 116.357 217.13 117.337 215.816ZM122.308 217.272C120.662 217.137 120.175 217.622 120.026 217.822C119.802 218.123 119.735 218.601 119.802 219.006C120.139 220.183 121.204 221.07 122.88 221.667C124.552 222.262 126.464 222.422 127.688 222.378L127.718 222.377H127.794C127.502 220.919 126.771 219.857 125.906 219.076C124.72 218.004 123.258 217.449 122.308 217.272Z" fill="url(#paint17_linear_2305_118677)"/>
<path d="M117.337 215.816C118.4 214.391 120.227 213.711 122.689 213.937L122.757 213.943L122.823 213.955C124.291 214.21 126.4 215.001 128.155 216.587C129.962 218.22 131.367 220.682 131.282 224.096L131.272 224.305C131.203 225.397 130.794 227.201 129.814 228.916C128.746 230.787 126.909 232.692 123.968 233.308C122.89 233.534 121.249 233.525 119.657 232.892C117.997 232.233 116.391 230.888 115.612 228.53L117.205 228.004L118.798 227.478C119.229 228.782 120.043 229.435 120.896 229.774C121.816 230.14 122.78 230.13 123.279 230.025C125.027 229.659 126.162 228.547 126.901 227.252C127.196 226.735 127.414 226.211 127.571 225.733C126.04 225.762 123.813 225.56 121.755 224.827C119.617 224.066 117.277 222.584 116.542 219.811L116.528 219.759L116.518 219.706C116.32 218.703 116.357 217.13 117.337 215.816ZM122.308 217.272C120.662 217.137 120.175 217.622 120.026 217.822C119.802 218.123 119.735 218.601 119.802 219.006C120.139 220.183 121.204 221.07 122.88 221.667C124.552 222.262 126.464 222.422 127.688 222.378L127.718 222.377H127.794C127.502 220.919 126.771 219.857 125.906 219.076C124.72 218.004 123.258 217.449 122.308 217.272Z" fill="url(#paint18_linear_2305_118677)"/>
<path d="M117.337 215.816C118.4 214.391 120.227 213.711 122.689 213.937L122.757 213.943L122.823 213.955C124.291 214.21 126.4 215.001 128.155 216.587C129.962 218.22 131.367 220.682 131.282 224.096L131.272 224.305C131.203 225.397 130.794 227.201 129.814 228.916C128.746 230.787 126.909 232.692 123.968 233.308C122.89 233.534 121.249 233.525 119.657 232.892C117.997 232.233 116.391 230.888 115.612 228.53L117.205 228.004L118.798 227.478C119.229 228.782 120.043 229.435 120.896 229.774C121.816 230.14 122.78 230.13 123.279 230.025C125.027 229.659 126.162 228.547 126.901 227.252C127.196 226.735 127.414 226.211 127.571 225.733C126.04 225.762 123.813 225.56 121.755 224.827C119.617 224.066 117.277 222.584 116.542 219.811L116.528 219.759L116.518 219.706C116.32 218.703 116.357 217.13 117.337 215.816ZM122.308 217.272C120.662 217.137 120.175 217.622 120.026 217.822C119.802 218.123 119.735 218.601 119.802 219.006C120.139 220.183 121.204 221.07 122.88 221.667C124.552 222.262 126.464 222.422 127.688 222.378L127.718 222.377H127.794C127.502 220.919 126.771 219.857 125.906 219.076C124.72 218.004 123.258 217.449 122.308 217.272Z" fill="url(#paint19_linear_2305_118677)"/>
<ellipse cx="84.2994" cy="217.048" rx="21.9586" ry="13.681" fill="#D9D9D9"/>
<ellipse cx="84.2994" cy="217.048" rx="21.9586" ry="13.681" fill="url(#paint20_linear_2305_118677)"/>
<ellipse cx="179.382" cy="217.048" rx="21.9586" ry="13.681" fill="#D9D9D9"/>
<ellipse cx="179.382" cy="217.048" rx="21.9586" ry="13.681" fill="url(#paint21_linear_2305_118677)"/>
<path d="M123.511 172.122L131.938 148.391L140.364 172.122L131.938 195.854L123.511 172.122Z" fill="#FE71A5"/>
<defs>
<filter id="filter2_f_2305_118677" x="186.94" y="73.4599" width="44.3565" height="46.5801" filterUnits="userSpaceOnUse" color-interpolation-filters="sRGB">
<feFlood flood-opacity="0" result="BackgroundImageFix"/>
<feBlend mode="normal" in="SourceGraphic" in2="BackgroundImageFix" result="shape"/>
<feGaussianBlur stdDeviation="1.4341" result="effect1_foregroundBlur_2305_118677"/>
</filter>
<filter id="filter3_f_2305_118677" x="157.746" y="109.532" width="22.1934" height="24.5743" filterUnits="userSpaceOnUse" color-interpolation-filters="sRGB">
<feFlood flood-opacity="0" result="BackgroundImageFix"/>
<feBlend mode="normal" in="SourceGraphic" in2="BackgroundImageFix" result="shape"/>
<feGaussianBlur stdDeviation="1.4341" result="effect1_foregroundBlur_2305_118677"/>
</filter>
<filter id="filter4_f_2305_118677" x="38.1611" y="73.4599" width="44.3565" height="46.5801" filterUnits="userSpaceOnUse" color-interpolation-filters="sRGB">
<feFlood flood-opacity="0" result="BackgroundImageFix"/>
<feBlend mode="normal" in="SourceGraphic" in2="BackgroundImageFix" result="shape"/>
<feGaussianBlur stdDeviation="1.4341" result="effect1_foregroundBlur_2305_118677"/>
</filter>
<filter id="filter5_f_2305_118677" x="91.0576" y="108.036" width="22.1934" height="24.5743" filterUnits="userSpaceOnUse" color-interpolation-filters="sRGB">
<feFlood flood-opacity="0" result="BackgroundImageFix"/>
<feBlend mode="normal" in="SourceGraphic" in2="BackgroundImageFix" result="shape"/>
<feGaussianBlur stdDeviation="1.4341" result="effect1_foregroundBlur_2305_118677"/>
</filter>
<filter id="filter6_f_2305_118677" x="53.9028" y="134.927" width="16.875" height="16.8741" filterUnits="userSpaceOnUse" color-interpolation-filters="sRGB">
<feFlood flood-opacity="0" result="BackgroundImageFix"/>
<feBlend mode="normal" in="SourceGraphic" in2="BackgroundImageFix" result="shape"/>
<feGaussianBlur stdDeviation="0.717048" result="effect1_foregroundBlur_2305_118677"/>
</filter>
<filter id="filter7_f_2305_118677" x="48.9057" y="129.98" width="10.2451" height="10.2451" filterUnits="userSpaceOnUse" color-interpolation-filters="sRGB">
<feFlood flood-opacity="0" result="BackgroundImageFix"/>
<feBlend mode="normal" in="SourceGraphic" in2="BackgroundImageFix" result="shape"/>
<feGaussianBlur stdDeviation="0.717048" result="effect1_foregroundBlur_2305_118677"/>
</filter>
<filter id="filter8_f_2305_118677" x="208.033" y="129.98" width="10.2451" height="10.2451" filterUnits="userSpaceOnUse" color-interpolation-filters="sRGB">
<feFlood flood-opacity="0" result="BackgroundImageFix"/>
<feBlend mode="normal" in="SourceGraphic" in2="BackgroundImageFix" result="shape"/>
<feGaussianBlur stdDeviation="0.717048" result="effect1_foregroundBlur_2305_118677"/>
</filter>
<filter id="filter9_f_2305_118677" x="198.195" y="134.927" width="16.875" height="16.8741" filterUnits="userSpaceOnUse" color-interpolation-filters="sRGB">
<feFlood flood-opacity="0" result="BackgroundImageFix"/>
<feBlend mode="normal" in="SourceGraphic" in2="BackgroundImageFix" result="shape"/>
<feGaussianBlur stdDeviation="0.717048" result="effect1_foregroundBlur_2305_118677"/>
</filter>
<linearGradient id="paint0_linear_2305_118677" x1="131.937" y1="200.593" x2="135.203" y2="331.984" gradientUnits="userSpaceOnUse">
<stop/>
<stop offset="1" stop-color="#FBFCEE"/>
</linearGradient>
<radialGradient id="paint1_radial_2305_118677" cx="0" cy="0" r="1" gradientUnits="userSpaceOnUse" gradientTransform="translate(131.937 32.3711) rotate(90) scale(199.266 194.388)">
<stop/>
<stop offset="0.817936"/>
<stop offset="1" stop-color="#FBFCEE"/>
</radialGradient>
<linearGradient id="paint2_linear_2305_118677" x1="131.937" y1="32.3711" x2="131.937" y2="213.894" gradientUnits="userSpaceOnUse">
<stop/>
<stop offset="1" stop-color="#FBFCEE"/>
</linearGradient>
<radialGradient id="paint3_radial_2305_118677" cx="0" cy="0" r="1" gradientUnits="userSpaceOnUse" gradientTransform="translate(131.937 32.3716) rotate(90) scale(199.267 194.388)">
<stop/>
<stop offset="0.817936"/>
<stop offset="1" stop-color="#FBFCEE"/>
</radialGradient>
<linearGradient id="paint4_linear_2305_118677" x1="131.937" y1="0" x2="131.937" y2="213.895" gradientUnits="userSpaceOnUse">
<stop/>
<stop offset="1" stop-color="#FBFCEE"/>
</linearGradient>
<linearGradient id="paint5_linear_2305_118677" x1="259.428" y1="101.048" x2="167.238" y2="15.3922" gradientUnits="userSpaceOnUse">
<stop stop-color="#FBFCEE"/>
<stop offset="0.5" stop-color="#E56695"/>
<stop offset="1" stop-color="#CB5A84"/>
</linearGradient>
<linearGradient id="paint6_linear_2305_118677" x1="6.09623" y1="99.3603" x2="98.2869" y2="13.7048" gradientUnits="userSpaceOnUse">
<stop stop-color="#FBFCEE"/>
<stop offset="0.5" stop-color="#E56695"/>
<stop offset="1" stop-color="#CB5A84"/>
</linearGradient>
<linearGradient id="paint7_linear_2305_118677" x1="192.107" y1="54.2817" x2="192.107" y2="178.542" gradientUnits="userSpaceOnUse">
<stop stop-color="#FFF5FD"/>
<stop offset="1" stop-color="#EAE9EA"/>
</linearGradient>
<linearGradient id="paint8_linear_2305_118677" x1="192.107" y1="54.2817" x2="192.107" y2="178.542" gradientUnits="userSpaceOnUse">
<stop stop-color="white"/>
<stop offset="1" stop-color="#EAE9EA"/>
</linearGradient>
<linearGradient id="paint9_linear_2305_118677" x1="163.216" y1="61.4073" x2="220.997" y2="171.417" gradientUnits="userSpaceOnUse">
<stop/>
<stop offset="1" stop-color="#FBFCEE"/>
</linearGradient>
<linearGradient id="paint10_linear_2305_118677" x1="188.979" y1="82.6519" x2="191.114" y2="167.722" gradientUnits="userSpaceOnUse">
<stop stop-color="#1E1D1E"/>
<stop offset="1" stop-color="#662D42"/>
</linearGradient>
<linearGradient id="paint11_linear_2305_118677" x1="52.5518" y1="0" x2="52.5518" y2="124.26" gradientUnits="userSpaceOnUse">
<stop stop-color="#FFF5FD"/>
<stop offset="1" stop-color="#EAE9EA"/>
</linearGradient>
<linearGradient id="paint12_linear_2305_118677" x1="52.5518" y1="0" x2="52.5518" y2="124.26" gradientUnits="userSpaceOnUse">
<stop stop-color="white"/>
<stop offset="1" stop-color="#EAE9EA"/>
</linearGradient>
<linearGradient id="paint13_linear_2305_118677" x1="104.305" y1="61.4073" x2="46.5246" y2="171.417" gradientUnits="userSpaceOnUse">
<stop/>
<stop offset="1" stop-color="#FBFCEE"/>
</linearGradient>
<linearGradient id="paint14_linear_2305_118677" x1="43.9313" y1="23.856" x2="46.0665" y2="108.926" gradientUnits="userSpaceOnUse">
<stop stop-color="#1E1D1E"/>
<stop offset="1" stop-color="#662D42"/>
</linearGradient>
<linearGradient id="paint15_linear_2305_118677" x1="139.936" y1="213.895" x2="139.936" y2="244.997" gradientUnits="userSpaceOnUse">
<stop stop-color="#FE71A5"/>
<stop offset="1" stop-color="#FBFCEE"/>
</linearGradient>
<linearGradient id="paint16_linear_2305_118677" x1="123.449" y1="213.895" x2="123.449" y2="233.443" gradientUnits="userSpaceOnUse">
<stop stop-color="#FE8DB7"/>
<stop offset="1" stop-color="#FE8DB7"/>
</linearGradient>
<linearGradient id="paint17_linear_2305_118677" x1="123.449" y1="213.895" x2="123.449" y2="233.443" gradientUnits="userSpaceOnUse">
<stop stop-color="#FE71A5"/>
<stop offset="1" stop-color="#FBFCEE"/>
</linearGradient>
<linearGradient id="paint18_linear_2305_118677" x1="123.449" y1="213.895" x2="123.449" y2="243.384" gradientUnits="userSpaceOnUse">
<stop stop-color="#FE71A5"/>
<stop offset="1" stop-color="#FBFCEE"/>
</linearGradient>
<linearGradient id="paint19_linear_2305_118677" x1="123.449" y1="213.895" x2="123.449" y2="249.304" gradientUnits="userSpaceOnUse">
<stop stop-color="#FE71A5"/>
<stop offset="1" stop-color="#FBFCEE"/>
</linearGradient>
<linearGradient id="paint20_linear_2305_118677" x1="84.2994" y1="214.92" x2="84.2994" y2="240.188" gradientUnits="userSpaceOnUse">
<stop/>
<stop offset="1" stop-color="#FBFCEE"/>
</linearGradient>
<linearGradient id="paint21_linear_2305_118677" x1="179.382" y1="214.92" x2="179.382" y2="240.188" gradientUnits="userSpaceOnUse">
<stop/>
<stop offset="1" stop-color="#FBFCEE"/>
</linearGradient>
</defs>
</svg>
