<svg width="60" height="45" viewBox="0 0 60 45" fill="none" xmlns="http://www.w3.org/2000/svg">
<g clip-path="url(#clip0_0_10)">
<rect width="60" height="45" rx="4" fill="white"/>
<line x1="59.006" y1="43.0347" x2="32.756" y2="20.5347" stroke="#EAE9EA" stroke-width="0.75"/>
<line y1="-0.375" x2="34.5733" y2="-0.375" transform="matrix(0.759257 -0.650791 -0.650791 -0.759257 1.5 42.75)" stroke="#EAE9EA" stroke-width="0.75"/>
<g filter="url(#filter0_d_0_10)">
<path d="M27.8318 31.4825C29.0132 32.7181 30.9868 32.7181 32.1682 31.4825L59.5732 2.82335C61.3981 0.914959 60.0454 -2.25 57.405 -2.25H2.59504C-0.0454445 -2.25 -1.39807 0.914951 0.426806 2.82335L27.8318 31.4825Z" fill="white"/>
<path d="M28.1025 31.2236C29.1363 32.3047 30.8637 32.3047 31.8975 31.2236L59.3018 2.56445C60.8985 0.894684 59.7155 -1.87475 57.4053 -1.875H2.59473C0.284511 -1.87475 -0.898454 0.894682 0.698242 2.56445L28.1025 31.2236Z" stroke="#C1BCC0" stroke-width="0.75"/>
</g>
<path d="M36.8437 21.1031C36.4134 20.6681 35.9008 20.3231 35.3359 20.0881C34.771 19.8531 34.1649 19.7329 33.553 19.7344C32.9412 19.7329 32.3351 19.8531 31.7702 20.0881C31.2052 20.3231 30.6927 20.6681 30.2624 21.1031L29.9999 21.375L29.7374 21.1125C28.8671 20.2423 27.6869 19.7535 26.4562 19.7535C25.2255 19.7535 24.0452 20.2423 23.1749 21.1125C22.316 21.9887 21.835 23.1668 21.835 24.3938C21.835 25.6207 22.316 26.7988 23.1749 27.675L29.5218 34.0406C29.6536 34.1723 29.8323 34.2463 30.0187 34.2463C30.205 34.2463 30.3837 34.1723 30.5155 34.0406L36.8624 27.675C37.7216 26.7959 38.2011 25.6145 38.1976 24.3852C38.1941 23.156 37.7079 21.9773 36.8437 21.1031Z" fill="#FE71A5"/>
</g>
<rect x="0.375" y="0.375" width="59.25" height="44.25" rx="3.625" stroke="#C1BCC0" stroke-width="0.75"/>
<defs>
<filter id="filter0_d_0_10" x="-4.16089" y="-3" width="68.3218" height="42.1592" filterUnits="userSpaceOnUse" color-interpolation-filters="sRGB">
<feFlood flood-opacity="0" result="BackgroundImageFix"/>
<feColorMatrix in="SourceAlpha" type="matrix" values="0 0 0 0 0 0 0 0 0 0 0 0 0 0 0 0 0 0 127 0" result="hardAlpha"/>
<feOffset dy="3"/>
<feGaussianBlur stdDeviation="1.875"/>
<feComposite in2="hardAlpha" operator="out"/>
<feColorMatrix type="matrix" values="0 0 0 0 0 0 0 0 0 0 0 0 0 0 0 0 0 0 0.05 0"/>
<feBlend mode="normal" in2="BackgroundImageFix" result="effect1_dropShadow_0_10"/>
<feBlend mode="normal" in="SourceGraphic" in2="effect1_dropShadow_0_10" result="shape"/>
</filter>
<clipPath id="clip0_0_10">
<rect width="60" height="45" rx="4" fill="white"/>
</clipPath>
</defs>
</svg>
