<svg width="189" height="184" viewBox="0 0 189 184" fill="none" xmlns="http://www.w3.org/2000/svg">
<path d="M94.6225 121.678C123.482 121.678 146.878 132.266 146.879 145.327C146.879 145.727 146.856 146.126 146.812 146.521C147.306 148.643 146.957 150.988 145.493 153.029L125.7 180.614C121.12 186.995 111.05 183.756 111.049 175.901V167.782C105.884 168.556 100.361 168.976 94.6225 168.976C88.645 168.976 82.9022 168.52 77.5528 167.684V175.901C77.5527 183.756 67.4809 186.996 62.9016 180.614L43.1088 153.029C41.2436 150.429 41.1871 147.334 42.3782 144.838C42.9528 132.003 66.1231 121.678 94.6225 121.678Z" fill="url(#paint0_linear_1353_26395)"/>
<path d="M94.3012 24.3292C146.382 24.3292 188.602 54.8686 188.602 92.5404C188.602 111.785 182.331 129.624 164.608 142.025C147.639 153.9 119.776 160.751 94.3012 160.751C68.2145 160.751 40.4361 154.408 23.3638 142.025C6.35214 129.687 6.7196e-05 111.343 0 92.5404C0 54.8686 42.2201 24.3293 94.3012 24.3292Z" fill="black"/>
<path d="M188.603 92.5401C188.603 111.785 182.331 129.624 164.609 142.025C147.639 153.899 119.776 160.751 94.3014 160.751C68.2145 160.751 40.436 154.407 23.3637 142.025C6.35195 129.686 0 111.343 0 92.5401C0 54.8683 42.2202 24.3292 94.3014 24.3292C146.383 24.3292 188.603 54.8683 188.603 92.5401Z" fill="black"/>
<path d="M94.3012 24.7336C120.266 24.7336 143.756 32.3463 160.745 44.6348C177.735 56.9239 188.199 73.8667 188.199 92.5404C188.199 111.69 181.965 129.388 164.377 141.694C147.497 153.506 119.724 160.347 94.3012 160.347C68.2592 160.347 40.5777 154.011 23.6012 141.698C6.7214 129.455 0.404441 111.251 0.404374 92.5404C0.404374 73.8667 10.8673 56.9239 27.8569 44.6348C44.8458 32.3462 68.3363 24.7336 94.3012 24.7336Z" fill="url(#paint1_radial_1353_26395)" stroke="url(#paint2_linear_1353_26395)" stroke-width="0.808185"/>
<mask id="path-5-inside-1_1353_26395" fill="white">
<path d="M156.875 0.964486C159.586 -0.921286 163.324 0.0534631 164.692 3.05961C167.88 10.0616 173.209 22.4078 176.559 33.5967C180.372 46.33 183.234 60.6702 184.776 69.1865C184.958 70.1881 184.676 71.0778 184.135 71.7358C187.036 78.2947 188.602 85.2853 188.602 92.5405C188.602 111.785 182.331 129.623 164.608 142.025C147.639 153.899 119.776 160.751 94.3012 160.751C68.2144 160.751 40.4361 154.407 23.3638 142.025C6.35227 129.686 8.05153e-05 111.343 0 92.5405C0 85.2828 1.56784 78.2898 4.47058 71.7289C3.93361 71.0718 3.65504 70.1842 3.83569 69.1865C5.37836 60.6702 8.24138 46.33 12.0541 33.5967C15.4043 22.4079 20.7332 10.0616 23.9206 3.05961C25.2892 0.0535314 29.0267 -0.921441 31.7385 0.964486L68.9262 26.8278C76.9998 25.2001 85.5099 24.3293 94.3012 24.3293C103.095 24.3293 111.607 25.2002 119.683 26.8288L156.875 0.964486Z"/>
</mask>
<path d="M156.875 0.964486C159.586 -0.921286 163.324 0.0534631 164.692 3.05961C167.88 10.0616 173.209 22.4078 176.559 33.5967C180.372 46.33 183.234 60.6702 184.776 69.1865C184.958 70.1881 184.676 71.0778 184.135 71.7358C187.036 78.2947 188.602 85.2853 188.602 92.5405C188.602 111.785 182.331 129.623 164.608 142.025C147.639 153.899 119.776 160.751 94.3012 160.751C68.2144 160.751 40.4361 154.407 23.3638 142.025C6.35227 129.686 8.05153e-05 111.343 0 92.5405C0 85.2828 1.56784 78.2898 4.47058 71.7289C3.93361 71.0718 3.65504 70.1842 3.83569 69.1865C5.37836 60.6702 8.24138 46.33 12.0541 33.5967C15.4043 22.4079 20.7332 10.0616 23.9206 3.05961C25.2892 0.0535314 29.0267 -0.921441 31.7385 0.964486L68.9262 26.8278C76.9998 25.2001 85.5099 24.3293 94.3012 24.3293C103.095 24.3293 111.607 25.2002 119.683 26.8288L156.875 0.964486Z" fill="url(#paint3_radial_1353_26395)"/>
<path d="M156.875 0.964486L156.413 0.300839L156.413 0.300849L156.875 0.964486ZM164.692 3.05961L165.428 2.72471L165.428 2.72469L164.692 3.05961ZM176.559 33.5967L177.333 33.3648V33.3648L176.559 33.5967ZM184.776 69.1865L185.572 69.0424L185.572 69.0424L184.776 69.1865ZM184.135 71.7358L183.51 71.2223L183.194 71.6071L183.395 72.0627L184.135 71.7358ZM188.602 92.5405H189.411V92.5405H188.602ZM164.608 142.025L165.072 142.687V142.687L164.608 142.025ZM94.3012 160.751V161.559V161.559V160.751ZM23.3638 142.025L22.8892 142.679H22.8892L23.3638 142.025ZM0 92.5405H-0.808339V92.5405L0 92.5405ZM4.47058 71.7289L5.2098 72.056L5.41068 71.6019L5.09653 71.2175L4.47058 71.7289ZM3.83569 69.1865L3.0403 69.0424L3.04028 69.0424L3.83569 69.1865ZM12.0541 33.5967L11.2797 33.3648H11.2797L12.0541 33.5967ZM23.9206 3.05961L23.1849 2.72466L23.1849 2.72471L23.9206 3.05961ZM31.7385 0.964486L32.2 0.300863L32.2 0.30086L31.7385 0.964486ZM68.9262 26.8278L68.4647 27.4914L68.7478 27.6884L69.086 27.6202L68.9262 26.8278ZM94.3012 24.3293V23.5209V23.5209V24.3293ZM119.683 26.8288L119.523 27.6212L119.861 27.6894L120.144 27.4924L119.683 26.8288ZM156.875 0.964486L157.336 1.62813C159.645 0.0223907 162.803 0.860235 163.957 3.39453L164.692 3.05961L165.428 2.72469C163.845 -0.753309 159.528 -1.86496 156.413 0.300839L156.875 0.964486ZM164.692 3.05961L163.957 3.39451C167.141 10.3886 172.451 22.6942 175.785 33.8285L176.559 33.5967L177.333 33.3648C173.967 22.1215 168.619 9.73464 165.428 2.72471L164.692 3.05961ZM176.559 33.5967L175.785 33.8285C179.584 46.5183 182.44 60.8235 183.981 69.3305L184.776 69.1865L185.572 69.0424C184.027 60.5169 181.159 46.1417 177.333 33.3648L176.559 33.5967ZM184.776 69.1865L183.981 69.3305C184.118 70.0894 183.907 70.7405 183.51 71.2223L184.135 71.7358L184.759 72.2492C185.445 71.4151 185.797 70.2868 185.572 69.0424L184.776 69.1865ZM184.135 71.7358L183.395 72.0627C186.253 78.5244 187.794 85.4039 187.794 92.5405H188.602H189.411C189.411 85.1666 187.818 78.065 184.874 71.4088L184.135 71.7358ZM188.602 92.5405H187.794C187.794 111.595 181.597 129.15 164.145 141.362L164.608 142.025L165.072 142.687C183.065 130.096 189.411 111.975 189.411 92.5405H188.602ZM164.608 142.025L164.145 141.362C147.354 153.111 119.672 159.942 94.3012 159.942V160.751V161.559C119.881 161.559 147.924 154.686 165.072 142.687L164.608 142.025ZM94.3012 160.751V159.942C68.3038 159.942 40.719 153.614 23.8384 141.37L23.3638 142.025L22.8892 142.679C40.1532 155.2 68.1249 161.559 94.3012 161.559V160.751ZM23.3638 142.025L23.8384 141.37C7.09069 129.223 0.808418 111.159 0.808339 92.5405H0L-0.808339 92.5405C-0.808257 111.527 5.61386 130.149 22.8892 142.679L23.3638 142.025ZM0 92.5405H0.808339C0.808339 85.4015 2.35012 78.5195 5.2098 72.056L4.47058 71.7289L3.73136 71.4019C0.785567 78.0601 -0.808339 85.1641 -0.808339 92.5405H0ZM4.47058 71.7289L5.09653 71.2175C4.70371 70.7367 4.49412 70.087 4.6311 69.3305L3.83569 69.1865L3.04028 69.0424C2.81597 70.2814 3.1635 71.4068 3.84462 72.2404L4.47058 71.7289ZM3.83569 69.1865L4.63109 69.3305C6.17207 60.8236 9.02878 46.5184 12.8284 33.8285L12.0541 33.5967L11.2797 33.3648C7.45398 46.1417 4.58464 60.5169 3.0403 69.0424L3.83569 69.1865ZM12.0541 33.5967L12.8284 33.8285C16.1623 22.6942 21.4725 10.3886 24.6563 3.39451L23.9206 3.05961L23.1849 2.72471C19.9939 9.73461 14.6462 22.1215 11.2797 33.3648L12.0541 33.5967ZM23.9206 3.05961L24.6562 3.39456C25.8101 0.860233 28.968 0.0222938 31.2769 1.62811L31.7385 0.964486L32.2 0.30086C29.0855 -1.86517 24.7683 -0.75317 23.1849 2.72466L23.9206 3.05961ZM31.7385 0.964486L31.2769 1.62811L68.4647 27.4914L68.9262 26.8278L69.3877 26.1642L32.2 0.300863L31.7385 0.964486ZM68.9262 26.8278L69.086 27.6202C77.1066 26.0032 85.5632 25.1376 94.3012 25.1376V24.3293V23.5209C85.4567 23.521 76.8931 24.397 68.7665 26.0354L68.9262 26.8278ZM94.3012 24.3293V25.1376C103.042 25.1376 111.501 26.0033 119.523 27.6212L119.683 26.8288L119.843 26.0364C111.714 24.3971 103.148 23.5209 94.3012 23.5209V24.3293ZM119.683 26.8288L120.144 27.4924L157.336 1.62812L156.875 0.964486L156.413 0.300849L119.221 26.1651L119.683 26.8288Z" fill="url(#paint4_linear_1353_26395)" mask="url(#path-5-inside-1_1353_26395)"/>
<path d="M155.224 11.4059C157.877 9.02681 162.041 9.83833 163.506 13.0869C166.328 19.3474 170.509 29.2526 173.194 38.4853C175.965 48.0139 178.133 58.7006 179.538 66.4818C169.948 51.3241 152.908 39.1483 131.805 32.4069L155.224 11.4059Z" fill="url(#paint5_linear_1353_26395)"/>
<path d="M34.6189 10.139C31.9659 7.75997 27.8027 8.57149 26.338 11.82C23.5153 18.0805 19.3335 27.9855 16.6487 37.2184C13.8781 46.7462 11.7103 57.4319 10.3057 65.213C19.8956 50.0562 36.9353 37.8811 58.0374 31.1401L34.6189 10.139Z" fill="url(#paint6_linear_1353_26395)"/>
<ellipse cx="139.521" cy="87.4889" rx="39.4949" ry="46.6935" transform="rotate(-27.7101 139.521 87.4889)" fill="url(#paint7_linear_1353_26395)"/>
<ellipse cx="139.521" cy="87.4889" rx="39.4949" ry="46.6935" transform="rotate(-27.7101 139.521 87.4889)" fill="url(#paint8_linear_1353_26395)" fill-opacity="0.2"/>
<path d="M174.844 68.9359C174.605 69.0612 174.367 69.1865 174.128 69.3118C176.187 73.3082 177.759 77.538 178.776 81.9001C183.069 99.0734 177.173 119.91 160.92 128.231C160.92 128.231 160.92 128.231 160.92 128.231C140.428 139.132 114.817 125.464 104.854 105.697C93.9323 86.4959 96.722 57.1351 117.808 46.1506C117.808 46.1506 117.808 46.1506 117.808 46.1506C134.249 37.3005 155.065 44.6456 166.582 58.1789C169.557 61.5548 172.086 65.3068 174.128 69.3118C174.367 69.1865 174.605 69.0612 174.844 68.9359C172.676 64.9236 170.036 61.1843 166.967 57.8332C155.059 44.4055 134.23 37.317 117.808 46.1506C117.808 46.1506 117.808 46.1506 117.808 46.1506C96.7688 57.0886 93.5173 86.3697 104.257 106.011C113.98 126.124 140.079 140.764 161.546 129.424C161.546 129.424 161.546 129.424 161.546 129.424C178.504 120.724 184.36 99.0808 179.75 81.6665C178.658 77.2343 176.997 72.9564 174.844 68.9359ZM174.128 69.3118L174.844 68.9359L174.128 69.3118Z" fill="url(#paint9_linear_1353_26395)"/>
<ellipse cx="138.775" cy="85.1196" rx="34.6209" ry="40.9312" transform="rotate(-27.7101 138.775 85.1196)" fill="url(#paint10_linear_1353_26395)"/>
<ellipse cx="39.4874" cy="46.6846" rx="39.4874" ry="46.6846" transform="matrix(-0.885481 -0.465086 -0.465086 0.885481 108.501 64.5156)" fill="url(#paint11_linear_1353_26395)"/>
<ellipse cx="39.4874" cy="46.6846" rx="39.4874" ry="46.6846" transform="matrix(-0.885481 -0.465086 -0.465086 0.885481 108.501 64.5156)" fill="url(#paint12_linear_1353_26395)" fill-opacity="0.2"/>
<path d="M16.4998 68.9359C16.7384 69.0612 16.9769 69.1865 17.2155 69.3118C15.1567 73.3082 13.5845 77.538 12.5683 81.9001C8.27444 99.0734 14.1707 119.91 30.4238 128.231C30.4238 128.231 30.4238 128.231 30.4239 128.231C50.9154 139.132 76.5269 125.464 86.4901 105.697C97.4115 86.4959 94.6218 57.1351 73.5353 46.1506C73.5353 46.1506 73.5353 46.1506 73.5353 46.1506C57.0948 37.3005 36.2786 44.6456 24.762 58.1789C21.7868 61.5548 19.2579 65.3068 17.2155 69.3118C16.9769 69.1865 16.7384 69.0612 16.4998 68.9359C18.6679 64.9236 21.3083 61.1843 24.3772 57.8332C36.2844 44.4055 57.1138 37.317 73.5353 46.1506C73.5353 46.1506 73.5353 46.1506 73.5353 46.1506C94.575 57.0886 97.8265 86.3697 87.0865 106.011C77.3635 126.124 51.2643 140.764 29.7974 129.424C29.7974 129.424 29.7974 129.424 29.7974 129.424C12.8401 120.724 6.98377 99.0808 11.5935 81.6665C12.6856 77.2343 14.3473 72.9564 16.4998 68.9359ZM17.2155 69.3118L16.4998 68.9359L17.2155 69.3118Z" fill="url(#paint13_linear_1353_26395)"/>
<ellipse cx="34.6143" cy="40.9234" rx="34.6143" ry="40.9234" transform="matrix(-0.885481 -0.465086 -0.465086 0.885481 103.339 64.8623)" fill="url(#paint14_linear_1353_26395)"/>
<g filter="url(#filter2_f_1353_26395)">
<ellipse cx="152.307" cy="72.7118" rx="12.6406" ry="16.9205" transform="rotate(-39.3254 152.307 72.7118)" fill="#FFB4C9"/>
</g>
<g filter="url(#filter3_f_1353_26395)">
<ellipse cx="122.038" cy="91.5541" rx="5.62469" ry="7.52913" transform="rotate(-30.8867 122.038 91.5541)" fill="#FFB4C9"/>
</g>
<g filter="url(#filter4_f_1353_26395)">
<ellipse cx="12.6382" cy="16.9173" rx="12.6382" ry="16.9173" transform="matrix(-0.773707 -0.633844 -0.633844 0.773707 60.994 67.6334)" fill="#FFB4C9"/>
</g>
<g filter="url(#filter5_f_1353_26395)">
<ellipse cx="5.62362" cy="7.5277" rx="5.62362" ry="7.5277" transform="matrix(-0.858348 -0.51344 -0.51344 0.858348 80.6106 86.8547)" fill="#FFB4C9"/>
</g>
<ellipse cx="122.038" cy="91.7375" rx="5.62403" ry="7.31577" transform="rotate(-30.8867 122.038 91.7375)" fill="white"/>
<ellipse cx="12.4239" cy="16.6304" rx="12.4239" ry="16.6304" transform="matrix(-0.773707 -0.633844 -0.633844 0.773707 60.828 67.4976)" fill="white"/>
<ellipse cx="152.307" cy="72.4899" rx="12.4262" ry="16.6336" transform="rotate(-39.3254 152.307 72.4899)" fill="white"/>
<ellipse cx="5.62362" cy="7.31523" rx="5.62362" ry="7.31523" transform="matrix(-0.858348 -0.51344 -0.51344 0.858348 80.6106 87.0365)" fill="white"/>
<path d="M101.138 162.561C102.989 162.391 104.363 162.902 105.162 163.973C105.898 164.961 105.927 166.143 105.778 166.897L105.77 166.936L105.759 166.976C105.207 169.059 103.448 170.173 101.842 170.745C100.343 171.278 98.7247 171.438 97.5791 171.428C97.6349 171.529 97.6957 171.631 97.7667 171.729C98.1218 172.221 98.701 172.689 99.6987 172.846L99.9048 172.872L99.9204 172.874L99.937 172.876C100.546 172.958 101.515 172.917 102.354 172.553C103.134 172.214 103.794 171.611 104.025 170.457L105.261 170.704L106.497 170.951C106.079 173.038 104.774 174.252 103.36 174.866C102.02 175.448 100.584 175.5 99.6323 175.378V175.379C99.6252 175.378 99.6178 175.376 99.6108 175.376C99.6074 175.375 99.6033 175.375 99.6 175.375V175.374C97.7541 175.165 96.4983 174.279 95.7233 173.206C95.3033 172.625 95.0365 172.002 94.8765 171.425H94.2699C94.371 170.955 94.4227 170.538 94.4311 170.211V170.196C94.4417 169.745 94.4163 169.315 94.3656 168.904H94.7495C95.0012 166.997 95.913 165.563 97.0312 164.552C98.3499 163.361 99.9357 162.765 101.039 162.573L101.089 162.566L101.138 162.561ZM103.141 165.48C103.029 165.33 102.663 164.965 101.428 165.066C100.714 165.199 99.6147 165.616 98.7219 166.423C98.0723 167.01 97.5213 167.808 97.3017 168.904H97.3603L97.3828 168.905C98.3023 168.938 99.7392 168.817 100.996 168.369C102.254 167.921 103.055 167.255 103.309 166.371C103.359 166.067 103.31 165.707 103.141 165.48Z" fill="url(#paint15_linear_1353_26395)"/>
<path d="M83.4004 163.974C84.1992 162.902 85.5725 162.391 87.4236 162.561L87.4734 162.566L87.5233 162.574C88.6263 162.766 90.2119 163.361 91.5309 164.553C92.8887 165.78 93.9449 167.63 93.8809 170.196V170.197C93.8607 170.993 93.5625 172.444 92.7772 173.819C91.9739 175.225 90.5944 176.656 88.3838 177.12C87.5738 177.29 86.3405 177.282 85.1439 176.806C83.8961 176.311 82.6895 175.301 82.1043 173.528L83.3008 173.133L84.4983 172.738C84.822 173.718 85.4343 174.209 86.0747 174.463C86.7664 174.738 87.491 174.731 87.8661 174.653C89.1796 174.377 90.0323 173.541 90.5883 172.567C90.8099 172.179 90.9738 171.786 91.0923 171.426C89.9418 171.448 88.2686 171.296 86.7213 170.746C85.1144 170.174 83.3551 169.06 82.8026 166.976L82.7929 166.936L82.785 166.897C82.6364 166.143 82.6639 164.962 83.4004 163.974ZM87.1335 165.067C85.8985 164.966 85.5332 165.331 85.4213 165.481C85.2524 165.708 85.2026 166.068 85.2533 166.372C85.507 167.256 86.3074 167.922 87.5662 168.37C88.8229 168.818 90.2596 168.939 91.1792 168.905L91.2017 168.904H91.2603C91.0407 167.808 90.4899 167.011 89.8401 166.424C88.9471 165.617 87.8479 165.199 87.1335 165.067Z" fill="url(#paint16_linear_1353_26395)"/>
<path d="M83.4004 163.974C84.1992 162.902 85.5725 162.391 87.4236 162.561L87.4734 162.566L87.5233 162.574C88.6263 162.766 90.2119 163.361 91.5309 164.553C92.8887 165.78 93.9449 167.63 93.8809 170.196V170.197C93.8607 170.993 93.5625 172.444 92.7772 173.819C91.9739 175.225 90.5944 176.656 88.3838 177.12C87.5738 177.29 86.3405 177.282 85.1439 176.806C83.8961 176.311 82.6895 175.301 82.1043 173.528L83.3008 173.133L84.4983 172.738C84.822 173.718 85.4343 174.209 86.0747 174.463C86.7664 174.738 87.491 174.731 87.8661 174.653C89.1796 174.377 90.0323 173.541 90.5883 172.567C90.8099 172.179 90.9738 171.786 91.0923 171.426C89.9418 171.448 88.2686 171.296 86.7213 170.746C85.1144 170.174 83.3551 169.06 82.8026 166.976L82.7929 166.936L82.785 166.897C82.6364 166.143 82.6639 164.962 83.4004 163.974ZM87.1335 165.067C85.8985 164.966 85.5332 165.331 85.4213 165.481C85.2524 165.708 85.2026 166.068 85.2533 166.372C85.507 167.256 86.3074 167.922 87.5662 168.37C88.8229 168.818 90.2596 168.939 91.1792 168.905L91.2017 168.904H91.2603C91.0407 167.808 90.4899 167.011 89.8401 166.424C88.9471 165.617 87.8479 165.199 87.1335 165.067Z" fill="url(#paint17_linear_1353_26395)"/>
<path d="M83.4004 163.974C84.1992 162.902 85.5725 162.391 87.4236 162.561L87.4734 162.566L87.5233 162.574C88.6263 162.766 90.2119 163.361 91.5309 164.553C92.8887 165.78 93.9449 167.63 93.8809 170.196V170.197C93.8607 170.993 93.5625 172.444 92.7772 173.819C91.9739 175.225 90.5944 176.656 88.3838 177.12C87.5738 177.29 86.3405 177.282 85.1439 176.806C83.8961 176.311 82.6895 175.301 82.1043 173.528L83.3008 173.133L84.4983 172.738C84.822 173.718 85.4343 174.209 86.0747 174.463C86.7664 174.738 87.491 174.731 87.8661 174.653C89.1796 174.377 90.0323 173.541 90.5883 172.567C90.8099 172.179 90.9738 171.786 91.0923 171.426C89.9418 171.448 88.2686 171.296 86.7213 170.746C85.1144 170.174 83.3551 169.06 82.8026 166.976L82.7929 166.936L82.785 166.897C82.6364 166.143 82.6639 164.962 83.4004 163.974ZM87.1335 165.067C85.8985 164.966 85.5332 165.331 85.4213 165.481C85.2524 165.708 85.2026 166.068 85.2533 166.372C85.507 167.256 86.3074 167.922 87.5662 168.37C88.8229 168.818 90.2596 168.939 91.1792 168.905L91.2017 168.904H91.2603C91.0407 167.808 90.4899 167.011 89.8401 166.424C88.9471 165.617 87.8479 165.199 87.1335 165.067Z" fill="url(#paint18_linear_1353_26395)"/>
<path d="M83.4004 163.974C84.1992 162.902 85.5725 162.391 87.4236 162.561L87.4734 162.566L87.5233 162.574C88.6263 162.766 90.2119 163.361 91.5309 164.553C92.8887 165.78 93.9449 167.63 93.8809 170.196V170.197C93.8607 170.993 93.5625 172.444 92.7772 173.819C91.9739 175.225 90.5944 176.656 88.3838 177.12C87.5738 177.29 86.3405 177.282 85.1439 176.806C83.8961 176.311 82.6895 175.301 82.1043 173.528L83.3008 173.133L84.4983 172.738C84.822 173.718 85.4343 174.209 86.0747 174.463C86.7664 174.738 87.491 174.731 87.8661 174.653C89.1796 174.377 90.0323 173.541 90.5883 172.567C90.8099 172.179 90.9738 171.786 91.0923 171.426C89.9418 171.448 88.2686 171.296 86.7213 170.746C85.1144 170.174 83.3551 169.06 82.8026 166.976L82.7929 166.936L82.785 166.897C82.6364 166.143 82.6639 164.962 83.4004 163.974ZM87.1335 165.067C85.8985 164.966 85.5332 165.331 85.4213 165.481C85.2524 165.708 85.2026 166.068 85.2533 166.372C85.507 167.256 86.3074 167.922 87.5662 168.37C88.8229 168.818 90.2596 168.939 91.1792 168.905L91.2017 168.904H91.2603C91.0407 167.808 90.4899 167.011 89.8401 166.424C88.9471 165.617 87.8479 165.199 87.1335 165.067Z" fill="url(#paint19_linear_1353_26395)"/>
<g filter="url(#filter6_f_1353_26395)">
<path d="M43.5753 102.482L43.8445 106.75L47.2598 109.324L42.9917 109.593L40.4177 113.009L40.1485 108.741L36.7332 106.167L41.0014 105.897L43.5753 102.482Z" fill="#FFE3ED" fill-opacity="0.5"/>
</g>
<g filter="url(#filter7_f_1353_26395)">
<path d="M36.5814 98.7637L36.7231 101.012L38.5218 102.367L36.274 102.509L34.9184 104.308L34.7766 102.06L32.9779 100.704L35.2258 100.562L36.5814 98.7637Z" fill="#FFE3ED" fill-opacity="0.5"/>
</g>
<g filter="url(#filter8_f_1353_26395)">
<path d="M154.513 98.7637L154.372 101.012L152.573 102.367L154.821 102.509L156.176 104.308L156.318 102.06L158.117 100.704L155.869 100.562L154.513 98.7637Z" fill="#FFE3ED" fill-opacity="0.5"/>
</g>
<g filter="url(#filter9_f_1353_26395)">
<path d="M148.864 102.482L148.595 106.75L145.18 109.324L149.448 109.593L152.022 113.009L152.291 108.741L155.706 106.167L151.438 105.897L148.864 102.482Z" fill="#FFE3ED" fill-opacity="0.5"/>
</g>
<path d="M94.6227 118.619L102.171 130.675H87.0747L94.6227 118.619Z" fill="#FE71A5"/>
<defs>
<filter id="filter2_f_1353_26395" x="135.639" y="55.2081" width="33.3352" height="35.0072" filterUnits="userSpaceOnUse" color-interpolation-filters="sRGB">
<feFlood flood-opacity="0" result="BackgroundImageFix"/>
<feBlend mode="normal" in="SourceGraphic" in2="BackgroundImageFix" result="shape"/>
<feGaussianBlur stdDeviation="1.07758" result="effect1_foregroundBlur_1353_26395"/>
</filter>
<filter id="filter3_f_1353_26395" x="113.698" y="82.3196" width="16.679" height="18.469" filterUnits="userSpaceOnUse" color-interpolation-filters="sRGB">
<feFlood flood-opacity="0" result="BackgroundImageFix"/>
<feBlend mode="normal" in="SourceGraphic" in2="BackgroundImageFix" result="shape"/>
<feGaussianBlur stdDeviation="1.07758" result="effect1_foregroundBlur_1353_26395"/>
</filter>
<filter id="filter4_f_1353_26395" x="23.8252" y="55.2081" width="33.3352" height="35.0072" filterUnits="userSpaceOnUse" color-interpolation-filters="sRGB">
<feFlood flood-opacity="0" result="BackgroundImageFix"/>
<feBlend mode="normal" in="SourceGraphic" in2="BackgroundImageFix" result="shape"/>
<feGaussianBlur stdDeviation="1.07758" result="effect1_foregroundBlur_1353_26395"/>
</filter>
<filter id="filter5_f_1353_26395" x="63.5791" y="81.1942" width="16.679" height="18.469" filterUnits="userSpaceOnUse" color-interpolation-filters="sRGB">
<feFlood flood-opacity="0" result="BackgroundImageFix"/>
<feBlend mode="normal" in="SourceGraphic" in2="BackgroundImageFix" result="shape"/>
<feGaussianBlur stdDeviation="1.07758" result="effect1_foregroundBlur_1353_26395"/>
</filter>
<filter id="filter6_f_1353_26395" x="35.6553" y="101.404" width="12.6822" height="12.6822" filterUnits="userSpaceOnUse" color-interpolation-filters="sRGB">
<feFlood flood-opacity="0" result="BackgroundImageFix"/>
<feBlend mode="normal" in="SourceGraphic" in2="BackgroundImageFix" result="shape"/>
<feGaussianBlur stdDeviation="0.53879" result="effect1_foregroundBlur_1353_26395"/>
</filter>
<filter id="filter7_f_1353_26395" x="31.9002" y="97.6859" width="7.69935" height="7.69947" filterUnits="userSpaceOnUse" color-interpolation-filters="sRGB">
<feFlood flood-opacity="0" result="BackgroundImageFix"/>
<feBlend mode="normal" in="SourceGraphic" in2="BackgroundImageFix" result="shape"/>
<feGaussianBlur stdDeviation="0.53879" result="effect1_foregroundBlur_1353_26395"/>
</filter>
<filter id="filter8_f_1353_26395" x="151.495" y="97.6859" width="7.69935" height="7.69947" filterUnits="userSpaceOnUse" color-interpolation-filters="sRGB">
<feFlood flood-opacity="0" result="BackgroundImageFix"/>
<feBlend mode="normal" in="SourceGraphic" in2="BackgroundImageFix" result="shape"/>
<feGaussianBlur stdDeviation="0.53879" result="effect1_foregroundBlur_1353_26395"/>
</filter>
<filter id="filter9_f_1353_26395" x="144.102" y="101.404" width="12.6822" height="12.6822" filterUnits="userSpaceOnUse" color-interpolation-filters="sRGB">
<feFlood flood-opacity="0" result="BackgroundImageFix"/>
<feBlend mode="normal" in="SourceGraphic" in2="BackgroundImageFix" result="shape"/>
<feGaussianBlur stdDeviation="0.53879" result="effect1_foregroundBlur_1353_26395"/>
</filter>
<linearGradient id="paint0_linear_1353_26395" x1="94.3005" y1="156.622" x2="94.3005" y2="222.192" gradientUnits="userSpaceOnUse">
<stop/>
<stop offset="1" stop-color="#FBFCEE"/>
</linearGradient>
<radialGradient id="paint1_radial_1353_26395" cx="0" cy="0" r="1" gradientUnits="userSpaceOnUse" gradientTransform="translate(94.3013 24.3292) rotate(90) scale(149.757 146.091)">
<stop/>
<stop offset="0.817936"/>
<stop offset="1" stop-color="#FBFCEE"/>
</radialGradient>
<linearGradient id="paint2_linear_1353_26395" x1="94.3013" y1="24.3292" x2="94.3013" y2="160.751" gradientUnits="userSpaceOnUse">
<stop/>
<stop offset="1" stop-color="#FBFCEE"/>
</linearGradient>
<radialGradient id="paint3_radial_1353_26395" cx="0" cy="0" r="1" gradientUnits="userSpaceOnUse" gradientTransform="translate(94.3012 24.3286) rotate(90) scale(149.757 146.091)">
<stop/>
<stop offset="0.817936"/>
<stop offset="1" stop-color="#FBFCEE"/>
</radialGradient>
<linearGradient id="paint4_linear_1353_26395" x1="94.3011" y1="0" x2="94.3012" y2="246.468" gradientUnits="userSpaceOnUse">
<stop/>
<stop offset="1" stop-color="#FBFCEE"/>
</linearGradient>
<linearGradient id="paint5_linear_1353_26395" x1="190.117" y1="75.9432" x2="120.829" y2="11.5693" gradientUnits="userSpaceOnUse">
<stop stop-color="#FBFCEE"/>
<stop offset="0.5" stop-color="#E56695"/>
<stop offset="1" stop-color="#CB5A84"/>
</linearGradient>
<linearGradient id="paint6_linear_1353_26395" x1="-0.272604" y1="74.6741" x2="69.0125" y2="10.3014" gradientUnits="userSpaceOnUse">
<stop stop-color="#FBFCEE"/>
<stop offset="0.5" stop-color="#E56695"/>
<stop offset="1" stop-color="#CB5A84"/>
</linearGradient>
<linearGradient id="paint7_linear_1353_26395" x1="139.54" y1="40.8031" x2="139.54" y2="134.19" gradientUnits="userSpaceOnUse">
<stop stop-color="#FFF5FD"/>
<stop offset="1" stop-color="#EAE9EA"/>
</linearGradient>
<linearGradient id="paint8_linear_1353_26395" x1="139.54" y1="40.8031" x2="139.54" y2="134.19" gradientUnits="userSpaceOnUse">
<stop stop-color="white"/>
<stop offset="1" stop-color="#EAE9EA"/>
</linearGradient>
<linearGradient id="paint9_linear_1353_26395" x1="117.808" y1="46.1506" x2="161.233" y2="128.827" gradientUnits="userSpaceOnUse">
<stop/>
<stop offset="1" stop-color="#FBFCEE"/>
</linearGradient>
<linearGradient id="paint10_linear_1353_26395" x1="137.191" y1="62.1256" x2="138.795" y2="126.059" gradientUnits="userSpaceOnUse">
<stop stop-color="#1E1D1E"/>
<stop offset="1" stop-color="#662D42"/>
</linearGradient>
<linearGradient id="paint11_linear_1353_26395" x1="39.4874" y1="0" x2="39.4874" y2="93.3692" gradientUnits="userSpaceOnUse">
<stop stop-color="#FFF5FD"/>
<stop offset="1" stop-color="#EAE9EA"/>
</linearGradient>
<linearGradient id="paint12_linear_1353_26395" x1="39.4874" y1="0" x2="39.4874" y2="93.3692" gradientUnits="userSpaceOnUse">
<stop stop-color="white"/>
<stop offset="1" stop-color="#EAE9EA"/>
</linearGradient>
<linearGradient id="paint13_linear_1353_26395" x1="73.5353" y1="46.1506" x2="30.1106" y2="128.827" gradientUnits="userSpaceOnUse">
<stop/>
<stop offset="1" stop-color="#FBFCEE"/>
</linearGradient>
<linearGradient id="paint14_linear_1353_26395" x1="33.01" y1="17.9254" x2="34.6143" y2="81.8467" gradientUnits="userSpaceOnUse">
<stop stop-color="#1E1D1E"/>
<stop offset="1" stop-color="#662D42"/>
</linearGradient>
<linearGradient id="paint15_linear_1353_26395" x1="100.383" y1="162.529" x2="100.383" y2="185.901" gradientUnits="userSpaceOnUse">
<stop stop-color="#FE71A5"/>
<stop offset="1" stop-color="#FBFCEE"/>
</linearGradient>
<linearGradient id="paint16_linear_1353_26395" x1="87.994" y1="162.529" x2="87.994" y2="177.221" gradientUnits="userSpaceOnUse">
<stop stop-color="#FE8DB7"/>
<stop offset="1" stop-color="#FE8DB7"/>
</linearGradient>
<linearGradient id="paint17_linear_1353_26395" x1="87.994" y1="162.529" x2="87.994" y2="177.221" gradientUnits="userSpaceOnUse">
<stop stop-color="#FE71A5"/>
<stop offset="1" stop-color="#FBFCEE"/>
</linearGradient>
<linearGradient id="paint18_linear_1353_26395" x1="87.994" y1="162.529" x2="87.994" y2="184.692" gradientUnits="userSpaceOnUse">
<stop stop-color="#FE71A5"/>
<stop offset="1" stop-color="#FBFCEE"/>
</linearGradient>
<linearGradient id="paint19_linear_1353_26395" x1="87.994" y1="162.529" x2="87.994" y2="189.141" gradientUnits="userSpaceOnUse">
<stop stop-color="#FE71A5"/>
<stop offset="1" stop-color="#FBFCEE"/>
</linearGradient>
</defs>
</svg>
