<svg width="346" height="306" viewBox="0 0 346 306" fill="none" xmlns="http://www.w3.org/2000/svg">
<path d="M317.594 0.40931C318.168 -0.370988 319.405 0.0391867 319.4 1.00789L319.385 3.37924C319.383 3.81246 319.66 4.19807 320.071 4.3344L322.322 5.08066C323.241 5.38551 323.233 6.6889 322.31 6.98274L320.051 7.70205C319.638 7.83346 319.357 8.21575 319.354 8.64897L319.34 11.0203C319.334 11.989 318.092 12.3844 317.527 11.5973L316.145 9.67049C315.892 9.31849 315.442 9.16914 315.029 9.30055L312.769 10.0199C311.846 10.3137 311.087 9.25466 311.661 8.47436L313.066 6.56424C313.323 6.21528 313.325 5.74069 313.073 5.38869L311.691 3.4619C311.126 2.6748 311.898 1.62492 312.818 1.92977L315.069 2.67603C315.48 2.81236 315.932 2.6684 316.189 2.31944L317.594 0.40931Z" fill="#FE71A5"/>
<path d="M8.33714 260.94C8.91121 260.16 10.1484 260.57 10.1426 261.539L10.0522 276.678C10.0496 277.112 10.3262 277.497 10.7375 277.634L25.1083 282.398C26.0278 282.703 26.0201 284.006 25.097 284.3L10.6702 288.893C10.2574 289.024 9.97612 289.406 9.97353 289.839L9.88308 304.979C9.8773 305.948 8.6353 306.343 8.07059 305.556L-0.755209 293.255C-1.00775 292.903 -1.45823 292.753 -1.87105 292.885L-16.2978 297.477C-17.2209 297.771 -17.9807 296.712 -17.4067 295.932L-8.43451 283.736C-8.17778 283.388 -8.17494 282.913 -8.42749 282.561L-17.2533 270.259C-17.818 269.472 -17.0456 268.422 -16.1261 268.727L-1.75519 273.492C-1.34397 273.628 -0.89174 273.484 -0.635006 273.135L8.33714 260.94Z" fill="white"/>
<path d="M60.225 209.003C60.7526 208.191 62.0116 208.528 62.0623 209.495L62.369 215.347C62.3916 215.779 62.6903 216.148 63.1088 216.26L68.7683 217.777C69.704 218.027 69.7722 219.329 68.8678 219.676L63.3978 221.776C62.9934 221.931 62.7349 222.329 62.7576 222.762L63.0642 228.613C63.1149 229.58 61.8981 230.047 61.2885 229.294L57.6012 224.741C57.3285 224.404 56.8701 224.282 56.4657 224.437L50.9957 226.537C50.0913 226.884 49.271 225.871 49.7986 225.058L52.9897 220.144C53.2257 219.781 53.2009 219.307 52.9282 218.97L49.2409 214.417C48.6313 213.664 49.3412 212.571 50.2769 212.822L55.9364 214.338C56.3549 214.45 56.7979 214.28 57.0339 213.917L60.225 209.003Z" fill="#FE71A5"/>
<path d="M331.453 179.235C332.034 178.46 333.267 178.88 333.253 179.849L333.189 184.301C333.183 184.734 333.456 185.122 333.866 185.261L338.08 186.698C338.997 187.011 338.978 188.314 338.053 188.6L333.799 189.915C333.385 190.043 333.101 190.422 333.095 190.856L333.031 195.307C333.017 196.276 331.771 196.661 331.213 195.869L328.649 192.23C328.399 191.876 327.95 191.722 327.536 191.85L323.282 193.165C322.357 193.451 321.606 192.386 322.187 191.61L324.855 188.046C325.115 187.7 325.122 187.225 324.872 186.871L322.307 183.232C321.749 182.44 322.53 181.397 323.447 181.709L327.661 183.146C328.071 183.286 328.525 183.146 328.784 182.799L331.453 179.235Z" fill="#FE71A5"/>
<line x1="86.0832" y1="232.398" x2="93.0644" y2="241.301" stroke="#FFCC00" stroke-width="3"/>
<line x1="295.871" y1="255.784" x2="303.319" y2="247.268" stroke="#FFCC00" stroke-width="3"/>
<line x1="307.106" y1="58.1552" x2="313.106" y2="64.1552" stroke="#FFCC00" stroke-width="3"/>
<line x1="91.2837" y1="19.5653" x2="95.0107" y2="14.8632" stroke="#A9FF77" stroke-width="3"/>
<line x1="81.6981" y1="277.213" x2="77.0511" y2="273.417" stroke="#A9FF77" stroke-width="3"/>
<line x1="307.698" y1="300.213" x2="303.051" y2="296.417" stroke="#A9FF77" stroke-width="3"/>
<line x1="344.677" y1="203.953" x2="339.481" y2="206.953" stroke="#A9FF77" stroke-width="3"/>
</svg>
