<svg viewBox="0 0 285.81 175.32" fill="none" xmlns="http://www.w3.org/2000/svg">
<g id="Group 2147225913" opacity="0.8" filter="url(#filter0_f_0_49)">
<path id="Subtract" d="M220.783 4.36592C241.865 2.42732 257.504 8.24951 266.602 20.4519C274.989 31.7017 275.305 45.1568 273.613 53.7419L273.524 54.196L273.405 54.6433C267.114 78.3769 247.086 91.0601 228.784 97.5749C211.705 103.654 193.276 105.493 180.227 105.377C180.861 106.53 181.576 107.676 182.382 108.792C186.563 114.578 193.461 120.066 205.539 121.667L206.724 121.809L206.909 121.829L207.092 121.854C214.031 122.788 225.073 122.322 234.632 118.171C243.513 114.313 251.025 107.443 253.655 94.2976L267.732 97.113L281.81 99.9284C277.055 123.7 262.177 137.511 246.071 144.507C230.744 151.164 214.316 151.759 203.477 150.337C182.33 148.003 167.967 137.867 159.109 125.607C154.322 118.982 151.242 111.893 149.42 105.316H142.57C143.72 99.9677 144.282 95.214 144.376 91.4812L144.378 91.4021V91.3464C144.501 86.2031 144.249 81.2901 143.672 76.6032H147.997C150.865 54.8791 161.267 38.5574 174.003 27.0466C189.024 13.4718 207.08 6.69768 219.643 4.51729L220.209 4.41866L220.783 4.36592ZM243.583 37.613C242.306 35.8995 238.127 31.7276 223.976 32.9108C215.837 34.4407 203.381 39.197 193.254 48.3483C185.855 55.0353 179.59 64.1227 177.088 76.6032H177.748L178.008 76.613C188.482 76.9925 204.843 75.6195 219.155 70.5251C233.492 65.4217 242.63 57.8406 245.519 47.7683C246.097 44.3015 245.509 40.1962 243.583 37.613Z" fill="var(--fill-0, white)"/>
<g id="Union">
<path d="M18.7617 20.452C27.8593 8.24965 43.4989 2.42746 64.5811 4.36606L65.1543 4.41879L65.7217 4.51743C78.2843 6.69786 96.3405 13.4718 111.361 27.0467C126.827 41.024 138.853 62.0941 138.122 91.3182V91.3231C137.892 100.394 134.505 116.91 125.561 132.568C116.412 148.584 100.696 164.892 75.5146 170.171C66.2901 172.104 52.2493 172.018 38.6211 166.603C24.4102 160.957 10.6656 149.455 4 129.269L17.6318 124.768L31.2637 120.266C34.9505 131.432 41.9269 137.021 49.2227 139.92C57.1011 143.05 65.3539 142.964 69.625 142.069C84.584 138.933 94.2972 129.412 100.629 118.327C103.148 113.917 105.013 109.445 106.362 105.36C93.2579 105.606 74.2017 103.847 56.5811 97.575C38.2788 91.0602 18.2499 78.3773 11.959 54.6434L11.8408 54.1961L11.751 53.742C10.0583 45.157 10.3746 31.7018 18.7617 20.452ZM61.3877 32.911C47.2362 31.7278 43.0577 35.8998 41.7803 37.6131C39.856 40.1941 39.2681 44.2947 39.8438 47.7596C42.7303 57.8363 51.8677 65.4203 66.209 70.5252C80.5211 75.6197 96.8819 76.9926 107.355 76.6131L107.615 76.6034H108.276C105.774 64.1227 99.5086 55.0355 92.1094 48.3485C81.983 39.197 69.5265 34.4407 61.3877 32.911Z" fill="url(#paint0_linear_0_49)"/>
<path d="M18.7617 20.452C27.8593 8.24965 43.4989 2.42746 64.5811 4.36606L65.1543 4.41879L65.7217 4.51743C78.2843 6.69786 96.3405 13.4718 111.361 27.0467C126.827 41.024 138.853 62.0941 138.122 91.3182V91.3231C137.892 100.394 134.505 116.91 125.561 132.568C116.412 148.584 100.696 164.892 75.5146 170.171C66.2901 172.104 52.2493 172.018 38.6211 166.603C24.4102 160.957 10.6656 149.455 4 129.269L17.6318 124.768L31.2637 120.266C34.9505 131.432 41.9269 137.021 49.2227 139.92C57.1011 143.05 65.3539 142.964 69.625 142.069C84.584 138.933 94.2972 129.412 100.629 118.327C103.148 113.917 105.013 109.445 106.362 105.36C93.2579 105.606 74.2017 103.847 56.5811 97.575C38.2788 91.0602 18.2499 78.3773 11.959 54.6434L11.8408 54.1961L11.751 53.742C10.0583 45.157 10.3746 31.7018 18.7617 20.452ZM61.3877 32.911C47.2362 31.7278 43.0577 35.8998 41.7803 37.6131C39.856 40.1941 39.2681 44.2947 39.8438 47.7596C42.7303 57.8363 51.8677 65.4203 66.209 70.5252C80.5211 75.6197 96.8819 76.9926 107.355 76.6131L107.615 76.6034H108.276C105.774 64.1227 99.5086 55.0355 92.1094 48.3485C81.983 39.197 69.5265 34.4407 61.3877 32.911Z" fill="var(--fill-1, white)"/>
</g>
</g>
<defs>
<filter id="filter0_f_0_49" x="0" y="-2.32831e-08" width="285.81" height="175.32" filterUnits="userSpaceOnUse" color-interpolation-filters="sRGB">
<feFlood flood-opacity="0" result="BackgroundImageFix"/>
<feBlend mode="normal" in="SourceGraphic" in2="BackgroundImageFix" result="shape"/>
<feGaussianBlur stdDeviation="2" result="effect1_foregroundBlur_0_49"/>
</filter>
<linearGradient id="paint0_linear_0_49" x1="71.0768" y1="3.99985" x2="71.0768" y2="303.769" gradientUnits="userSpaceOnUse">
<stop stop-color="#331721"/>
<stop offset="1" stop-color="#FBFCEE"/>
</linearGradient>
</defs>
</svg>
