<svg width="48" height="48" viewBox="0 0 48 48" fill="none" xmlns="http://www.w3.org/2000/svg">
<path d="M0 24C0 10.7452 10.7452 0 24 0C37.2548 0 48 10.7452 48 24C48 37.2548 37.2548 48 24 48C10.7452 48 0 37.2548 0 24Z" fill="#FE71A5"/>
<path d="M21.6211 15.1026L22.261 28.036H25.1912L25.7975 15.1026L25.9322 10.7578H21.4863L21.6211 15.1026Z" fill="white"/>
<path d="M26.8159 31.2065C27.5781 31.1365 28.1432 31.3474 28.4722 31.7886C28.7752 32.1952 28.7872 32.6813 28.7261 32.9917L28.7231 33.0083L28.7183 33.0249C28.4905 33.8823 27.7664 34.3412 27.105 34.5767C26.4877 34.7962 25.8208 34.8621 25.3491 34.8579C25.3722 34.8999 25.3979 34.9423 25.4272 34.9829C25.5637 35.1717 25.781 35.3515 26.1431 35.4273L26.3071 35.4536L26.3208 35.4546C26.5715 35.4883 26.9715 35.4715 27.3169 35.3218C27.6376 35.1824 27.9092 34.9331 28.0044 34.4585L28.5132 34.5601L29.022 34.6626C28.8498 35.5214 28.3121 36.0211 27.73 36.2739C27.1788 36.5131 26.5876 36.5353 26.1958 36.4849V36.4858C26.1928 36.4854 26.1889 36.4842 26.186 36.4839C26.1849 36.4839 26.1832 36.484 26.1821 36.4839V36.4829C25.4222 36.3967 24.9046 36.0319 24.5854 35.5903C24.4127 35.3511 24.3027 35.0944 24.2368 34.8569H23.9878C24.0294 34.6636 24.0498 34.4918 24.0532 34.3569C24.0579 34.1691 24.0479 33.9899 24.0269 33.8189H24.1841C24.2877 33.0338 24.6643 32.443 25.1245 32.0269C25.6671 31.5366 26.3198 31.2915 26.7739 31.2124L26.7944 31.2085L26.8159 31.2065ZM26.9292 32.2388C26.6349 32.2946 26.1849 32.4675 25.8198 32.7974C25.5528 33.0391 25.3262 33.3682 25.2358 33.8189H25.269C25.6474 33.8326 26.2392 33.7829 26.7563 33.5991C27.2747 33.4146 27.604 33.139 27.7085 32.7749C27.7291 32.6498 27.7095 32.5019 27.6401 32.4087C27.5938 32.3466 27.442 32.1955 26.9292 32.2388Z" fill="white"/>
<path d="M21.1675 31.2065L21.189 31.2085L21.2095 31.2124C21.6637 31.2914 22.317 31.5363 22.8599 32.0269C23.4188 32.5323 23.8531 33.2947 23.8267 34.3511C23.8183 34.6791 23.6959 35.2762 23.3726 35.8423C23.0418 36.4213 22.4733 37.0107 21.563 37.2017C21.2295 37.2715 20.7216 37.2684 20.229 37.0728C19.7153 36.8686 19.2181 36.4528 18.9771 35.7231L19.4702 35.5601L19.9634 35.3979C20.0967 35.8013 20.3491 36.0031 20.6128 36.1079C20.8975 36.2209 21.1957 36.2184 21.3501 36.186C21.8908 36.0726 22.2423 35.7283 22.4712 35.3276C22.5624 35.168 22.6294 35.0057 22.6782 34.8579C22.2045 34.8667 21.5153 34.8033 20.8784 34.5767C20.2168 34.3411 19.4927 33.8827 19.2651 33.0249L19.2573 32.9917C19.1962 32.6812 19.2081 32.1952 19.5112 31.7886C19.8401 31.3475 20.4054 31.1365 21.1675 31.2065ZM21.0542 32.2388C20.5415 32.1955 20.3897 32.3466 20.3433 32.4087C20.2743 32.5011 20.2551 32.6474 20.2749 32.772C20.3783 33.1378 20.7071 33.414 21.2271 33.5991C21.7443 33.7831 22.3358 33.8325 22.7144 33.8188H22.7476C22.6572 33.3679 22.4309 33.0391 22.1636 32.7974C21.7983 32.4672 21.3485 32.2945 21.0542 32.2388Z" fill="url(#paint0_linear_2753_17407)"/>
<path d="M21.1675 31.2065L21.189 31.2085L21.2095 31.2124C21.6637 31.2914 22.317 31.5363 22.8599 32.0269C23.4188 32.5323 23.8531 33.2947 23.8267 34.3511C23.8183 34.6791 23.6959 35.2762 23.3726 35.8423C23.0418 36.4213 22.4733 37.0107 21.563 37.2017C21.2295 37.2715 20.7216 37.2684 20.229 37.0728C19.7153 36.8686 19.2181 36.4528 18.9771 35.7231L19.4702 35.5601L19.9634 35.3979C20.0967 35.8013 20.3491 36.0031 20.6128 36.1079C20.8975 36.2209 21.1957 36.2184 21.3501 36.186C21.8908 36.0726 22.2423 35.7283 22.4712 35.3276C22.5624 35.168 22.6294 35.0057 22.6782 34.8579C22.2045 34.8667 21.5153 34.8033 20.8784 34.5767C20.2168 34.3411 19.4927 33.8827 19.2651 33.0249L19.2573 32.9917C19.1962 32.6812 19.2081 32.1952 19.5112 31.7886C19.8401 31.3475 20.4054 31.1365 21.1675 31.2065ZM21.0542 32.2388C20.5415 32.1955 20.3897 32.3466 20.3433 32.4087C20.2743 32.5011 20.2551 32.6474 20.2749 32.772C20.3783 33.1378 20.7071 33.414 21.2271 33.5991C21.7443 33.7831 22.3358 33.8325 22.7144 33.8188H22.7476C22.6572 33.3679 22.4309 33.0391 22.1636 32.7974C21.7983 32.4672 21.3485 32.2945 21.0542 32.2388Z" fill="url(#paint1_linear_2753_17407)"/>
<path d="M21.1675 31.2065L21.189 31.2085L21.2095 31.2124C21.6637 31.2914 22.317 31.5363 22.8599 32.0269C23.4188 32.5323 23.8531 33.2947 23.8267 34.3511C23.8183 34.6791 23.6959 35.2762 23.3726 35.8423C23.0418 36.4213 22.4733 37.0107 21.563 37.2017C21.2295 37.2715 20.7216 37.2684 20.229 37.0728C19.7153 36.8686 19.2181 36.4528 18.9771 35.7231L19.4702 35.5601L19.9634 35.3979C20.0967 35.8013 20.3491 36.0031 20.6128 36.1079C20.8975 36.2209 21.1957 36.2184 21.3501 36.186C21.8908 36.0726 22.2423 35.7283 22.4712 35.3276C22.5624 35.168 22.6294 35.0057 22.6782 34.8579C22.2045 34.8667 21.5153 34.8033 20.8784 34.5767C20.2168 34.3411 19.4927 33.8827 19.2651 33.0249L19.2573 32.9917C19.1962 32.6812 19.2081 32.1952 19.5112 31.7886C19.8401 31.3475 20.4054 31.1365 21.1675 31.2065ZM21.0542 32.2388C20.5415 32.1955 20.3897 32.3466 20.3433 32.4087C20.2743 32.5011 20.2551 32.6474 20.2749 32.772C20.3783 33.1378 20.7071 33.414 21.2271 33.5991C21.7443 33.7831 22.3358 33.8325 22.7144 33.8188H22.7476C22.6572 33.3679 22.4309 33.0391 22.1636 32.7974C21.7983 32.4672 21.3485 32.2945 21.0542 32.2388Z" fill="url(#paint2_linear_2753_17407)"/>
<path d="M21.1675 31.2065L21.189 31.2085L21.2095 31.2124C21.6637 31.2914 22.317 31.5363 22.8599 32.0269C23.4188 32.5323 23.8531 33.2947 23.8267 34.3511C23.8183 34.6791 23.6959 35.2762 23.3726 35.8423C23.0418 36.4213 22.4733 37.0107 21.563 37.2017C21.2295 37.2715 20.7216 37.2684 20.229 37.0728C19.7153 36.8686 19.2181 36.4528 18.9771 35.7231L19.4702 35.5601L19.9634 35.3979C20.0967 35.8013 20.3491 36.0031 20.6128 36.1079C20.8975 36.2209 21.1957 36.2184 21.3501 36.186C21.8908 36.0726 22.2423 35.7283 22.4712 35.3276C22.5624 35.168 22.6294 35.0057 22.6782 34.8579C22.2045 34.8667 21.5153 34.8033 20.8784 34.5767C20.2168 34.3411 19.4927 33.8827 19.2651 33.0249L19.2573 32.9917C19.1962 32.6812 19.2081 32.1952 19.5112 31.7886C19.8401 31.3475 20.4054 31.1365 21.1675 31.2065ZM21.0542 32.2388C20.5415 32.1955 20.3897 32.3466 20.3433 32.4087C20.2743 32.5011 20.2551 32.6474 20.2749 32.772C20.3783 33.1378 20.7071 33.414 21.2271 33.5991C21.7443 33.7831 22.3358 33.8325 22.7144 33.8188H22.7476C22.6572 33.3679 22.4309 33.0391 22.1636 32.7974C21.7983 32.4672 21.3485 32.2945 21.0542 32.2388Z" fill="white"/>
<defs>
<linearGradient id="paint0_linear_2753_17407" x1="21.4024" y1="31.1934" x2="21.4024" y2="37.2432" gradientUnits="userSpaceOnUse">
<stop stop-color="#FE8DB7"/>
<stop offset="1" stop-color="#FE8DB7"/>
</linearGradient>
<linearGradient id="paint1_linear_2753_17407" x1="21.4024" y1="31.1934" x2="21.4024" y2="37.2432" gradientUnits="userSpaceOnUse">
<stop stop-color="#FE71A5"/>
<stop offset="1" stop-color="#FBFCEE"/>
</linearGradient>
<linearGradient id="paint2_linear_2753_17407" x1="21.4024" y1="31.1934" x2="21.4024" y2="40.3198" gradientUnits="userSpaceOnUse">
<stop stop-color="#FE71A5"/>
<stop offset="1" stop-color="#FBFCEE"/>
</linearGradient>
</defs>
</svg>
