<svg width="393" height="107" viewBox="0 0 393 107" fill="none" xmlns="http://www.w3.org/2000/svg">
<path d="M91.1533 24.5042C111.956 24.5045 126.661 44.1957 126.661 65.5745C126.661 86.9535 111.956 106.646 91.1533 106.646C70.3509 106.646 55.6445 86.9536 55.6445 65.5745C55.6447 44.1956 70.351 24.5044 91.1533 24.5042ZM193.392 6.74446C211.916 6.74463 227.042 19.633 233.421 36.7142L226.503 39.2972L219.586 41.8812C214.906 29.3497 204.542 21.5122 193.392 21.512C178.529 21.5121 164.727 35.8228 164.727 55.8011C164.727 76.3909 175.64 89.516 190.372 90.682C198.95 91.3606 207.236 89.5173 214.279 82.0736C214.78 81.5447 215.703 80.3776 216.738 78.7874C217.751 77.2316 218.676 75.5683 219.291 74.1351C219.683 73.2228 219.947 72.1569 220.114 70.9515H193.392V56.1829H235.069V63.5667C235.069 64.5907 235.192 66.6958 235.069 69.3021V105.1H220.301V96.556C210.467 104.384 199.339 106.206 189.208 105.405C164.246 103.429 149.959 81.2416 149.959 55.8011C149.959 29.7489 168.436 6.74453 193.392 6.74446ZM340.221 0.407551C345.026 -0.624267 352.533 -0.0493004 357.712 6.31478C362.721 12.47 363.733 21.9073 361.04 34.3128L361.017 34.4193L360.99 34.5247C359.709 39.6879 357.068 47.52 353.163 54.5404C352.789 55.2138 352.397 55.8885 351.989 56.5599H364.517V71.3285H341.979C342.224 72.2116 342.499 73.1319 342.806 74.0726C344.289 78.6183 346.171 82.6702 348.005 85.0413C351.164 89.1267 354.904 89.9967 357.222 90.2806C361.54 90.8095 365.392 89.8923 368.557 87.7025C371.716 85.5159 374.704 81.6971 376.602 75.5521C376.608 75.5256 376.617 75.496 376.625 75.4632C376.67 75.283 376.737 75.0103 376.817 74.6644C376.98 73.9694 377.197 72.9912 377.413 71.8744C377.87 69.5195 378.231 67.0011 378.231 65.222H393C393 68.4697 392.408 72.1244 391.911 74.6849C391.651 76.0251 391.392 77.1907 391.197 78.0247C391.1 78.443 391.017 78.7823 390.958 79.0218C390.928 79.1413 390.904 79.2367 390.887 79.305C390.878 79.3389 390.871 79.3666 390.865 79.387C390.863 79.3972 390.861 79.4067 390.859 79.4134L390.855 79.4251V79.4261L383.709 77.5667L390.855 79.4281L390.817 79.5736L390.773 79.7171C388.089 88.5319 383.352 95.424 376.96 99.847C370.55 104.283 362.998 105.867 355.426 104.94C351.005 104.398 342.819 102.477 336.322 94.0755C332.966 89.7354 330.451 83.8172 328.766 78.6527C327.965 76.1976 327.281 73.688 326.763 71.3285H314.509V56.5599H323.664C322.042 48.7652 320.849 39.5517 321.182 30.9505C321.422 24.7368 322.475 18.2524 325.201 12.7572C328.04 7.03385 332.797 2.25898 339.98 0.463215L340.1 0.433918L340.221 0.407551ZM71.4854 20.2503H43.127V104.26H28.3594V20.2503H0V5.48275H71.4854V20.2503ZM282.398 24.6947C293.242 23.6976 301.287 26.6919 305.966 32.9681C310.28 38.7544 310.443 45.6755 309.572 50.0911L309.526 50.3245L309.465 50.554C306.229 62.7615 295.927 69.2852 286.514 72.6361C277.729 75.7631 268.25 76.7067 261.538 76.6468C261.865 77.2406 262.232 77.831 262.647 78.4056C264.798 81.3818 268.346 84.2034 274.559 85.0267L275.168 85.1009L275.263 85.1107L275.357 85.1234C278.927 85.6038 284.606 85.3643 289.522 83.2288C294.09 81.2448 297.954 77.7109 299.307 70.9495L306.547 72.3978L313.788 73.846C311.343 86.073 303.69 93.1765 295.405 96.7747C287.507 100.205 279.041 100.506 273.467 99.7689C262.607 98.5619 255.228 93.3538 250.677 87.054C248.215 83.6464 246.631 80.0001 245.694 76.6175H239.896V61.849H244.962C246.437 50.6753 251.787 42.2802 258.338 36.3597C266.064 29.3776 275.351 25.8932 281.812 24.7718L282.104 24.721L282.398 24.6947ZM91.1533 39.2699C80.8894 39.27 70.4103 49.7435 70.4102 65.5745C70.4102 81.4058 80.8894 91.8791 91.1533 91.8792C101.417 91.8789 111.896 81.4057 111.896 65.5745C111.895 49.7436 101.417 39.2701 91.1533 39.2699ZM294.126 41.7952C293.47 40.9151 291.325 38.7731 284.067 39.3743C279.882 40.156 273.459 42.6002 268.24 47.3167C264.435 50.7561 261.212 55.4298 259.925 61.849H260.265L260.398 61.8538C265.785 62.049 274.2 61.3432 281.562 58.723C288.942 56.0957 293.64 52.1908 295.122 47.0033C295.415 45.2233 295.114 43.1203 294.126 41.7952ZM346.258 15.6361C345.696 14.9456 344.696 14.5866 343.436 14.8245C341.31 15.3912 339.719 16.7238 338.432 19.3197C337.005 22.1949 336.14 26.3437 335.939 31.5208C335.691 37.9442 336.495 45.0455 337.698 51.4124C338.568 50.2143 339.426 48.855 340.257 47.3617C343.356 41.7905 345.568 35.3102 346.627 31.0863C348.949 20.3151 347.005 16.5541 346.258 15.6361Z" fill="url(#paint0_linear_1353_26387)"/>
<defs>
<linearGradient id="paint0_linear_1353_26387" x1="196.5" y1="106.646" x2="196.5" y2="0" gradientUnits="userSpaceOnUse">
<stop stop-color="#FE71A5"/>
<stop offset="1" stop-color="#FE71A5" stop-opacity="0.3"/>
</linearGradient>
</defs>
</svg>
