<svg viewBox="0 0 207.001 56.1834" fill="none" xmlns="http://www.w3.org/2000/svg">
<path id="Union" d="M48.0117 12.9177C58.9686 12.918 66.7148 23.29 66.7148 34.5506C66.7146 45.811 58.9684 56.1831 48.0117 56.1834C37.0548 56.1834 29.3088 45.8111 29.3086 34.5506C29.3086 23.2898 37.0546 12.9177 48.0117 12.9177ZM101.861 3.55739C111.619 3.55739 119.585 10.3465 122.945 19.3435L119.302 20.7039L115.658 22.0652C113.193 15.4646 107.734 11.3367 101.861 11.3367C94.0332 11.337 86.7637 18.8745 86.7637 29.3972C86.7638 40.242 92.512 47.1552 100.271 47.7693C104.789 48.1268 109.154 47.1556 112.863 43.2351C113.127 42.9566 113.613 42.3419 114.158 41.5047C114.692 40.6852 115.179 39.8084 115.503 39.0535C115.709 38.5729 115.85 38.0116 115.938 37.3767H101.861V29.5984H123.813V33.4871C123.813 34.0279 123.879 35.1414 123.813 36.5193V55.3631H116.035V50.8592C110.855 54.9837 104.995 55.9464 99.6582 55.5242C86.5104 54.4837 78.9846 42.797 78.9844 29.3972C78.9844 15.6752 88.7169 3.55773 101.861 3.55739ZM179.201 0.214621C181.732 -0.328734 185.686 -0.0260564 188.414 3.32595C191.052 6.56808 191.585 11.539 190.167 18.073L190.154 18.1287L190.141 18.1843C189.466 20.9039 188.075 25.0296 186.019 28.7273C185.821 29.0825 185.612 29.4366 185.396 29.7908H191.998V37.5701H180.128C180.257 38.035 180.401 38.5202 180.562 39.0154C181.344 41.4096 182.336 43.544 183.302 44.7927C184.966 46.9438 186.935 47.4029 188.155 47.5525C190.43 47.831 192.459 47.3475 194.126 46.1941C195.792 45.0412 197.367 43.0266 198.366 39.784C198.369 39.7728 198.373 39.7608 198.376 39.7478C198.4 39.6529 198.434 39.5091 198.477 39.3269C198.562 38.9609 198.677 38.4456 198.791 37.8572C199.031 36.6169 199.222 35.2904 199.222 34.3533H207.001C207.001 36.0639 206.689 37.989 206.428 39.3377C206.291 40.0437 206.154 40.6581 206.052 41.0974C206 41.3176 205.956 41.4958 205.925 41.6218C205.909 41.6849 205.897 41.7353 205.888 41.7713C205.883 41.789 205.88 41.8035 205.877 41.8142C205.876 41.8195 205.874 41.8244 205.873 41.8279C205.873 41.8296 205.872 41.8315 205.872 41.8328L205.871 41.8347L202.107 40.8552L205.871 41.8357L205.852 41.9129L205.828 41.9881C204.414 46.6307 201.919 50.2609 198.553 52.5906C195.176 54.927 191.198 55.7617 187.21 55.2732C184.882 54.988 180.569 53.9762 177.147 49.5515C175.38 47.2656 174.055 44.1478 173.168 41.4275C172.746 40.1347 172.387 38.8127 172.114 37.5701H165.658V29.7908H170.48C169.626 25.6852 168.998 20.8319 169.173 16.3015C169.299 13.0288 169.854 9.61382 171.29 6.7195C172.785 3.70491 175.291 1.18981 179.074 0.243918L179.138 0.228293L179.201 0.214621ZM37.6523 10.6726H22.7168V54.9256H14.9375V10.6726H0V2.89333H37.6523V10.6726ZM148.743 13.0183C154.455 12.4931 158.692 14.0699 161.156 17.3758C163.428 20.4234 163.514 24.0685 163.056 26.3943L163.031 26.5174L162.999 26.6384C161.295 33.068 155.869 36.5043 150.911 38.2693C146.284 39.9163 141.291 40.4131 137.756 40.3816C137.928 40.6944 138.121 41.0057 138.34 41.3084C139.472 42.8759 141.341 44.3629 144.613 44.7967L144.935 44.8347L144.984 44.8406L145.034 44.8474C146.914 45.1005 149.906 44.974 152.495 43.8494C154.901 42.8044 156.936 40.9428 157.648 37.3816L161.463 38.1443L165.276 38.907C163.988 45.347 159.957 49.0889 155.594 50.9842C151.414 52.7994 146.932 52.9516 143.996 52.5564V52.5554C138.3 51.9108 134.427 49.1738 132.035 45.864C130.738 44.0692 129.904 42.1486 129.41 40.367H126.356V32.5877H129.026C129.803 26.7029 132.619 22.2812 136.069 19.1629C140.139 15.4853 145.031 13.6491 148.435 13.0584L148.588 13.032L148.743 13.0183ZM48.0117 20.6951C42.6055 20.6951 37.0859 26.2119 37.0859 34.5506C37.0861 42.889 42.6056 48.4051 48.0117 48.4051C53.4177 48.4047 58.9363 42.8887 58.9365 34.5506C58.9365 26.2122 53.4178 20.6954 48.0117 20.6951ZM154.92 22.0252C154.574 21.5611 153.443 20.4317 149.61 20.7517C147.405 21.1658 144.029 22.4535 141.285 24.9334C139.281 26.7449 137.584 29.2069 136.906 32.5877H137.085L137.155 32.5906C139.993 32.6934 144.425 32.3211 148.302 30.9412C152.188 29.5577 154.663 27.5016 155.444 24.7703C155.599 23.8323 155.441 22.7236 154.92 22.0252ZM182.381 8.23611C182.083 7.87007 181.552 7.68219 180.882 7.81228C179.769 8.11268 178.934 8.81358 178.259 10.1756C177.508 11.69 177.052 13.8754 176.946 16.6023C176.816 19.985 177.238 23.7248 177.872 27.0779C178.33 26.447 178.783 25.7323 179.221 24.9461C180.859 21.9999 182.026 18.5706 182.581 16.3465C183.795 10.6961 182.774 8.71996 182.381 8.23611Z" fill="var(--fill-0, black)"/>
</svg>
