<svg preserveAspectRatio="none" width="100%" height="100%" overflow="visible" style="display: block;" viewBox="0 0 52.6324 59.9876" fill="none" xmlns="http://www.w3.org/2000/svg">
<g id="Group 2147225959">
<g id="Group 2147225944">
<g id="Rectangle 1954137251">
<path d="M16.9096 43.6651C17.0843 43.2047 17.5255 42.9002 18.0179 42.9002H29.6854C30.1654 42.9002 30.598 43.1897 30.7811 43.6334L36.8549 58.3501C37.177 59.1304 36.6034 59.9876 35.7592 59.9876H12.4342C11.6047 59.9876 11.0317 59.1574 11.326 58.3818L16.9096 43.6651Z" fill="url(#paint0_linear_0_293)"/>
<path d="M29.9475 44.0856C29.9475 43.4309 30.4782 42.9002 31.1328 42.9002H40.3627C41.7642 42.9002 42.9004 44.0364 42.9004 45.4379C42.9004 46.8394 41.7642 47.9755 40.3627 47.9755H31.1328C30.4782 47.9755 29.9475 47.4449 29.9475 46.7902V44.0856Z" fill="url(#paint1_linear_0_293)"/>
</g>
<g id="Group 2147225940">
<path id="Subtract" d="M25.8382 44.5553C26.3489 44.5455 26.716 44.7132 26.9138 45.0227C27.0957 45.308 27.08 45.6329 27.0244 45.8365L27.0217 45.8471L27.018 45.8576C26.8252 46.4177 26.3207 46.6893 25.8689 46.8144C25.4477 46.9309 25.0006 46.9404 24.6867 46.915C24.7 46.9442 24.7146 46.9749 24.7322 47.0035C24.8141 47.1356 24.9499 47.2662 25.1871 47.334L25.2949 47.3594L25.3036 47.361C25.469 47.3955 25.7363 47.4034 25.9733 47.3203C26.1937 47.2429 26.3865 47.0893 26.4727 46.7777L27.1408 46.9631C26.9848 47.5266 26.6029 47.8339 26.2032 47.9743C25.8246 48.1071 25.4299 48.0921 25.1714 48.0398L25.1713 48.0407C25.1699 48.0405 25.1679 48.0397 25.1665 48.0394C25.1654 48.0392 25.1637 48.0393 25.1626 48.0391L25.1627 48.0381C24.6609 47.9444 24.3333 47.6774 24.1419 47.3681C24.0385 47.2008 23.9798 47.0236 23.9473 46.8626L23.7759 46.8502C23.813 46.7231 23.8379 46.6102 23.8467 46.5204C23.8589 46.3954 23.858 46.2756 23.8522 46.1605L23.9632 46.1685C24.0701 45.6509 24.3454 45.2752 24.6718 45.0203C25.0571 44.7196 25.5044 44.5879 25.8107 44.5572L25.8382 44.5553ZM25.8665 45.2486C25.6679 45.2711 25.3586 45.364 25.0984 45.5671C24.9088 45.7152 24.7435 45.9232 24.6616 46.219L24.682 46.2205C24.9336 46.2478 25.3309 46.2437 25.6842 46.146C26.0373 46.0482 26.2694 45.881 26.3568 45.6443C26.377 45.5619 26.3705 45.4614 26.3288 45.3956C26.3007 45.3519 26.2068 45.2451 25.8665 45.2486Z" fill="url(#paint2_linear_0_293)"/>
<g id="Union">
<path d="M22.0766 44.2832L22.1036 44.2891C22.4023 44.3635 22.8262 44.5582 23.1641 44.9111C23.5119 45.2745 23.7645 45.8032 23.6961 46.5053C23.6747 46.7234 23.5649 47.1156 23.3224 47.477C23.0743 47.8466 22.6664 48.2114 22.0512 48.2947C21.8258 48.3252 21.4875 48.2987 21.169 48.1449C20.8368 47.9842 20.5256 47.683 20.4002 47.1856L20.7363 47.1012L21.0724 47.0158C21.1417 47.2907 21.3003 47.4379 21.4707 47.5204C21.6548 47.6094 21.8545 47.6217 21.9588 47.6076C22.3239 47.558 22.5745 47.3463 22.7462 47.0907C22.8147 46.9885 22.8656 46.8823 22.9053 46.786C22.5895 46.7689 22.134 46.6956 21.7216 46.5144C21.2923 46.3257 20.8322 45.9846 20.7219 45.4024L20.7198 45.3915L20.7186 45.3806C20.6928 45.171 20.7237 44.8474 20.945 44.5912C21.1853 44.3132 21.5725 44.1999 22.0766 44.2832ZM21.949 44.9653C21.6114 44.9126 21.5032 45.0051 21.4694 45.0442C21.419 45.1026 21.3988 45.1994 21.4061 45.2834C21.4576 45.5317 21.6635 45.7314 22.0005 45.8795C22.3361 46.027 22.7287 46.0882 22.9815 46.0973L23.0019 46.0988C22.9634 45.7944 22.8296 45.5646 22.6634 45.3909C22.4352 45.1526 22.1423 45.0161 21.949 44.9653Z" fill="url(#paint3_linear_0_293)"/>
<path d="M22.0766 44.2832L22.1036 44.2891C22.4023 44.3635 22.8262 44.5582 23.1641 44.9111C23.5119 45.2745 23.7645 45.8032 23.6961 46.5053C23.6747 46.7234 23.5649 47.1156 23.3224 47.477C23.0743 47.8466 22.6664 48.2114 22.0512 48.2947C21.8258 48.3252 21.4875 48.2987 21.169 48.1449C20.8368 47.9842 20.5256 47.683 20.4002 47.1856L20.7363 47.1012L21.0724 47.0158C21.1417 47.2907 21.3003 47.4379 21.4707 47.5204C21.6548 47.6094 21.8545 47.6217 21.9588 47.6076C22.3239 47.558 22.5745 47.3463 22.7462 47.0907C22.8147 46.9885 22.8656 46.8823 22.9053 46.786C22.5895 46.7689 22.134 46.6956 21.7216 46.5144C21.2923 46.3257 20.8322 45.9846 20.7219 45.4024L20.7198 45.3915L20.7186 45.3806C20.6928 45.171 20.7237 44.8474 20.945 44.5912C21.1853 44.3132 21.5725 44.1999 22.0766 44.2832ZM21.949 44.9653C21.6114 44.9126 21.5032 45.0051 21.4694 45.0442C21.419 45.1026 21.3988 45.1994 21.4061 45.2834C21.4576 45.5317 21.6635 45.7314 22.0005 45.8795C22.3361 46.027 22.7287 46.0882 22.9815 46.0973L23.0019 46.0988C22.9634 45.7944 22.8296 45.5646 22.6634 45.3909C22.4352 45.1526 22.1423 45.0161 21.949 44.9653Z" fill="url(#paint4_linear_0_293)"/>
<path d="M22.0766 44.2832L22.1036 44.2891C22.4023 44.3635 22.8262 44.5582 23.1641 44.9111C23.5119 45.2745 23.7645 45.8032 23.6961 46.5053C23.6747 46.7234 23.5649 47.1156 23.3224 47.477C23.0743 47.8466 22.6664 48.2114 22.0512 48.2947C21.8258 48.3252 21.4875 48.2987 21.169 48.1449C20.8368 47.9842 20.5256 47.683 20.4002 47.1856L20.7363 47.1012L21.0724 47.0158C21.1417 47.2907 21.3003 47.4379 21.4707 47.5204C21.6548 47.6094 21.8545 47.6217 21.9588 47.6076C22.3239 47.558 22.5745 47.3463 22.7462 47.0907C22.8147 46.9885 22.8656 46.8823 22.9053 46.786C22.5895 46.7689 22.134 46.6956 21.7216 46.5144C21.2923 46.3257 20.8322 45.9846 20.7219 45.4024L20.7198 45.3915L20.7186 45.3806C20.6928 45.171 20.7237 44.8474 20.945 44.5912C21.1853 44.3132 21.5725 44.1999 22.0766 44.2832ZM21.949 44.9653C21.6114 44.9126 21.5032 45.0051 21.4694 45.0442C21.419 45.1026 21.3988 45.1994 21.4061 45.2834C21.4576 45.5317 21.6635 45.7314 22.0005 45.8795C22.3361 46.027 22.7287 46.0882 22.9815 46.0973L23.0019 46.0988C22.9634 45.7944 22.8296 45.5646 22.6634 45.3909C22.4352 45.1526 22.1423 45.0161 21.949 44.9653Z" fill="url(#paint5_linear_0_293)"/>
<path d="M22.0766 44.2832L22.1036 44.2891C22.4023 44.3635 22.8262 44.5582 23.1641 44.9111C23.5119 45.2745 23.7645 45.8032 23.6961 46.5053C23.6747 46.7234 23.5649 47.1156 23.3224 47.477C23.0743 47.8466 22.6664 48.2114 22.0512 48.2947C21.8258 48.3252 21.4875 48.2987 21.169 48.1449C20.8368 47.9842 20.5256 47.683 20.4002 47.1856L20.7363 47.1012L21.0724 47.0158C21.1417 47.2907 21.3003 47.4379 21.4707 47.5204C21.6548 47.6094 21.8545 47.6217 21.9588 47.6076C22.3239 47.558 22.5745 47.3463 22.7462 47.0907C22.8147 46.9885 22.8656 46.8823 22.9053 46.786C22.5895 46.7689 22.134 46.6956 21.7216 46.5144C21.2923 46.3257 20.8322 45.9846 20.7219 45.4024L20.7198 45.3915L20.7186 45.3806C20.6928 45.171 20.7237 44.8474 20.945 44.5912C21.1853 44.3132 21.5725 44.1999 22.0766 44.2832ZM21.949 44.9653C21.6114 44.9126 21.5032 45.0051 21.4694 45.0442C21.419 45.1026 21.3988 45.1994 21.4061 45.2834C21.4576 45.5317 21.6635 45.7314 22.0005 45.8795C22.3361 46.027 22.7287 46.0882 22.9815 46.0973L23.0019 46.0988C22.9634 45.7944 22.8296 45.5646 22.6634 45.3909C22.4352 45.1526 22.1423 45.0161 21.949 44.9653Z" fill="url(#paint6_linear_0_293)"/>
</g>
</g>
</g>
<g id="Group 2147225945">
<path id="Subtract_2" d="M24.4578 35.1114C24.9686 35.1015 25.3355 35.2693 25.5333 35.5788C25.7154 35.8641 25.6996 36.189 25.6439 36.3926L25.6412 36.4032L25.6375 36.4137C25.4447 36.9738 24.9403 37.2455 24.4884 37.3705C24.0671 37.4869 23.6201 37.4965 23.3062 37.4711C23.3196 37.5003 23.3341 37.5309 23.3517 37.5596C23.4336 37.6917 23.5694 37.8223 23.8066 37.8901L23.9145 37.9155L23.9232 37.9171C24.0885 37.9516 24.3557 37.9594 24.5929 37.8764C24.8133 37.799 25.006 37.6454 25.0923 37.3338L25.7603 37.5191C25.6043 38.0827 25.2225 38.39 24.8227 38.5304C24.4441 38.6632 24.0494 38.6483 23.7909 38.5959L23.7908 38.5968C23.7894 38.5965 23.7875 38.5958 23.786 38.5955C23.7849 38.5953 23.7833 38.5955 23.7821 38.5952L23.7822 38.5942C23.2804 38.5004 22.9528 38.2335 22.7614 37.9242C22.658 37.7569 22.5994 37.5798 22.5669 37.4187L22.3955 37.4063C22.4326 37.2791 22.4585 37.1664 22.4673 37.0766C22.4794 36.9516 22.4785 36.8318 22.4727 36.7167L22.5828 36.7246C22.6896 36.2071 22.9651 35.8313 23.2914 35.5764C23.6765 35.2758 24.124 35.1441 24.4302 35.1133L24.4578 35.1114ZM24.486 35.8047C24.2874 35.8272 23.978 35.9202 23.7179 36.1232C23.5285 36.2713 23.363 36.4795 23.2811 36.7751L23.3016 36.7766C23.553 36.8039 23.9503 36.7997 24.3037 36.7021C24.6569 36.6044 24.8889 36.4371 24.9764 36.2004C24.9966 36.1179 24.9902 36.0175 24.9483 35.9517C24.9202 35.9079 24.8265 35.8011 24.486 35.8047Z" fill="url(#paint7_linear_0_293)"/>
<g id="Union_2">
<path d="M20.6966 34.8377L20.7236 34.8436C21.0222 34.9179 21.446 35.1126 21.784 35.4655C22.1319 35.8289 22.3843 36.3577 22.316 37.0598C22.2947 37.2777 22.1847 37.6701 21.9423 38.0315C21.6942 38.4011 21.2864 38.7659 20.6711 38.8492C20.4456 38.8797 20.1076 38.8533 19.789 38.6993C19.4567 38.5386 19.1455 38.2376 19.0202 37.7401L19.3562 37.6557L19.6924 37.5703C19.7616 37.8453 19.9202 37.9924 20.0906 38.0749C20.2749 38.164 20.4744 38.1762 20.5788 38.1621C20.944 38.1125 21.1945 37.9008 21.3661 37.6452C21.4346 37.5431 21.4856 37.4366 21.5252 37.3404C21.2093 37.3234 20.7541 37.2502 20.3415 37.0689C19.9122 36.8802 19.4521 36.5392 19.3419 35.9569L19.3397 35.9459L19.3386 35.9351C19.3128 35.7255 19.3437 35.4017 19.565 35.1456C19.8053 34.8679 20.1925 34.7544 20.6966 34.8377ZM20.569 35.5197C20.232 35.4671 20.1234 35.5595 20.0894 35.5987C20.039 35.6569 20.0188 35.754 20.0261 35.8379C20.0774 36.0863 20.2833 36.2858 20.6204 36.434C20.9562 36.5816 21.3485 36.6427 21.6014 36.6518L21.6219 36.6532C21.5832 36.3489 21.4495 36.1191 21.2833 35.9454C21.055 35.707 20.7622 35.5705 20.569 35.5197Z" fill="url(#paint8_linear_0_293)"/>
<path d="M20.6966 34.8377L20.7236 34.8436C21.0222 34.9179 21.446 35.1126 21.784 35.4655C22.1319 35.8289 22.3843 36.3577 22.316 37.0598C22.2947 37.2777 22.1847 37.6701 21.9423 38.0315C21.6942 38.4011 21.2864 38.7659 20.6711 38.8492C20.4456 38.8797 20.1076 38.8533 19.789 38.6993C19.4567 38.5386 19.1455 38.2376 19.0202 37.7401L19.3562 37.6557L19.6924 37.5703C19.7616 37.8453 19.9202 37.9924 20.0906 38.0749C20.2749 38.164 20.4744 38.1762 20.5788 38.1621C20.944 38.1125 21.1945 37.9008 21.3661 37.6452C21.4346 37.5431 21.4856 37.4366 21.5252 37.3404C21.2093 37.3234 20.7541 37.2502 20.3415 37.0689C19.9122 36.8802 19.4521 36.5392 19.3419 35.9569L19.3397 35.9459L19.3386 35.9351C19.3128 35.7255 19.3437 35.4017 19.565 35.1456C19.8053 34.8679 20.1925 34.7544 20.6966 34.8377ZM20.569 35.5197C20.232 35.4671 20.1234 35.5595 20.0894 35.5987C20.039 35.6569 20.0188 35.754 20.0261 35.8379C20.0774 36.0863 20.2833 36.2858 20.6204 36.434C20.9562 36.5816 21.3485 36.6427 21.6014 36.6518L21.6219 36.6532C21.5832 36.3489 21.4495 36.1191 21.2833 35.9454C21.055 35.707 20.7622 35.5705 20.569 35.5197Z" fill="url(#paint9_linear_0_293)"/>
<path d="M20.6966 34.8377L20.7236 34.8436C21.0222 34.9179 21.446 35.1126 21.784 35.4655C22.1319 35.8289 22.3843 36.3577 22.316 37.0598C22.2947 37.2777 22.1847 37.6701 21.9423 38.0315C21.6942 38.4011 21.2864 38.7659 20.6711 38.8492C20.4456 38.8797 20.1076 38.8533 19.789 38.6993C19.4567 38.5386 19.1455 38.2376 19.0202 37.7401L19.3562 37.6557L19.6924 37.5703C19.7616 37.8453 19.9202 37.9924 20.0906 38.0749C20.2749 38.164 20.4744 38.1762 20.5788 38.1621C20.944 38.1125 21.1945 37.9008 21.3661 37.6452C21.4346 37.5431 21.4856 37.4366 21.5252 37.3404C21.2093 37.3234 20.7541 37.2502 20.3415 37.0689C19.9122 36.8802 19.4521 36.5392 19.3419 35.9569L19.3397 35.9459L19.3386 35.9351C19.3128 35.7255 19.3437 35.4017 19.565 35.1456C19.8053 34.8679 20.1925 34.7544 20.6966 34.8377ZM20.569 35.5197C20.232 35.4671 20.1234 35.5595 20.0894 35.5987C20.039 35.6569 20.0188 35.754 20.0261 35.8379C20.0774 36.0863 20.2833 36.2858 20.6204 36.434C20.9562 36.5816 21.3485 36.6427 21.6014 36.6518L21.6219 36.6532C21.5832 36.3489 21.4495 36.1191 21.2833 35.9454C21.055 35.707 20.7622 35.5705 20.569 35.5197Z" fill="url(#paint10_linear_0_293)"/>
<path d="M20.6966 34.8377L20.7236 34.8436C21.0222 34.9179 21.446 35.1126 21.784 35.4655C22.1319 35.8289 22.3843 36.3577 22.316 37.0598C22.2947 37.2777 22.1847 37.6701 21.9423 38.0315C21.6942 38.4011 21.2864 38.7659 20.6711 38.8492C20.4456 38.8797 20.1076 38.8533 19.789 38.6993C19.4567 38.5386 19.1455 38.2376 19.0202 37.7401L19.3562 37.6557L19.6924 37.5703C19.7616 37.8453 19.9202 37.9924 20.0906 38.0749C20.2749 38.164 20.4744 38.1762 20.5788 38.1621C20.944 38.1125 21.1945 37.9008 21.3661 37.6452C21.4346 37.5431 21.4856 37.4366 21.5252 37.3404C21.2093 37.3234 20.7541 37.2502 20.3415 37.0689C19.9122 36.8802 19.4521 36.5392 19.3419 35.9569L19.3397 35.9459L19.3386 35.9351C19.3128 35.7255 19.3437 35.4017 19.565 35.1456C19.8053 34.8679 20.1925 34.7544 20.6966 34.8377ZM20.569 35.5197C20.232 35.4671 20.1234 35.5595 20.0894 35.5987C20.039 35.6569 20.0188 35.754 20.0261 35.8379C20.0774 36.0863 20.2833 36.2858 20.6204 36.434C20.9562 36.5816 21.3485 36.6427 21.6014 36.6518L21.6219 36.6532C21.5832 36.3489 21.4495 36.1191 21.2833 35.9454C21.055 35.707 20.7622 35.5705 20.569 35.5197Z" fill="url(#paint11_linear_0_293)"/>
</g>
</g>
<path id="Union_3" d="M25.9277 6.6882C40.2472 6.6882 51.8553 15.0844 51.8555 25.4421C51.8555 30.7334 50.1314 35.6378 45.2588 39.0476C40.5931 42.3124 32.932 44.197 25.9277 44.197C18.7553 44.197 11.1178 42.4521 6.42383 39.0476C1.74666 35.6551 0 30.6117 0 25.4421C0.000140713 15.0845 11.6083 6.68829 25.9277 6.6882Z" fill="var(--fill-0, black)"/>
<path id="Ellipse 8811" d="M51.8558 25.4445C51.8558 30.7358 50.1315 35.6404 45.2587 39.0502C40.593 42.315 32.9322 44.1989 25.9279 44.1989C18.7554 44.1989 11.1178 42.4547 6.42379 39.0502C1.74645 35.6578 0 30.6142 0 25.4445C0 15.0867 11.6083 6.69006 25.9279 6.69006C40.2475 6.69006 51.8558 15.0867 51.8558 25.4445Z" fill="var(--fill-0, black)"/>
<path id="Ellipse 8812" d="M25.9277 6.80139C33.0666 6.80139 39.5252 8.89443 44.1963 12.2731C48.8675 15.6519 51.7451 20.3106 51.7451 25.4449C51.745 30.71 50.0308 35.576 45.1953 38.9596C40.5542 42.2072 32.9177 44.0875 25.9277 44.0875C18.7677 44.0875 11.1569 42.3458 6.48926 38.9606C1.84833 35.5945 0.111435 30.5892 0.111328 25.4449C0.111328 20.3106 2.98796 15.6519 7.65918 12.2731C12.3302 8.89436 18.7888 6.80142 25.9277 6.80139Z" fill="url(#paint12_radial_0_293)" stroke="url(#paint13_linear_0_293)" stroke-width="0.22225"/>
<g id="Union_4">
<mask id="path-9-inside-1_0_293" fill="white">
<path d="M43.1321 0.265625C43.8775 -0.252834 44.905 0.0145786 45.2815 0.84082C46.1578 2.766 47.623 6.16097 48.5442 9.2373C49.5925 12.7383 50.3798 16.6809 50.8039 19.0225C50.8539 19.2982 50.7743 19.5417 50.6252 19.7227C51.4234 21.5266 51.8557 23.4487 51.8557 25.4443C51.8557 30.7356 50.1316 35.6401 45.259 39.0498C40.5934 42.3146 32.9323 44.1992 25.928 44.1992C18.7555 44.1992 11.118 42.4543 6.42406 39.0498C1.74678 35.6574 0.000234052 30.614 0.000234052 25.4443C0.000253123 23.4485 0.432283 21.5259 1.2307 19.7217C1.08262 19.5409 1.00515 19.2972 1.05492 19.0225C1.47907 16.681 2.26546 12.7382 3.31371 9.2373C4.23484 6.16097 5.70004 2.766 6.57641 0.84082C6.95276 0.0143988 7.98125 -0.252882 8.7268 0.265625L18.9524 7.37695C21.1719 6.92956 23.5113 6.69043 25.928 6.69043C28.345 6.69043 30.6848 6.92945 32.9045 7.37695L43.1321 0.265625Z"/>
</mask>
<path d="M43.1321 0.265625C43.8775 -0.252834 44.905 0.0145786 45.2815 0.84082C46.1578 2.766 47.623 6.16097 48.5442 9.2373C49.5925 12.7383 50.3798 16.6809 50.8039 19.0225C50.8539 19.2982 50.7743 19.5417 50.6252 19.7227C51.4234 21.5266 51.8557 23.4487 51.8557 25.4443C51.8557 30.7356 50.1316 35.6401 45.259 39.0498C40.5934 42.3146 32.9323 44.1992 25.928 44.1992C18.7555 44.1992 11.118 42.4543 6.42406 39.0498C1.74678 35.6574 0.000234052 30.614 0.000234052 25.4443C0.000253123 23.4485 0.432283 21.5259 1.2307 19.7217C1.08262 19.5409 1.00515 19.2972 1.05492 19.0225C1.47907 16.681 2.26546 12.7382 3.31371 9.2373C4.23484 6.16097 5.70004 2.766 6.57641 0.84082C6.95276 0.0143988 7.98125 -0.252882 8.7268 0.265625L18.9524 7.37695C21.1719 6.92956 23.5113 6.69043 25.928 6.69043C28.345 6.69043 30.6848 6.92945 32.9045 7.37695L43.1321 0.265625Z" fill="url(#paint14_radial_0_293)"/>
<path d="M43.1321 0.265625L43.2589 0.448101L43.259 0.448087L43.1321 0.265625ZM45.2815 0.84082L45.4838 0.748741L45.4837 0.748675L45.2815 0.84082ZM48.5442 9.2373L48.7571 9.17355V9.17355L48.5442 9.2373ZM50.8039 19.0225L51.0226 18.9828L50.8039 19.0225ZM50.6252 19.7227L50.4537 19.5813L50.3665 19.6872L50.422 19.8126L50.6252 19.7227ZM51.8557 25.4443H52.078V25.4443L51.8557 25.4443ZM45.259 39.0498L45.3864 39.2319H45.3864L45.259 39.0498ZM25.928 44.1992V44.4215V44.4215V44.1992ZM6.42406 39.0498L6.29357 39.2297L6.29357 39.2297L6.42406 39.0498ZM0.000234052 25.4443L-0.222016 25.4443V25.4443H0.000234052ZM1.2307 19.7217L1.43394 19.8116L1.48927 19.6866L1.40264 19.5808L1.2307 19.7217ZM1.05492 19.0225L0.83623 18.9828H0.83623L1.05492 19.0225ZM3.31371 9.2373L3.1008 9.17355V9.17355L3.31371 9.2373ZM6.57641 0.84082L6.37414 0.748709L6.37413 0.748741L6.57641 0.84082ZM8.7268 0.265625L8.5999 0.448087L8.5999 0.448089L8.7268 0.265625ZM18.9524 7.37695L18.8255 7.55942L18.9033 7.61356L18.9963 7.59482L18.9524 7.37695ZM25.928 6.69043V6.46818V6.46818V6.69043ZM32.9045 7.37695L32.8606 7.59482L32.9536 7.61356L33.0314 7.55943L32.9045 7.37695ZM43.1321 0.265625L43.259 0.448087C43.8938 0.0065514 44.7619 0.236519 45.0792 0.932965L45.2815 0.84082L45.4837 0.748675C45.0482 -0.207362 43.8613 -0.512218 43.0052 0.083163L43.1321 0.265625ZM45.2815 0.84082L45.0792 0.9329C45.9546 2.85589 47.4146 6.2397 48.3313 9.30106L48.5442 9.2373L48.7571 9.17355C47.8315 6.08224 46.3611 2.6761 45.4838 0.748741L45.2815 0.84082ZM48.5442 9.2373L48.3313 9.30106C49.376 12.7901 50.1616 16.7231 50.5853 19.0621L50.8039 19.0225L51.0226 18.9828C50.598 16.6388 49.809 12.6865 48.7571 9.17355L48.5442 9.2373ZM50.8039 19.0225L50.5853 19.0621C50.6228 19.2696 50.5638 19.4477 50.4537 19.5813L50.6252 19.7227L50.7968 19.864C50.9848 19.6357 51.0849 19.3267 51.0226 18.9828L50.8039 19.0225ZM50.6252 19.7227L50.422 19.8126C51.2084 21.5899 51.6334 23.4815 51.6335 25.4443L51.8557 25.4443L52.078 25.4443C52.0779 23.416 51.6385 21.4634 50.8285 19.6327L50.6252 19.7227ZM51.8557 25.4443H51.6335C51.6335 30.6834 49.9298 35.51 45.1316 38.8677L45.259 39.0498L45.3864 39.2319C50.3334 35.7702 52.078 30.7878 52.078 25.4443H51.8557ZM45.259 39.0498L45.1316 38.8677C40.5151 42.0981 32.9036 43.977 25.928 43.977V44.1992V44.4215C32.961 44.4215 40.6716 42.5311 45.3864 39.2319L45.259 39.0498ZM25.928 44.1992V43.977C18.7801 43.977 11.1958 42.2362 6.55455 38.8699L6.42406 39.0498L6.29357 39.2297C11.0402 42.6724 18.7309 44.4215 25.928 44.4215V44.1992ZM6.42406 39.0498L6.55455 38.8699C1.94981 35.5301 0.222485 30.5634 0.222485 25.4443H0.000234052H-0.222016C-0.222016 30.6646 1.54376 35.7847 6.29357 39.2297L6.42406 39.0498ZM0.000234052 25.4443L0.222485 25.4443C0.222503 23.4812 0.647337 21.5891 1.43394 19.8116L1.2307 19.7217L1.02746 19.6317C0.21723 21.4626 -0.221997 23.4157 -0.222016 25.4443L0.000234052 25.4443ZM1.2307 19.7217L1.40264 19.5808C1.29398 19.4482 1.23596 19.2699 1.27361 19.0621L1.05492 19.0225L0.83623 18.9828C0.774337 19.3245 0.87126 19.6336 1.05877 19.8625L1.2307 19.7217ZM1.05492 19.0225L1.27361 19.0621C1.69731 16.7231 2.48196 12.79 3.52662 9.30105L3.31371 9.2373L3.1008 9.17355C2.04896 12.6865 1.26083 16.6388 0.83623 18.9828L1.05492 19.0225ZM3.31371 9.2373L3.52662 9.30106C4.44327 6.2397 5.90331 2.8559 6.77868 0.9329L6.57641 0.84082L6.37413 0.748741C5.49677 2.67611 4.02642 6.08224 3.1008 9.17355L3.31371 9.2373ZM6.57641 0.84082L6.77867 0.932931C7.09585 0.236445 7.96487 0.00643832 8.5999 0.448087L8.7268 0.265625L8.85369 0.083163C7.99764 -0.512201 6.80967 -0.207647 6.37414 0.748709L6.57641 0.84082ZM8.7268 0.265625L8.5999 0.448089L18.8255 7.55942L18.9524 7.37695L19.0793 7.19449L8.85369 0.0831607L8.7268 0.265625ZM18.9524 7.37695L18.9963 7.59482C21.2012 7.15037 23.5259 6.91268 25.928 6.91268V6.69043V6.46818C23.4966 6.46818 21.1425 6.70876 18.9085 7.15908L18.9524 7.37695ZM25.928 6.69043V6.91268C28.3304 6.91268 30.6554 7.15026 32.8606 7.59482L32.9045 7.37695L32.9485 7.15909C30.7141 6.70864 28.3596 6.46818 25.928 6.46818V6.69043ZM32.9045 7.37695L33.0314 7.55943L43.2589 0.448101L43.1321 0.265625L43.0052 0.0831493L32.7777 7.19448L32.9045 7.37695Z" fill="url(#paint15_linear_0_293)" mask="url(#path-9-inside-1_0_293)"/>
</g>
<path id="Subtract_3" d="M42.6783 3.13596C43.4077 2.48199 44.5529 2.70573 44.9556 3.59885C45.7317 5.32017 46.8815 8.04388 47.6197 10.5822C48.3815 13.2024 48.9767 16.1411 49.3628 18.2805C46.7259 14.1127 42.0406 10.7647 36.2378 8.91135L42.6783 3.13596Z" fill="url(#paint16_linear_0_293)"/>
<path id="Subtract_4" d="M9.51875 2.78765C8.78931 2.13353 7.64412 2.35736 7.2414 3.25054C6.46532 4.9718 5.31548 7.69469 4.57734 10.233C3.81551 12.8528 3.22135 15.7918 2.83515 17.9312C5.47225 13.7639 10.1569 10.4162 15.9592 8.56304L9.51875 2.78765Z" fill="url(#paint17_linear_0_293)"/>
<g id="Group 2147225947">
<ellipse id="Ellipse 8807" cx="9.02336" cy="10.668" rx="9.02336" ry="10.668" transform="matrix(1 0 0 -1 3.7954 36.9958)" fill="url(#paint18_linear_0_293)"/>
<g id="Ellipse 8811_2">
<ellipse cx="12.8476" cy="26.2953" rx="9.02336" ry="10.668" fill="url(#paint19_linear_0_293)" fill-opacity="0.2"/>
<path d="M21.9633 26.2953C21.9018 26.2953 21.8402 26.2953 21.7786 26.2953C21.7705 27.3224 21.6391 28.3449 21.3813 29.3352C20.4253 33.265 17.0191 36.8531 12.8476 36.8094C12.8476 36.8094 12.8476 36.8094 12.8476 36.8094C7.54474 36.8374 3.81645 31.3519 3.9012 26.2953C3.73208 21.2512 7.41555 15.6089 12.8476 15.6273C12.8476 15.6273 12.8476 15.6273 12.8476 15.6273C17.1132 15.5838 20.5433 19.2809 21.435 23.2418C21.6781 24.2407 21.791 25.2682 21.7786 26.2953C21.8402 26.2953 21.9018 26.2953 21.9633 26.2953C21.9511 25.2534 21.8142 24.2166 21.5495 23.2127C20.5676 19.2318 17.1076 15.5851 12.8476 15.6273C12.8476 15.6273 12.8476 15.6273 12.8476 15.6273C7.42997 15.6045 3.66154 21.1816 3.7473 26.2953C3.57716 31.3964 7.30079 37.1304 12.8476 37.1172C12.8476 37.1172 12.8476 37.1172 12.8476 37.1172C17.2017 37.1591 20.6856 33.4036 21.6032 29.3915C21.8532 28.379 21.9716 27.3372 21.9633 26.2953ZM21.7786 26.2953H21.9633H21.7786Z" fill="url(#paint20_linear_0_293)"/>
</g>
<g id="Group 2147225930">
<ellipse id="Ellipse 8809" cx="7.90981" cy="9.35151" rx="7.90981" ry="9.35151" transform="matrix(1 0 0 -1 4.22374 35.7541)" fill="url(#paint21_linear_0_293)"/>
<g id="Star 48" filter="url(#filter1_f_0_293)">
<path d="M9.46984 30.3435L9.80892 31.2599L10.7253 31.599L9.80892 31.9381L9.46984 32.8544L9.13075 31.9381L8.21439 31.599L9.13075 31.2599L9.46984 30.3435Z" fill="var(--fill-0, #FFE3ED)" fill-opacity="0.5"/>
</g>
<g id="Star 49" filter="url(#filter2_f_0_293)">
<path d="M8.04292 29.519L8.2215 30.0016L8.7041 30.1802L8.2215 30.3588L8.04292 30.8414L7.86434 30.3588L7.38174 30.1802L7.86434 30.0016L8.04292 29.519Z" fill="var(--fill-0, #FFE3ED)" fill-opacity="0.5"/>
</g>
</g>
<g id="Group 2147225932">
<g id="Ellipse 8819" filter="url(#filter3_f_0_293)">
<ellipse cx="14.2619" cy="23.7246" rx="3.09981" ry="4.14936" transform="rotate(13.3782 14.2619 23.7246)" fill="var(--fill-0, #FE71A5)"/>
</g>
<ellipse id="Ellipse 8825" cx="14.2747" cy="23.6719" rx="3.04723" ry="4.07898" transform="rotate(13.3782 14.2747 23.6719)" fill="var(--fill-0, white)"/>
</g>
<g id="Group 2147225934">
<g id="Ellipse 8819_2" filter="url(#filter4_f_0_293)">
<ellipse cx="9.18418" cy="27.6142" rx="1.20149" ry="1.60829" transform="rotate(13.3782 9.18418 27.6142)" fill="var(--fill-0, #FE71A5)"/>
</g>
<ellipse id="Ellipse 8825_2" cx="9.18904" cy="27.5941" rx="1.18111" ry="1.58102" transform="rotate(13.3782 9.18904 27.5941)" fill="var(--fill-0, white)"/>
</g>
</g>
<g id="Group 2147225952">
<ellipse id="Ellipse 8807_2" cx="9.02336" cy="10.668" rx="9.02336" ry="10.668" transform="matrix(1 0 0 -1 24.7246 37.4032)" fill="url(#paint22_linear_0_293)"/>
<g id="Ellipse 8811_3">
<ellipse cx="33.7394" cy="26.741" rx="9.02336" ry="10.668" fill="url(#paint23_linear_0_293)" fill-opacity="0.2"/>
<path d="M42.8551 26.741C42.7935 26.741 42.732 26.741 42.6704 26.741C42.6623 27.768 42.5309 28.7906 42.273 29.7809C41.3171 33.7106 37.9108 37.2988 33.7394 37.2551C33.7394 37.2551 33.7394 37.2551 33.7394 37.2551C28.4365 37.2831 24.7082 31.7976 24.793 26.741C24.6238 21.6969 28.3073 16.0546 33.7394 16.073C33.7394 16.073 33.7394 16.073 33.7394 16.073C38.005 16.0295 41.435 19.7266 42.3267 23.6874C42.5699 24.6864 42.6828 25.7139 42.6704 26.741C42.732 26.741 42.7935 26.741 42.8551 26.741C42.8428 25.6991 42.706 24.6623 42.4413 23.6584C41.4594 19.6774 37.9994 16.0308 33.7394 16.073C33.7394 16.073 33.7394 16.073 33.7394 16.073C28.3217 16.0501 24.5533 21.6273 24.6391 26.741C24.4689 31.8421 28.1926 37.5761 33.7394 37.5629C33.7394 37.5629 33.7394 37.5629 33.7394 37.5629C38.0935 37.6048 41.5774 33.8492 42.495 29.8372C42.745 28.8247 42.8634 27.7829 42.8551 26.741ZM42.6704 26.741H42.8551H42.6704Z" fill="url(#paint24_linear_0_293)"/>
</g>
<g id="Group 2147225930_2">
<ellipse id="Ellipse 8809_2" cx="7.90981" cy="9.35151" rx="7.90981" ry="9.35151" transform="matrix(1 0 0 -1 25.1532 36.1608)" fill="url(#paint25_linear_0_293)"/>
<g id="Star 48_2" filter="url(#filter6_f_0_293)">
<path d="M30.3993 30.7485L30.7384 31.6648L31.6548 32.0039L30.7384 32.343L30.3993 33.2593L30.0602 32.343L29.1439 32.0039L30.0602 31.6648L30.3993 30.7485Z" fill="var(--fill-0, #FFE3ED)" fill-opacity="0.5"/>
</g>
<g id="Star 49_2" filter="url(#filter7_f_0_293)">
<path d="M28.9722 29.9258L29.1508 30.4084L29.6334 30.587L29.1508 30.7656L28.9722 31.2482L28.7936 30.7656L28.311 30.587L28.7936 30.4084L28.9722 29.9258Z" fill="var(--fill-0, #FFE3ED)" fill-opacity="0.5"/>
</g>
</g>
<g id="Group 2147225932_2">
<g id="Ellipse 8819_3" filter="url(#filter8_f_0_293)">
<ellipse cx="35.1914" cy="24.1314" rx="3.09981" ry="4.14936" transform="rotate(13.3782 35.1914 24.1314)" fill="var(--fill-0, #FE71A5)"/>
</g>
<ellipse id="Ellipse 8825_3" cx="35.2042" cy="24.0787" rx="3.04723" ry="4.07898" transform="rotate(13.3782 35.2042 24.0787)" fill="var(--fill-0, white)"/>
</g>
<g id="Group 2147225934_2">
<g id="Ellipse 8819_4" filter="url(#filter9_f_0_293)">
<ellipse cx="30.1137" cy="28.021" rx="1.20149" ry="1.60829" transform="rotate(13.3782 30.1137 28.021)" fill="var(--fill-0, #FE71A5)"/>
</g>
<ellipse id="Ellipse 8825_4" cx="30.1185" cy="28.0009" rx="1.18111" ry="1.58102" transform="rotate(13.3782 30.1185 28.0009)" fill="var(--fill-0, white)"/>
</g>
</g>
<g id="Group 2147225950">
<g id="Vector 19286">
<path d="M34.2909 37.1198L33.7482 39.6781" stroke="var(--stroke-0, #FE71A5)" stroke-width="0.378894" stroke-linecap="round"/>
<path d="M34.2909 37.1198L33.7482 39.6781" stroke="url(#paint26_linear_0_293)" stroke-width="0.378894" stroke-linecap="round"/>
</g>
<g id="Vector 19287">
<path d="M35.7117 37.1198L35.5093 39.3118" stroke="var(--stroke-0, #FE71A5)" stroke-width="0.378894" stroke-linecap="round"/>
<path d="M35.7117 37.1198L35.5093 39.3118" stroke="url(#paint27_linear_0_293)" stroke-width="0.378894" stroke-linecap="round"/>
</g>
<g id="Vector 19288">
<path d="M37.0197 37.1139L37.0157 39.0434" stroke="var(--stroke-0, #FE71A5)" stroke-width="0.378894" stroke-linecap="round"/>
<path d="M37.0197 37.1139L37.0157 39.0434" stroke="url(#paint28_linear_0_293)" stroke-width="0.378894" stroke-linecap="round"/>
</g>
</g>
<g id="Group 2147225953">
<g id="Vector 19286_2">
<path d="M10.4342 36.4728L10.9769 39.0311" stroke="var(--stroke-0, #FE71A5)" stroke-width="0.378894" stroke-linecap="round"/>
<path d="M10.4342 36.4728L10.9769 39.0311" stroke="url(#paint29_linear_0_293)" stroke-width="0.378894" stroke-linecap="round"/>
</g>
<g id="Vector 19287_2">
<path d="M9.0134 36.4728L9.21576 38.6649" stroke="var(--stroke-0, #FE71A5)" stroke-width="0.378894" stroke-linecap="round"/>
<path d="M9.0134 36.4728L9.21576 38.6649" stroke="url(#paint30_linear_0_293)" stroke-width="0.378894" stroke-linecap="round"/>
</g>
<g id="Vector 19288_2">
<path d="M7.70535 36.4669L7.7094 38.3964" stroke="var(--stroke-0, #FE71A5)" stroke-width="0.378894" stroke-linecap="round"/>
<path d="M7.70535 36.4669L7.7094 38.3964" stroke="url(#paint31_linear_0_293)" stroke-width="0.378894" stroke-linecap="round"/>
</g>
</g>
<g id="Group 2147225955">
<path id="Subtract_5" d="M48.9307 39.0396C49.4595 38.991 49.8519 39.1369 50.0801 39.4429C50.2903 39.725 50.2983 40.0625 50.2559 40.2779L50.2539 40.2896L50.251 40.3004C50.0932 40.8955 49.5909 41.214 49.1319 41.3775C48.6726 41.541 48.174 41.5812 47.8448 41.5709V41.5718H46.9678C46.9967 41.4378 47.0113 41.3188 47.0137 41.2252C47.017 41.095 47.0098 40.9707 46.9952 40.8521H47.1075C47.1794 40.3071 47.4373 39.8968 47.7569 39.608C48.1337 39.2675 48.5872 39.0982 48.9024 39.0435L48.916 39.0406L48.9307 39.0396ZM49.0127 39.7554C48.8086 39.7934 48.4951 39.9129 48.2403 40.1431C48.0546 40.311 47.8967 40.5388 47.834 40.8521H47.8575C48.1202 40.8616 48.5307 40.8266 48.8897 40.6988C49.2504 40.5704 49.479 40.3794 49.5508 40.1255C49.5646 40.0393 49.5506 39.9378 49.503 39.8736C49.471 39.8307 49.3662 39.7263 49.0127 39.7554Z" fill="url(#paint32_linear_0_293)"/>
<g id="Union_5">
<path d="M45.012 39.0395L45.0257 39.0404L45.0403 39.0434C45.3554 39.0981 45.8082 39.2676 46.1848 39.6078C46.5728 39.9585 46.875 40.488 46.8567 41.2211L46.8479 41.5717H46.0979V41.5707C45.7687 41.5811 45.2703 41.5409 44.8108 41.3774C44.3517 41.2139 43.8495 40.8955 43.6917 40.3002L43.6887 40.2895L43.6858 40.2778C43.6434 40.0624 43.6515 39.7249 43.8616 39.4428C44.0898 39.1366 44.483 38.9908 45.012 39.0395ZM44.9309 39.7553C44.5764 39.7258 44.4718 39.8305 44.4397 39.8735C44.3919 39.9376 44.3781 40.039 44.3919 40.1254C44.4636 40.3791 44.6916 40.5703 45.052 40.6987C45.4111 40.8264 45.8225 40.8615 46.0852 40.852H46.1077C46.045 40.5389 45.888 40.3108 45.7024 40.143C45.4482 39.9132 45.1351 39.7936 44.9309 39.7553Z" fill="url(#paint33_linear_0_293)"/>
<path d="M45.012 39.0395L45.0257 39.0404L45.0403 39.0434C45.3554 39.0981 45.8082 39.2676 46.1848 39.6078C46.5728 39.9585 46.875 40.488 46.8567 41.2211L46.8479 41.5717H46.0979V41.5707C45.7687 41.5811 45.2703 41.5409 44.8108 41.3774C44.3517 41.2139 43.8495 40.8955 43.6917 40.3002L43.6887 40.2895L43.6858 40.2778C43.6434 40.0624 43.6515 39.7249 43.8616 39.4428C44.0898 39.1366 44.483 38.9908 45.012 39.0395ZM44.9309 39.7553C44.5764 39.7258 44.4718 39.8305 44.4397 39.8735C44.3919 39.9376 44.3781 40.039 44.3919 40.1254C44.4636 40.3791 44.6916 40.5703 45.052 40.6987C45.4111 40.8264 45.8225 40.8615 46.0852 40.852H46.1077C46.045 40.5389 45.888 40.3108 45.7024 40.143C45.4482 39.9132 45.1351 39.7936 44.9309 39.7553Z" fill="url(#paint34_linear_0_293)"/>
</g>
<path id="Union_6" d="M52.4986 41.5738C52.5726 41.574 52.6323 41.6345 52.6324 41.7085V43.3218C52.6324 43.396 52.5727 43.4564 52.4986 43.4566H51.8169V49.0933C51.8169 49.1676 51.7564 49.2281 51.6822 49.2281H42.0386C41.9644 49.228 41.9038 49.1675 41.9038 49.0933V43.4566H41.1607C41.0864 43.4566 41.0259 43.3961 41.0259 43.3218V41.7085C41.026 41.6344 41.0865 41.5738 41.1607 41.5738H52.4986Z" fill="var(--fill-0, #FE71A5)"/>
<rect id="Rectangle 1954137241" x="47.5736" y="41.5748" width="1.8938" height="1.20518" transform="rotate(90 47.5736 41.5748)" fill="url(#paint35_linear_0_293)"/>
<rect id="Rectangle 1954137250" x="47.4433" y="43.4676" width="5.7603" height="0.944907" transform="rotate(90 47.4433 43.4676)" fill="url(#paint36_linear_0_293)"/>
<rect id="Rectangle 1954137263" x="41.8939" y="43.4564" width="9.91764" height="0.787677" fill="var(--fill-0, #191919)" fill-opacity="0.1"/>
</g>
</g>
<defs>
<filter id="filter1_f_0_293" x="7.96815" y="30.0973" width="3.00336" height="3.00336" filterUnits="userSpaceOnUse" color-interpolation-filters="sRGB">
<feFlood flood-opacity="0" result="BackgroundImageFix"/>
<feBlend mode="normal" in="SourceGraphic" in2="BackgroundImageFix" result="shape"/>
<feGaussianBlur stdDeviation="0.12312" result="effect1_foregroundBlur_0_293"/>
</filter>
<filter id="filter2_f_0_293" x="7.1355" y="29.2728" width="1.81484" height="1.81484" filterUnits="userSpaceOnUse" color-interpolation-filters="sRGB">
<feFlood flood-opacity="0" result="BackgroundImageFix"/>
<feBlend mode="normal" in="SourceGraphic" in2="BackgroundImageFix" result="shape"/>
<feGaussianBlur stdDeviation="0.12312" result="effect1_foregroundBlur_0_293"/>
</filter>
<filter id="filter3_f_0_293" x="10.3436" y="18.8713" width="7.83656" height="9.70656" filterUnits="userSpaceOnUse" color-interpolation-filters="sRGB">
<feFlood flood-opacity="0" result="BackgroundImageFix"/>
<feBlend mode="normal" in="SourceGraphic" in2="BackgroundImageFix" result="shape"/>
<feGaussianBlur stdDeviation="0.376304" result="effect1_foregroundBlur_0_293"/>
</filter>
<filter id="filter4_f_0_293" x="7.20455" y="25.2722" width="3.95925" height="4.68406" filterUnits="userSpaceOnUse" color-interpolation-filters="sRGB">
<feFlood flood-opacity="0" result="BackgroundImageFix"/>
<feBlend mode="normal" in="SourceGraphic" in2="BackgroundImageFix" result="shape"/>
<feGaussianBlur stdDeviation="0.376304" result="effect1_foregroundBlur_0_293"/>
</filter>
<filter id="filter6_f_0_293" x="28.8976" y="30.5022" width="3.00336" height="3.00336" filterUnits="userSpaceOnUse" color-interpolation-filters="sRGB">
<feFlood flood-opacity="0" result="BackgroundImageFix"/>
<feBlend mode="normal" in="SourceGraphic" in2="BackgroundImageFix" result="shape"/>
<feGaussianBlur stdDeviation="0.12312" result="effect1_foregroundBlur_0_293"/>
</filter>
<filter id="filter7_f_0_293" x="28.0648" y="29.6796" width="1.81484" height="1.81484" filterUnits="userSpaceOnUse" color-interpolation-filters="sRGB">
<feFlood flood-opacity="0" result="BackgroundImageFix"/>
<feBlend mode="normal" in="SourceGraphic" in2="BackgroundImageFix" result="shape"/>
<feGaussianBlur stdDeviation="0.12312" result="effect1_foregroundBlur_0_293"/>
</filter>
<filter id="filter8_f_0_293" x="31.2731" y="19.2781" width="7.83656" height="9.70656" filterUnits="userSpaceOnUse" color-interpolation-filters="sRGB">
<feFlood flood-opacity="0" result="BackgroundImageFix"/>
<feBlend mode="normal" in="SourceGraphic" in2="BackgroundImageFix" result="shape"/>
<feGaussianBlur stdDeviation="0.376304" result="effect1_foregroundBlur_0_293"/>
</filter>
<filter id="filter9_f_0_293" x="28.134" y="25.679" width="3.95925" height="4.68406" filterUnits="userSpaceOnUse" color-interpolation-filters="sRGB">
<feFlood flood-opacity="0" result="BackgroundImageFix"/>
<feBlend mode="normal" in="SourceGraphic" in2="BackgroundImageFix" result="shape"/>
<feGaussianBlur stdDeviation="0.376304" result="effect1_foregroundBlur_0_293"/>
</filter>
<linearGradient id="paint0_linear_0_293" x1="24.1237" y1="50.8947" x2="24.7985" y2="78.0446" gradientUnits="userSpaceOnUse">
<stop/>
<stop offset="1" stop-color="#FBFCEE"/>
</linearGradient>
<linearGradient id="paint1_linear_0_293" x1="24.1237" y1="50.8947" x2="24.7985" y2="78.0446" gradientUnits="userSpaceOnUse">
<stop/>
<stop offset="1" stop-color="#FBFCEE"/>
</linearGradient>
<linearGradient id="paint2_linear_0_293" x1="25.63" y1="44.5315" x2="25.1669" y2="50.9401" gradientUnits="userSpaceOnUse">
<stop stop-color="#FE71A5"/>
<stop offset="1" stop-color="#FBFCEE"/>
</linearGradient>
<linearGradient id="paint3_linear_0_293" x1="22.2335" y1="44.2857" x2="21.9424" y2="48.3147" gradientUnits="userSpaceOnUse">
<stop stop-color="#FE8DB7"/>
<stop offset="1" stop-color="#FE8DB7"/>
</linearGradient>
<linearGradient id="paint4_linear_0_293" x1="22.2335" y1="44.2857" x2="21.9424" y2="48.3147" gradientUnits="userSpaceOnUse">
<stop stop-color="#FE71A5"/>
<stop offset="1" stop-color="#FBFCEE"/>
</linearGradient>
<linearGradient id="paint5_linear_0_293" x1="22.2335" y1="44.2857" x2="21.7944" y2="50.3636" gradientUnits="userSpaceOnUse">
<stop stop-color="#FE71A5"/>
<stop offset="1" stop-color="#FBFCEE"/>
</linearGradient>
<linearGradient id="paint6_linear_0_293" x1="22.2335" y1="44.2857" x2="21.7062" y2="51.5838" gradientUnits="userSpaceOnUse">
<stop stop-color="#FE71A5"/>
<stop offset="1" stop-color="#FBFCEE"/>
</linearGradient>
<linearGradient id="paint7_linear_0_293" x1="24.2495" y1="35.0876" x2="23.7865" y2="41.4963" gradientUnits="userSpaceOnUse">
<stop stop-color="#FE71A5"/>
<stop offset="1" stop-color="#FBFCEE"/>
</linearGradient>
<linearGradient id="paint8_linear_0_293" x1="20.8534" y1="34.8402" x2="20.5623" y2="38.8692" gradientUnits="userSpaceOnUse">
<stop stop-color="#FE8DB7"/>
<stop offset="1" stop-color="#FE8DB7"/>
</linearGradient>
<linearGradient id="paint9_linear_0_293" x1="20.8534" y1="34.8402" x2="20.5623" y2="38.8692" gradientUnits="userSpaceOnUse">
<stop stop-color="#FE71A5"/>
<stop offset="1" stop-color="#FBFCEE"/>
</linearGradient>
<linearGradient id="paint10_linear_0_293" x1="20.8534" y1="34.8402" x2="20.4143" y2="40.9181" gradientUnits="userSpaceOnUse">
<stop stop-color="#FE71A5"/>
<stop offset="1" stop-color="#FBFCEE"/>
</linearGradient>
<linearGradient id="paint11_linear_0_293" x1="20.8534" y1="34.8402" x2="20.3261" y2="42.1383" gradientUnits="userSpaceOnUse">
<stop stop-color="#FE71A5"/>
<stop offset="1" stop-color="#FBFCEE"/>
</linearGradient>
<radialGradient id="paint12_radial_0_293" cx="0" cy="0" r="1" gradientUnits="userSpaceOnUse" gradientTransform="translate(25.9279 6.69006) rotate(90) scale(41.1752 40.1672)">
<stop/>
<stop offset="0.817936"/>
<stop offset="1" stop-color="#FBFCEE"/>
</radialGradient>
<linearGradient id="paint13_linear_0_293" x1="25.9279" y1="6.69006" x2="25.9279" y2="44.1989" gradientUnits="userSpaceOnUse">
<stop/>
<stop offset="1" stop-color="#FBFCEE"/>
</linearGradient>
<radialGradient id="paint14_radial_0_293" cx="0" cy="0" r="1" gradientUnits="userSpaceOnUse" gradientTransform="translate(25.928 6.68921) rotate(90) scale(41.1761 40.167)">
<stop/>
<stop offset="0.817936"/>
<stop offset="1" stop-color="#FBFCEE"/>
</radialGradient>
<linearGradient id="paint15_linear_0_293" x1="25.928" y1="1.09446e-09" x2="25.928" y2="44.1988" gradientUnits="userSpaceOnUse">
<stop/>
<stop offset="1" stop-color="#FBFCEE"/>
</linearGradient>
<linearGradient id="paint16_linear_0_293" x1="52.2716" y1="20.8821" x2="33.2197" y2="3.18132" gradientUnits="userSpaceOnUse">
<stop stop-color="#FBFCEE"/>
<stop offset="0.5" stop-color="#E56695"/>
<stop offset="1" stop-color="#CB5A84"/>
</linearGradient>
<linearGradient id="paint17_linear_0_293" x1="-0.0733855" y1="20.5328" x2="18.9774" y2="2.83331" gradientUnits="userSpaceOnUse">
<stop stop-color="#FBFCEE"/>
<stop offset="0.5" stop-color="#E56695"/>
<stop offset="1" stop-color="#CB5A84"/>
</linearGradient>
<linearGradient id="paint18_linear_0_293" x1="9.02336" y1="0" x2="9.02336" y2="21.336" gradientUnits="userSpaceOnUse">
<stop stop-color="#FFF5FD"/>
<stop offset="1" stop-color="#EAE9EA"/>
</linearGradient>
<linearGradient id="paint19_linear_0_293" x1="12.8476" y1="15.6273" x2="12.8476" y2="36.9633" gradientUnits="userSpaceOnUse">
<stop stop-color="white"/>
<stop offset="1" stop-color="#EAE9EA"/>
</linearGradient>
<linearGradient id="paint20_linear_0_293" x1="12.8476" y1="15.6273" x2="12.8476" y2="36.9633" gradientUnits="userSpaceOnUse">
<stop/>
<stop offset="1" stop-color="#FBFCEE"/>
</linearGradient>
<linearGradient id="paint21_linear_0_293" x1="7.54319" y1="4.09618" x2="7.90981" y2="18.703" gradientUnits="userSpaceOnUse">
<stop stop-color="#1E1D1E"/>
<stop offset="1" stop-color="#662D42"/>
</linearGradient>
<linearGradient id="paint22_linear_0_293" x1="9.02336" y1="0" x2="9.02336" y2="21.336" gradientUnits="userSpaceOnUse">
<stop stop-color="#FFF5FD"/>
<stop offset="1" stop-color="#EAE9EA"/>
</linearGradient>
<linearGradient id="paint23_linear_0_293" x1="33.7394" y1="16.073" x2="33.7394" y2="37.409" gradientUnits="userSpaceOnUse">
<stop stop-color="white"/>
<stop offset="1" stop-color="#EAE9EA"/>
</linearGradient>
<linearGradient id="paint24_linear_0_293" x1="33.7394" y1="16.073" x2="33.7394" y2="37.409" gradientUnits="userSpaceOnUse">
<stop/>
<stop offset="1" stop-color="#FBFCEE"/>
</linearGradient>
<linearGradient id="paint25_linear_0_293" x1="7.54319" y1="4.09618" x2="7.90981" y2="18.703" gradientUnits="userSpaceOnUse">
<stop stop-color="#1E1D1E"/>
<stop offset="1" stop-color="#662D42"/>
</linearGradient>
<linearGradient id="paint26_linear_0_293" x1="34.0195" y1="37.1198" x2="33.131" y2="41.8657" gradientUnits="userSpaceOnUse">
<stop stop-color="#FE71A5"/>
<stop offset="1" stop-color="#FBFCEE"/>
</linearGradient>
<linearGradient id="paint27_linear_0_293" x1="35.6105" y1="37.1198" x2="34.0825" y2="40.6714" gradientUnits="userSpaceOnUse">
<stop stop-color="#FE71A5"/>
<stop offset="1" stop-color="#FBFCEE"/>
</linearGradient>
<linearGradient id="paint28_linear_0_293" x1="36.9191" y1="37.1243" x2="36.0419" y2="40.459" gradientUnits="userSpaceOnUse">
<stop stop-color="#FE71A5"/>
<stop offset="1" stop-color="#FBFCEE"/>
</linearGradient>
<linearGradient id="paint29_linear_0_293" x1="10.7056" y1="36.4728" x2="11.5941" y2="41.2187" gradientUnits="userSpaceOnUse">
<stop stop-color="#FE71A5"/>
<stop offset="1" stop-color="#FBFCEE"/>
</linearGradient>
<linearGradient id="paint30_linear_0_293" x1="9.11458" y1="36.4728" x2="10.6426" y2="40.0245" gradientUnits="userSpaceOnUse">
<stop stop-color="#FE71A5"/>
<stop offset="1" stop-color="#FBFCEE"/>
</linearGradient>
<linearGradient id="paint31_linear_0_293" x1="7.80599" y1="36.4773" x2="8.68315" y2="39.812" gradientUnits="userSpaceOnUse">
<stop stop-color="#FE71A5"/>
<stop offset="1" stop-color="#FBFCEE"/>
</linearGradient>
<linearGradient id="paint32_linear_0_293" x1="48.5057" y1="40.6529" x2="48.5674" y2="44.8823" gradientUnits="userSpaceOnUse">
<stop stop-color="#331721"/>
<stop offset="1" stop-color="#FBFCEE"/>
</linearGradient>
<linearGradient id="paint33_linear_0_293" x1="45.2614" y1="39.0297" x2="45.2614" y2="43.5839" gradientUnits="userSpaceOnUse">
<stop stop-color="#331721"/>
<stop offset="1" stop-color="#FBFCEE"/>
</linearGradient>
<linearGradient id="paint34_linear_0_293" x1="45.1491" y1="40.6518" x2="45.213" y2="44.8811" gradientUnits="userSpaceOnUse">
<stop stop-color="#331721"/>
<stop offset="1" stop-color="#FBFCEE"/>
</linearGradient>
<linearGradient id="paint35_linear_0_293" x1="48.8609" y1="42.1774" x2="51.0383" y2="42.1774" gradientUnits="userSpaceOnUse">
<stop stop-color="#331721"/>
<stop offset="1" stop-color="#FBFCEE"/>
</linearGradient>
<linearGradient id="paint36_linear_0_293" x1="51.3587" y1="43.9401" x2="57.9816" y2="43.9401" gradientUnits="userSpaceOnUse">
<stop stop-color="#331721"/>
<stop offset="1" stop-color="#FBFCEE"/>
</linearGradient>
</defs>
</svg>
