<svg width="47" height="42" viewBox="0 0 47 42" fill="none" xmlns="http://www.w3.org/2000/svg">
<path d="M32.1638 0.0369816C34.3082 -0.15897 35.8984 0.429568 36.825 1.66491C37.6807 2.8061 37.7138 4.17253 37.5408 5.04479L37.532 5.09069L37.5193 5.13659C36.8771 7.54431 34.8347 8.82818 32.9724 9.48718C31.107 10.1472 29.0832 10.3124 27.7468 10.2704V10.2714H24.1736C24.2506 9.91463 24.3032 9.58517 24.3318 9.29479L24.3337 9.27331L24.3582 8.89343L24.3591 8.88073V8.86804C24.3723 8.34178 24.3461 7.83937 24.2869 7.36022H24.7498C25.0422 5.15566 26.1022 3.50006 27.4001 2.33386C28.9307 0.958785 30.7703 0.273207 32.0486 0.0526066L32.1062 0.0428409L32.1638 0.0369816ZM34.4968 3.41101C34.3656 3.2361 33.9363 2.81286 32.4958 2.93054C31.6634 3.08393 30.3837 3.5661 29.3455 4.4989C28.5906 5.17714 27.954 6.09787 27.699 7.36022H27.7732L27.7996 7.3612C28.8692 7.39969 30.5401 7.26017 32.0017 6.74304C33.4674 6.22432 34.397 5.45346 34.6912 4.43444C34.7495 4.08522 34.6924 3.67192 34.4968 3.41101Z" fill="url(#paint0_linear_3363_90433)"/>
<path d="M11.5683 1.66531C12.4949 0.429838 14.0859 -0.158658 16.2304 0.0373775L16.2881 0.0432369L16.3447 0.0530025C17.623 0.273569 19.4625 0.959117 20.9931 2.33425C22.5691 3.75018 23.7972 5.88697 23.7226 8.85281L23.6865 10.2718H20.6465V10.2708C19.31 10.3128 17.2861 10.1476 15.4209 9.48757C13.5586 8.82854 11.5162 7.5446 10.874 5.13699L10.8623 5.09109L10.8525 5.04519C10.6795 4.17298 10.7127 2.80646 11.5683 1.66531ZM15.8984 2.93093C14.4577 2.81311 14.0287 3.23643 13.8974 3.4114C13.702 3.67206 13.6441 4.08482 13.7021 4.43386C13.996 5.45343 14.9262 6.22455 16.3925 6.74343C17.8542 7.26059 19.525 7.40012 20.5947 7.3616L20.6201 7.36062H20.6953C20.4402 6.09813 19.8027 5.17757 19.0478 4.49929C18.0098 3.56673 16.7309 3.08441 15.8984 2.93093Z" fill="url(#paint1_linear_3363_90433)"/>
<path d="M11.5683 1.66531C12.4949 0.429838 14.0859 -0.158658 16.2304 0.0373775L16.2881 0.0432369L16.3447 0.0530025C17.623 0.273569 19.4625 0.959117 20.9931 2.33425C22.5691 3.75018 23.7972 5.88697 23.7226 8.85281L23.6865 10.2718H20.6465V10.2708C19.31 10.3128 17.2861 10.1476 15.4209 9.48757C13.5586 8.82854 11.5162 7.5446 10.874 5.13699L10.8623 5.09109L10.8525 5.04519C10.6795 4.17298 10.7127 2.80646 11.5683 1.66531ZM15.8984 2.93093C14.4577 2.81311 14.0287 3.23643 13.8974 3.4114C13.702 3.67206 13.6441 4.08482 13.7021 4.43386C13.996 5.45343 14.9262 6.22455 16.3925 6.74343C17.8542 7.26059 19.525 7.40012 20.5947 7.3616L20.6201 7.36062H20.6953C20.4402 6.09813 19.8027 5.17757 19.0478 4.49929C18.0098 3.56673 16.7309 3.08441 15.8984 2.93093Z" fill="url(#paint2_linear_3363_90433)"/>
<path d="M43.6016 40.663C43.6016 40.963 43.3576 41.2059 43.0576 41.2059H4.0918C3.7919 41.2058 3.54883 40.9629 3.54883 40.663V17.8846H43.6016V40.663ZM46.3535 10.2753C46.6534 10.2754 46.8964 10.5184 46.8965 10.8182V17.3368C46.8964 17.6367 46.6534 17.8796 46.3535 17.8798H0.542969C0.243022 17.8797 5.36187e-05 17.6367 0 17.3368V10.8182C0.000109279 10.5183 0.243057 10.2753 0.542969 10.2753H46.3535Z" fill="#FE71A5"/>
<rect x="26.457" y="10.2948" width="7.65189" height="4.86953" transform="rotate(90 26.457 10.2948)" fill="url(#paint3_linear_3363_90433)"/>
<rect x="25.9297" y="17.9393" width="23.2745" height="3.81789" transform="rotate(90 25.9297 17.9393)" fill="url(#paint4_linear_3363_90433)"/>
<rect x="3.50781" y="17.8846" width="40.0722" height="3.18261" fill="#191919" fill-opacity="0.1"/>
<defs>
<linearGradient id="paint0_linear_3363_90433" x1="30.4258" y1="6.55762" x2="30.6737" y2="23.6561" gradientUnits="userSpaceOnUse">
<stop stop-color="#331721"/>
<stop offset="1" stop-color="#FBFCEE"/>
</linearGradient>
<linearGradient id="paint1_linear_3363_90433" x1="17.2475" y1="0.000366211" x2="17.2475" y2="18.4118" gradientUnits="userSpaceOnUse">
<stop stop-color="#331721"/>
<stop offset="1" stop-color="#FBFCEE"/>
</linearGradient>
<linearGradient id="paint2_linear_3363_90433" x1="16.7917" y1="6.558" x2="17.0491" y2="23.6563" gradientUnits="userSpaceOnUse">
<stop stop-color="#331721"/>
<stop offset="1" stop-color="#FBFCEE"/>
</linearGradient>
<linearGradient id="paint3_linear_3363_90433" x1="31.6582" y1="12.7296" x2="40.4559" y2="12.7296" gradientUnits="userSpaceOnUse">
<stop stop-color="#331721"/>
<stop offset="1" stop-color="#FBFCEE"/>
</linearGradient>
<linearGradient id="paint4_linear_3363_90433" x1="41.7498" y1="19.8483" x2="68.5095" y2="19.8483" gradientUnits="userSpaceOnUse">
<stop stop-color="#331721"/>
<stop offset="1" stop-color="#FBFCEE"/>
</linearGradient>
</defs>
</svg>
